<svg xmlns="http://www.w3.org/2000/svg" >

  <symbol id="icon-age" viewBox="0 0 512 512">
    <g>
      <g>
        <path d="M510.702,438.722c-2.251-10.813-12.84-17.754-23.657-15.503c-10.814,2.251-17.755,12.843-15.503,23.656
          c1.297,6.229-0.248,12.613-4.236,17.519c-2.31,2.841-7.461,7.606-15.999,7.606H60.693c-8.538,0-13.689-4.766-15.999-7.606
          c-3.989-4.905-5.533-11.29-4.236-17.519c20.756-99.695,108.691-172.521,210.24-174.977c1.759,0.068,3.526,0.102,5.302,0.102
          c1.782,0,3.556-0.035,5.322-0.103c71.532,1.716,137.648,37.947,177.687,97.66c6.151,9.175,18.574,11.625,27.75,5.474
          c9.174-6.151,11.625-18.575,5.473-27.749c-32.817-48.944-80.47-84.534-134.804-102.417C370.538,220.036,392,180.477,392,136
          C392,61.01,330.991,0,256,0S120,61.01,120,136c0,44.504,21.488,84.084,54.633,108.911c-30.368,9.998-58.863,25.555-83.803,46.069
          c-45.732,37.617-77.529,90.086-89.532,147.742c-3.762,18.067,0.745,36.623,12.363,50.909C25.222,503.847,42.365,512,60.693,512
          h390.613c18.329,0,35.472-8.153,47.032-22.369C509.958,475.345,514.464,456.789,510.702,438.722z M160,136
          c0-52.935,43.065-96,96-96s96,43.065,96,96c0,51.305-40.455,93.339-91.141,95.878c-1.617-0.03-3.237-0.045-4.859-0.045
          c-1.614,0-3.228,0.016-4.84,0.046C200.465,229.35,160,187.312,160,136z"/>
      </g>
    </g>
  </symbol>


  <symbol id="icon-time" viewBox="0 0 384 384">
    <path d="m343.59375 101.039062c-7.953125 3.847657-11.28125 13.417969-7.433594 21.367188 10.511719 21.714844 15.839844 45.121094 15.839844 69.59375 0 88.222656-71.777344 160-160 160s-160-71.777344-160-160 71.777344-160 160-160c36.558594 0 70.902344 11.9375 99.328125 34.519531 6.894531 5.503907 16.976563 4.351563 22.480469-2.566406 5.503906-6.914063 4.351562-16.984375-2.570313-22.480469-33.652343-26.746094-76-41.472656-119.238281-41.472656-105.863281 0-192 86.136719-192 192s86.136719 192 192 192 192-86.136719 192-192c0-29.335938-6.40625-57.449219-19.039062-83.527344-3.839844-7.96875-13.441407-11.289062-21.367188-7.433594zm0 0"/><path d="m192 64c-8.832031 0-16 7.167969-16 16v112c0 8.832031 7.167969 16 16 16h80c8.832031 0 16-7.167969 16-16s-7.167969-16-16-16h-64v-96c0-8.832031-7.167969-16-16-16zm0 0"/>
  </symbol>


  <symbol id="icon-price" viewBox="0 0 512 512">
    <g>
      <g>
        <path d="M496,256.012h-16v-80c0-8.832-7.168-16-16-16h-16v-48c0-8.832-7.168-16-16-16h-54.112l-27.584-55.168
          c-3.968-7.936-13.568-11.104-21.472-7.168L291.968,52.14l-5.664-11.296c-3.968-7.904-13.568-11.104-21.472-7.136L140.224,96.012
          H48c-26.464,0-48,21.536-48,48v288c0,26.464,21.536,48,48,48h416c8.832,0,16-7.168,16-16v-80h16c8.832,0,16-7.168,16-16v-96
          C512,263.18,504.832,256.012,496,256.012z M416,128.012v32h-6.112l-16-32H416z M328.832,69.484l45.28,90.528h-28.224
          l-39.616-79.264L328.832,69.484z M264.832,69.484l45.28,90.528H83.776L264.832,69.484z M48,128.012h28.224L33.28,149.484
          c-0.64-1.76-1.28-3.552-1.28-5.472C32,135.18,39.168,128.012,48,128.012z M448,448.012H48c-8.832,0-16-7.168-16-16V188.94
          c5.248,1.888,10.624,3.072,16,3.072h400v64h-64c-35.296,0-64,28.704-64,64c0,35.296,28.704,64,64,64h64V448.012z M480,352.012h-96
          c-17.632,0-32-14.368-32-32c0-17.632,14.368-32,32-32h96V352.012z"/>
      </g>
    </g>
  </symbol>


  <symbol id="icon-duration" viewBox="0 0 24 24">
    <path d="m12 6c-3.309 0-6 2.691-6 6s2.691 6 6 6 6-2.691 6-6-2.691-6-6-6zm2.8 8.6c-.332.443-.959.531-1.399.2l-2-1.75c-.252-.188-.4-.485-.4-.8v-3.25c0-.552.447-1 1-1s1 .448 1 1v2.75l1.6 1.45c.441.331.531.958.199 1.4z"/><path d="m1.5 12c0-5.789 4.71-10.5 10.5-10.5 2.079 0 4.055.607 5.732 1.707l-1.512 1.513c-.472.47-.139 1.28.53 1.28h4.5c.414 0 .75-.336.75-.75v-4.5c0-.665-.806-1.004-1.28-.53l-1.914 1.914c-1.971-1.369-4.322-2.134-6.806-2.134-6.617 0-12 5.383-12 12 0 1.173.173 2.339.513 3.466.119.395.534.621.935.502.396-.12.621-.538.501-.935-.298-.987-.449-2.007-.449-3.033z"/><path d="m23.487 8.534c-.12-.397-.535-.623-.935-.502-.396.12-.621.538-.501.935.298.987.449 2.007.449 3.033 0 5.789-4.71 10.5-10.5 10.5-2.075 0-4.048-.604-5.722-1.7l1.505-1.522c.468-.474.132-1.278-.533-1.278h-4.5c-.2 0-.393.08-.533.223s-.219.335-.217.535l.05 4.5c.006.666.819.99 1.283.519l1.878-1.899c1.967 1.362 4.312 2.122 6.789 2.122 6.617 0 12-5.383 12-12 0-1.173-.173-2.339-.513-3.466z"/>
  </symbol>


  <symbol id="icon-maxNum" viewBox="0 0 512 512">
    <path d="m512 256c0 68.378906-26.628906 132.667969-74.980469 181.019531-48.351562 48.351563-112.640625 74.980469-181.019531 74.980469h-1c-68.339844 0-132.464844-26.644531-180.5625-75.023438-48-48.285156-74.4375-112.554687-74.4375-180.976562h40c0 119.101562 96.449219 216 215 216h1c119.101562 0 216-96.898438 216-216s-96.898438-216-216-216c-59.25 0-115.058594 24.152344-155.421875 66h39.421875v40h-110v-110h40v44.078125c47.964844-50.746094 114.894531-80.078125 186-80.078125 68.378906 0 132.667969 26.628906 181.019531 74.980469 48.351563 48.351562 74.980469 112.640625 74.980469 181.019531zm-311.464844 5.679688c-12.742187-13.890626-20.535156-32.390626-20.535156-52.679688 0-43.011719 34.992188-78 78-78s78 34.988281 78 78c0 20.289062-7.792969 38.789062-20.535156 52.679688 37.230468 20.394531 62.535156 59.957031 62.535156 105.320312h-40c0-44.113281-35.886719-80-80-80s-80 35.886719-80 80h-40c0-45.363281 25.304688-84.925781 62.535156-105.320312zm57.464844-14.679688c20.953125 0 38-17.046875 38-38s-17.046875-38-38-38-38 17.046875-38 38 17.046875 38 38 38zm0 0"/>
  </symbol>
  

  <symbol id="icon-wave" viewBox="0 0 512 512">
    <path d="m282.931 468c-23.131 0-41.5-15.897-44.804-38.897l-48.772-341.226c-.179-1.248-.557-3.875-4.485-3.877-.002 0-.005 0-.007 0-3.923 0-4.303 2.624-4.486 3.885l-34.736 243.531c-3.158 21.743-20.653 37.57-42.551 38.539-21.901.967-40.722-13.252-45.776-34.581-.019-.077-.036-.153-.053-.23l-11.214-49.947c-3.047-12.662-14.228-22.197-26.047-22.197-11.046 0-20-8.954-20-20s8.954-20 20-20c30.372 0 57.705 22.321 64.993 53.074.019.077.036.153.053.23l11.216 49.955c.282 1.172 1.064 3.904 5.06 3.734 4.133-.183 4.564-3.157 4.727-4.277l34.736-243.531c3.27-22.508 21.391-38.185 44.078-38.185h.039c22.707.018 40.82 15.728 44.049 38.204l48.771 341.225c.181 1.259.708 4.666 5.369 4.57 4.702-.071 5.086-3.465 5.231-4.743l6.803-60.491c1.234-10.977 11.134-18.877 22.11-17.639 10.977 1.234 18.874 11.133 17.639 22.11l-6.805 60.504c-2.642 23.354-20.89 39.902-44.377 40.255-.254.003-.508.005-.761.005zm169.253-147.633c.02-.079.039-.158.058-.237l7.062-29.967c3.901-15.493 17.939-27.163 32.696-27.163 11.046 0 20-8.954 20-20s-8.954-20-20-20c-33.154 0-63.242 24.231-71.542 57.617-.02.079-.039.159-.058.238l-7.063 29.974c-.238.942-.662 2.253-3.008 2.167-2.445-.096-2.687-1.549-2.839-2.458l-15.696-95.746c-3.408-20.444-20.25-34.354-40.978-33.799-20.719.544-36.817 15.308-39.147 35.903l-8.469 74.855c-1.242 10.976 6.649 20.88 17.625 22.122 10.979 1.243 20.88-6.649 22.122-17.625l8.469-74.855c.018-.152.038-.274.058-.369.237-.053.552-.062.79-.021.022.083.046.187.067.312l15.696 95.746c3.388 20.331 20.139 35.095 40.734 35.904.591.023 1.178.035 1.764.035 19.843 0 36.829-13.204 41.659-32.633z"/>
  </symbol>


  <symbol id="icon-wave2" viewBox="0 0 384 384">
    <path d="m176 288c0 8.832031 7.167969 16 16 16s16-7.167969 16-16v-192c0-8.832031-7.167969-16-16-16s-16 7.167969-16 16zm0 0"/><path d="m16 96c-8.832031 0-16 7.167969-16 16v160c0 8.832031 7.167969 16 16 16s16-7.167969 16-16v-160c0-8.832031-7.167969-16-16-16zm0 0"/><path d="m152 256v-128c0-8.832031-7.167969-16-16-16s-16 7.167969-16 16v128c0 8.832031 7.167969 16 16 16s16-7.167969 16-16zm0 0"/><path d="m80 240c8.832031 0 16-7.167969 16-16v-64c0-8.832031-7.167969-16-16-16s-16 7.167969-16 16v64c0 8.832031 7.167969 16 16 16zm0 0"/><path d="m264 256v-128c0-8.832031-7.167969-16-16-16s-16 7.167969-16 16v128c0 8.832031 7.167969 16 16 16s16-7.167969 16-16zm0 0"/><path d="m368 96c-8.832031 0-16 7.167969-16 16v160c0 8.832031 7.167969 16 16 16s16-7.167969 16-16v-160c0-8.832031-7.167969-16-16-16zm0 0"/><path d="m304 144c-8.832031 0-16 7.167969-16 16v64c0 8.832031 7.167969 16 16 16s16-7.167969 16-16v-64c0-8.832031-7.167969-16-16-16zm0 0"/><path d="m176 368c0 8.832031 7.167969 16 16 16s16-7.167969 16-16v-16c0-8.832031-7.167969-16-16-16s-16 7.167969-16 16zm0 0"/><path d="m192 48c8.832031 0 16-7.167969 16-16v-16c0-8.832031-7.167969-16-16-16s-16 7.167969-16 16v16c0 8.832031 7.167969 16 16 16zm0 0"/>
  </symbol>


  <symbol id="icon-date" viewBox="0 0 512 512">
    <g>
      <g>
        <circle cx="386" cy="210" r="20"/>
        <path d="M432,40h-26V20c0-11.046-8.954-20-20-20c-11.046,0-20,8.954-20,20v20h-91V20c0-11.046-8.954-20-20-20
          c-11.046,0-20,8.954-20,20v20h-90V20c0-11.046-8.954-20-20-20s-20,8.954-20,20v20H80C35.888,40,0,75.888,0,120v312
          c0,44.112,35.888,80,80,80h153c11.046,0,20-8.954,20-20c0-11.046-8.954-20-20-20H80c-22.056,0-40-17.944-40-40V120
          c0-22.056,17.944-40,40-40h25v20c0,11.046,8.954,20,20,20s20-8.954,20-20V80h90v20c0,11.046,8.954,20,20,20s20-8.954,20-20V80h91
          v20c0,11.046,8.954,20,20,20c11.046,0,20-8.954,20-20V80h26c22.056,0,40,17.944,40,40v114c0,11.046,8.954,20,20,20
          c11.046,0,20-8.954,20-20V120C512,75.888,476.112,40,432,40z"/>
        <path d="M391,270c-66.72,0-121,54.28-121,121s54.28,121,121,121s121-54.28,121-121S457.72,270,391,270z M391,472
          c-44.663,0-81-36.336-81-81s36.337-81,81-81c44.663,0,81,36.336,81,81S435.663,472,391,472z"/>
        <path d="M420,371h-9v-21c0-11.046-8.954-20-20-20c-11.046,0-20,8.954-20,20v41c0,11.046,8.954,20,20,20h29
          c11.046,0,20-8.954,20-20C440,379.954,431.046,371,420,371z"/>
        <circle cx="299" cy="210" r="20"/>
        <circle cx="212" cy="297" r="20"/>
        <circle cx="125" cy="210" r="20"/>
        <circle cx="125" cy="297" r="20"/>
        <circle cx="125" cy="384" r="20"/>
        <circle cx="212" cy="384" r="20"/>
        <circle cx="212" cy="210" r="20"/>
      </g>
    </g>
  </symbol>


  <symbol id="icon-sale" viewBox="0 0 512.006 512.006">
    <path id="XMLID_2545_" d="m405.237 10 74.739 74.739c24.839 24.839 24.839 65.111 0 89.95l-74.739 74.739h-369.222c-14.367 0-26.014-11.647-26.014-26.014v-187.4c0-14.367 11.647-26.014 26.014-26.014z" fill="#f5737f"/><path id="XMLID_2483_" d="m332.7 64.006h141.685c10.785 10.785 16.832 16.832 27.617 27.617v141.685l-261.08 261.079c-10.159 10.159-26.63 10.159-36.789 0l-132.512-132.512c-10.159-10.159-10.159-26.63 0-36.789z" fill="#91def5"/><circle id="XMLID_2590_" cx="438.001" cy="128.006" fill="#f5737f" r="20"/><circle id="XMLID_2480_" cx="179.58" cy="169.431" fill="#fff" r="20.003"/><circle id="XMLID_2476_" cx="95.173" cy="89.997" fill="#fff" r="20.003"/><path id="XMLID_1468_" d="m502.335 77.815 6.741-6.741c3.905-3.905 3.905-10.237 0-14.143-3.905-3.904-10.237-3.904-14.143 0l-6.741 6.741-6.737-6.737c-1.875-1.875-4.419-2.929-7.071-2.929h-10.999l-51.077-51.077c-1.876-1.875-4.419-2.929-7.071-2.929h-369.222c-19.858 0-36.014 16.155-36.014 36.014v187.401c0 19.858 16.156 36.014 36.014 36.014h87.12l-58.585 58.586c-6.802 6.802-10.548 15.846-10.548 25.466 0 9.619 3.746 18.663 10.548 25.466l132.512 132.512c6.802 6.802 15.846 10.548 25.466 10.548s18.664-3.746 25.466-10.548l99.247-99.246c3.906-3.905 3.906-10.237 0-14.143-3.905-3.903-10.237-3.904-14.142 0l-99.248 99.246c-3.024 3.025-7.046 4.69-11.323 4.69s-8.299-1.665-11.323-4.69l-132.513-132.512c-3.024-3.024-4.69-7.046-4.69-11.323 0-4.278 1.666-8.299 4.69-11.323l258.15-258.15h133.401l3.808 3.808-23.124 23.124c-3.917-1.878-8.3-2.931-12.926-2.931-16.542 0-30 13.458-30 30s13.458 30 30 30 30-13.458 30-30c0-4.626-1.054-9.01-2.932-12.926l23.124-23.124 3.808 3.808v133.4l-95.264 95.265c-3.905 3.905-3.905 10.237 0 14.143 3.905 3.904 10.237 3.904 14.143 0l98.193-98.193c1.875-1.876 2.929-4.419 2.929-7.071v-141.688c0-2.652-1.054-5.195-2.929-7.071zm-322.755 101.62c-5.516 0-10.003-4.487-10.003-10.003 0-5.517 4.487-10.004 10.003-10.004s10.003 4.487 10.003 10.004c0 5.515-4.487 10.003-10.003 10.003zm153.12-125.428c-2.652 0-5.196 1.054-7.071 2.929l-116.294 116.293c.158-1.245.249-2.511.249-3.798 0-16.544-13.459-30.004-30.003-30.004-16.543 0-30.003 13.46-30.003 30.004s13.459 30.003 30.003 30.003c1.287 0 2.553-.091 3.798-.249l-40.243 40.243h-107.121c-8.83 0-16.014-7.184-16.014-16.014v-187.4c0-8.83 7.184-16.014 16.014-16.014h365.079l34.007 34.007zm105.301 84c-5.514 0-10-4.486-10-10s4.486-10 10-10c2.282 0 4.382.777 6.067 2.069.265.346.547.684.863 1s.654.598 1 .863c1.292 1.685 2.069 3.785 2.069 6.067.001 5.515-4.485 10.001-9.999 10.001z"/><path id="XMLID_1527_" d="m332.599 295.835c2.652 0 5.196-1.054 7.071-2.929l22.627-22.628c3.905-3.905 3.905-10.237 0-14.143-3.905-3.904-10.237-3.904-14.142 0l-15.556 15.557-49.498-49.497c-3.904-3.904-10.237-3.904-14.142 0-3.905 3.905-3.905 10.237 0 14.143l56.569 56.568c1.876 1.875 4.42 2.929 7.071 2.929z"/><path id="XMLID_1528_" d="m410.381 208.053c-3.905-3.904-10.237-3.904-14.143 0l-12.728 12.728-14.142-14.141 12.728-12.728c3.905-3.905 3.905-10.237 0-14.143-3.905-3.904-10.237-3.904-14.143 0l-12.728 12.728-14.142-14.142 12.728-12.728c3.905-3.905 3.906-10.237 0-14.143-3.905-3.903-10.237-3.904-14.142 0l-19.799 19.799c-1.875 1.875-2.929 4.419-2.929 7.071s1.054 5.195 2.929 7.071l56.569 56.568c1.952 1.952 4.512 2.929 7.071 2.929s5.119-.977 7.071-2.929l19.799-19.799c3.906-3.904 3.906-10.236.001-14.141z"/><path id="XMLID_1531_" d="m299.776 323.029c4.919 2.508 10.942.55 13.45-4.371 2.507-4.921.55-10.942-4.372-13.449l-74.953-38.184c-3.86-1.967-8.547-1.224-11.61 1.839s-3.806 7.751-1.839 11.61l38.184 74.953c1.766 3.468 5.276 5.464 8.918 5.463 1.527 0 3.078-.351 4.531-1.092 4.921-2.507 6.878-8.528 4.372-13.449l-3.066-6.02 20.367-20.367zm-35.932-1.437-11.604-22.779 22.78 11.605z"/><path id="XMLID_1532_" d="m203.906 400.386c-3.905 3.905-3.906 10.237 0 14.143 1.953 1.952 4.512 2.929 7.071 2.929s5.119-.977 7.071-2.929l14.143-14.142c11.697-11.697 11.697-30.729 0-42.427-11.118-11.118-28.857-11.66-40.632-1.644-.366.277-.722.571-1.055.905l-.74.739c-1.889 1.889-4.4 2.929-7.071 2.929s-5.182-1.04-7.071-2.929c-3.899-3.899-3.899-10.243 0-14.143l14.142-14.142c3.905-3.905 3.906-10.237 0-14.143-3.905-3.903-10.237-3.904-14.142 0l-14.143 14.142c-11.697 11.697-11.697 30.73 0 42.428 5.667 5.666 13.2 8.786 21.213 8.786 8.002 0 15.526-3.112 21.192-8.766.007-.007.015-.013.022-.02 3.898-3.9 10.243-3.9 14.142 0 1.889 1.889 2.929 4.399 2.929 7.07 0 2.672-1.04 5.183-2.929 7.071z"/><path id="XMLID_1533_" d="m171.339 64.557c-4.809-2.714-10.909-1.018-13.624 3.792l-64.5 114.254c-2.715 4.81-1.018 10.909 3.792 13.624 1.554.877 3.241 1.294 4.907 1.294 3.49 0 6.879-1.83 8.717-5.086l64.5-114.254c2.715-4.81 1.018-10.91-3.792-13.624z"/><path id="XMLID_1536_" d="m125.176 89.997c0-16.544-13.459-30.003-30.003-30.003s-30.004 13.459-30.004 30.003 13.459 30.004 30.003 30.004 30.004-13.46 30.004-30.004zm-40.007 0c0-5.516 4.487-10.003 10.003-10.003s10.003 4.487 10.003 10.003c0 5.517-4.487 10.004-10.003 10.004s-10.003-4.487-10.003-10.004z"/><path id="XMLID_1537_" d="m371.991 353.319c-2.64 0-5.21 1.07-7.07 2.931-1.86 1.859-2.93 4.439-2.93 7.069 0 2.631 1.07 5.211 2.93 7.07 1.86 1.86 4.43 2.93 7.07 2.93 2.63 0 5.21-1.069 7.07-2.93 1.86-1.859 2.93-4.439 2.93-7.07 0-2.63-1.07-5.21-2.93-7.069-1.86-1.86-4.44-2.931-7.07-2.931z"/>
  </symbol>


  <symbol id="icon-planet" viewBox="0 0 510.999 510.999">
    <g><g><path d="m350.519 64.227c-28.64-14.19-60.9-22.15-95.02-22.15-5.98 0-11.9.24-17.75.72-104.37 8.55-187.59 91.86-195.99 196.27-.47 5.76-.71 11.58-.71 17.45 0 34.24 8.02 66.6 22.29 95.31 7.38 14.85 16.42 28.72 26.9 41.37 52.68-17.7 139.74-91.05 207.71-166.05-16.05-5.09-27.69-20.11-27.69-37.84 0-21.93 17.78-39.7 39.7-39.7 15.21 0 28.42 8.56 35.08 21.12 22.52-29.7 39.54-57.37 47.36-79.28-12.79-10.62-26.84-19.78-41.88-27.22zm-100.52 64.77c-11.05 0-20-8.95-20-20s8.95-20 20-20 20 8.95 20 20-8.95 20-20 20z" fill="#5cd0b3"/><path d="m469.939 256.517c0 75.91-39.43 142.6-98.93 180.71-8.84-7.46-15.71-17.14-19.81-28.23h-.01c-3.43 9.26-8.79 17.55-15.61 24.38-6.83 6.82-15.12 12.19-24.38 15.62 6.17 2.29 11.91 5.43 17.07 9.31-22.72 8.19-47.22 12.66-72.77 12.66-34.81 0-67.7-8.29-96.76-23.02 47.85-32.3 102.61-77.8 157.01-132.2 53.89-53.9 99.07-108.15 131.32-155.7 14.63 28.99 22.87 61.77 22.87 96.47z" fill="#5cd0b3"/><path d="m391.189 448.997c-18.53 6.86-33.14 21.47-39.99 40h-.01c-4.57-12.36-12.59-22.97-22.92-30.69-5.16-3.88-10.9-7.02-17.07-9.31 9.26-3.43 17.55-8.8 24.38-15.62 6.82-6.83 12.18-15.12 15.61-24.38h.01c4.1 11.09 10.97 20.77 19.81 28.23 5.92 5.01 12.73 9.01 20.18 11.77z" fill="#ffc144"/><path d="m345.039 170.727c-13.89 18.33-29.88 37.43-47.09 56.42-16.05-5.09-27.69-20.11-27.69-37.84 0-21.93 17.78-39.7 39.7-39.7 15.21 0 28.42 8.56 35.08 21.12z" fill="#9de3d1"/><circle cx="249.999" cy="108.997" fill="#9de3d1" r="20"/><path d="m447.069 160.047c-32.25 47.55-77.43 101.8-131.32 155.7-54.4 54.4-109.16 99.9-157.01 132.2-67.75 45.73-121.68 64.98-141.18 45.49-10.96-10.97-9.67-32.86 1.71-61.96 8.89-22.72 23.93-49.85 44.07-79.65 7.38 14.85 16.42 28.72 26.9 41.37 52.68-17.7 139.74-91.05 207.71-166.05 17.21-18.99 33.2-38.09 47.09-56.42 22.52-29.7 39.54-57.37 47.36-79.28-12.79-10.62-26.84-19.78-41.88-27.22 30.31-20.59 57.9-35.94 80.96-44.96 29.1-11.37 50.98-12.67 61.95-1.7 19.63 19.63 0 74.12-46.36 142.48z" fill="#e7e9ef"/></g><g><path d="m479.94 256.517c0-33.538-7.19-65.693-21.363-95.677 22.002-33.04 37.845-63.084 45.901-87.134 9.863-29.443 8.526-50.71-3.976-63.212-13.809-13.807-38.259-13.988-72.668-.536-22.586 8.832-48.863 23.221-78.158 42.781-29.563-13.711-61.214-20.666-94.178-20.666-6.184 0-12.43.255-18.564.758-52.847 4.329-102.653 27.443-140.247 65.086-65.512 65.598-83.993 168.996-44.828 253.089-19.095 28.738-33.188 54.567-41.904 76.832-13.451 34.411-13.271 58.859.536 72.667 6.991 6.991 16.724 10.49 29.1 10.489 9.623 0 20.846-2.117 33.611-6.353 23.816-7.902 53.575-23.496 86.309-45.187 30.057 14.273 62.316 21.513 95.987 21.513 24.226 0 48.004-3.837 70.775-11.396 6.881 6.183 12.25 14.004 15.541 22.896 1.452 3.924 5.194 6.53 9.379 6.53s7.927-2.605 9.379-6.53c5.852-15.814 18.277-28.24 34.092-34.092 3.924-1.452 6.529-5.194 6.529-9.378s-2.605-7.926-6.529-9.378c-2.002-.741-3.948-1.588-5.834-2.533 57.316-42.287 91.11-108.718 91.11-180.569zm-241.373-203.752c5.594-.458 11.29-.691 16.931-.691 31.828 0 62.304 7.103 90.585 21.112 12.11 5.994 23.63 13.201 34.332 21.473-7.014 16.665-19.218 36.972-35.433 59.381-9.167-9.119-21.67-14.432-35.022-14.432-27.404 0-49.7 22.295-49.7 49.7 0 16.681 8.194 31.755 21.36 40.849-8.454 9.08-17.267 18.223-26.4 27.361-61.226 61.26-122.225 107.856-161.68 123.792-5.42-7.024-10.367-14.398-14.821-22.045 38.929-19.403 90.864-59.491 144.608-111.844 3.956-3.854 4.039-10.185.186-14.141-3.854-3.955-10.186-4.039-14.141-.185-51.754 50.415-103.131 90.146-139.87 108.415-2.892-6.304-5.435-12.716-7.651-19.22 28.843-16.392 63.391-42.365 100.461-75.574 4.113-3.685 4.461-10.007.775-14.121-3.687-4.114-10.008-4.461-14.121-.776-34.225 30.661-66.027 54.855-92.764 70.632-1.918-8.363-3.292-16.864-4.137-25.48 16.142-10.74 33.495-23.776 51.673-38.833 4.253-3.522 4.846-9.827 1.322-14.08-3.522-4.252-9.825-4.845-14.08-1.322-13.892 11.506-27.25 21.771-39.899 30.671.068-4.54.278-9.078.641-13.537 8.065-100.21 86.645-178.899 186.845-187.105zm56.755 162.371c-9.196-5.183-15.063-14.925-15.063-25.829 0-16.377 13.323-29.7 29.7-29.7 8.942 0 17.249 3.989 22.826 10.701-11.148 14.398-23.725 29.458-37.463 44.828zm55.873 252.555c-5.116-7.256-11.438-13.578-18.694-18.694 7.257-5.117 13.578-11.438 18.694-18.694 5.116 7.256 11.438 13.578 18.694 18.694-7.257 5.117-13.578 11.438-18.694 18.694zm21.095-43.621c-9.776-5.247-9.204-23.678-20.253-24.696-5.454-.503-10.005 4.27-12.337 9.226s-3.446 10.558-6.764 14.915c-4.835 6.349-13.16 8.651-20.129 12.541-6.969 3.889-13.413 11.916-10.236 19.237-23.714 5.905-48.561 7.224-72.767 3.864 14.073-10.319 28.147-20.639 42.22-30.958 3.96-2.904 8.084-6.004 10.115-10.475 2.032-4.471 1.073-10.707-3.321-12.898-4.706-2.347-10.162.901-14.402 4.012-13.804 10.13-27.609 20.26-41.413 30.389-6.473 4.75-13.139 9.595-20.886 11.701s-16.932.896-22.306-5.067c33.049-24.069 64.779-49.948 95.002-77.481 5.644-5.142 11.451-14.043 6.044-19.434-5.031-5.016-13.411-.368-18.786 4.278-60.012 51.876-121.72 104.766-195.975 132.675-11.38 4.277-28.853 9.51-39.779 1.204-11.811-8.98-5.127-30.617-1.062-42.305 8.971-25.794 21.556-50.328 37.272-72.662 5.865 8.158 11.73 16.316 17.594 24.474 1.903 2.647 4 5.443 7.081 6.506 3.692 1.274 7.705-.286 11.267-1.888 59.936-26.95 110.133-71.374 157.296-117.137 56.512-54.835 111.048-113.847 144.87-184.957 1.548-3.254 3.083-6.906 2.036-10.354-.947-3.118-3.762-5.235-6.413-7.13-8.413-6.014-16.825-12.029-25.238-18.043 27.568-20.821 59.67-35.604 93.412-43.017 5.289-1.162 10.989-2.112 15.976-.002 10.853 4.592 11.472 19.7 8.995 31.221-6.204 28.861-20.491 55.321-36.151 80.346-33.557 53.625-74.112 102.61-117.626 148.526-5.851 6.174-11.47 17.028-4.452 21.834 5.68 3.89 13.017-1.434 17.743-6.44 34.368-36.408 66.546-74.882 96.303-115.145 17.063 42.385 19.265 90.586 6.138 134.35-13.126 43.762-41.494 82.794-79.068 108.79z"/><path d="m500.999 470.997h-10v-10c0-5.523-4.478-10-10-10s-10 4.477-10 10v10h-10c-5.522 0-10 4.477-10 10s4.478 10 10 10h10v10c0 5.523 4.478 10 10 10s10-4.477 10-10v-10h10c5.522 0 10-4.477 10-10s-4.477-10-10-10z"/><circle cx="470.999" cy="408.997" r="10.004"/><path d="m249.999 138.997c16.542 0 30-13.458 30-30s-13.458-30-30-30-30 13.458-30 30 13.458 30 30 30zm0-40c5.514 0 10 4.486 10 10s-4.486 10-10 10-10-4.486-10-10 4.487-10 10-10z"/><circle cx="306.522" cy="325.967" r="10.005"/></g></g>
  </symbol>


  <symbol id="icon-rocket" viewBox="0 0 504.155 504.155">
    <circle style="fill:#4FBF9F;" cx="252.093" cy="252.077" r="252.062"/>
    <path style="fill:#E0E4E8;" d="M312.746,415.917l-137.058,58.289l31.508-46.474l-3.151-29.145
      c36.234-11.028,70.892-26.782,102.4-46.474l0,0L312.746,415.917z"/>
    <path style="fill:#183651;" d="M169.386,479.721c-2.363-2.363-2.363-6.302-0.788-9.452l29.932-44.111l-3.151-25.994
      c-0.788-3.938,1.575-7.089,5.514-8.665c35.446-10.24,69.317-25.994,100.037-45.686c3.151-1.575,7.089-1.575,9.452,0.788
      c1.575,1.575,2.363,3.151,2.363,4.726l7.089,63.803c0,3.151-1.575,7.089-4.726,7.877l-137.846,58.289
      C174.9,483.659,171.749,482.871,169.386,479.721z M211.921,404.89l2.363,22.843c0,1.575,0,3.938-1.575,5.514l-16.542,24.418
      l107.914-45.686l-4.726-45.686C271.786,382.047,242.641,395.438,211.921,404.89z"/>
    <path style="fill:#E0E4E8;" d="M104.795,300.127l-29.145-3.151l-46.474,31.508l58.289-137.846l63.803,7.089l0,0
      C131.577,229.234,115.823,263.893,104.795,300.127z"/>
    <path style="fill:#183651;" d="M23.663,334.785c-2.363-2.363-3.938-6.302-2.363-9.452l58.289-137.846
      c1.575-3.151,4.726-5.514,7.877-4.726l63.803,7.089c1.575,0,3.938,0.788,4.726,2.363c2.363,2.363,3.151,6.302,0.788,9.452
      c-19.692,30.72-34.658,64.591-45.686,100.037c-0.788,3.938-4.726,6.302-8.665,5.514l-25.994-3.151l-43.323,30.72
      C30.752,337.148,26.813,337.148,23.663,334.785z M92.192,199.302L46.506,307.216l24.418-16.542c1.575-0.788,3.151-1.575,5.514-1.575
      l22.843,2.363c9.452-29.932,22.843-59.077,38.597-86.646L92.192,199.302z"/>
    <path style="fill:#FFFFFF;" d="M203.257,398.588C372.61,348.964,495.49,193.001,495.49,7.893l0,0l0,0
      c-185.108,0-341.071,123.668-390.695,292.234L203.257,398.588z"/>
    <path style="fill:#183651;" d="M203.257,406.465c-2.363,0-3.938-0.788-5.514-2.363l-98.462-98.462
      c-2.363-2.363-3.151-4.726-2.363-7.877C148.906,122.896,312.746,0.016,495.49,0.016c4.726,0,7.877,3.151,7.877,7.877
      c0,182.745-122.88,346.585-297.748,398.572C204.832,406.465,204.044,406.465,203.257,406.465z M113.46,298.551l92.16,91.372
      C369.46,339.511,484.463,187.487,487.613,15.77C316.684,19.708,163.872,133.924,113.46,298.551z"/>
    <path style="fill:#F06151;" d="M470.284,149.677c16.542-44.111,25.206-92.16,25.206-141.785l0,0l0,0
      c-49.625,0-97.674,9.452-141.785,25.206L470.284,149.677z"/>
    <path style="fill:#183651;" d="M470.284,157.554c-2.363,0-3.938-0.788-5.514-2.363L348.192,39.401
      c-1.575-1.575-2.363-4.726-2.363-7.089c0.788-2.363,2.363-4.726,4.726-5.514C397.817,8.681,446.653,0.016,495.49,0.016
      c4.726,0,7.877,3.151,7.877,7.877c0,49.625-8.665,98.462-25.994,144.935c-0.788,2.363-3.151,4.726-5.514,4.726
      C471.072,157.554,471.072,157.554,470.284,157.554z M368.672,37.037l98.462,98.462c13.391-38.597,19.692-78.769,20.48-119.729
      C447.441,16.557,407.269,23.647,368.672,37.037z"/>
    <path style="fill:#FFFFFF;" d="M135.515,438.761C115.823,458.453,7.909,496.262,7.909,496.262S45.718,387.561,65.41,368.656
      c19.692-19.692,51.2-19.692,70.105,0C155.207,387.561,155.207,419.068,135.515,438.761z"/>
    <path style="fill:#183651;" d="M2.395,501.776c-2.363-2.363-3.151-5.514-1.575-7.877c3.938-11.028,39.385-110.277,59.077-130.757
      c11.028-11.028,25.206-16.542,40.96-16.542s29.932,6.302,40.96,16.542c22.843,22.843,22.843,59.077,0,81.132
      c-20.48,20.48-119.729,55.138-130.757,59.077C7.909,504.139,4.758,503.351,2.395,501.776z M100.857,361.567
      c-11.028,0-22.055,4.726-29.932,12.603C58.321,386.773,33.903,447.425,21.3,483.659c35.446-13.391,96.098-37.022,109.489-49.625
      c16.542-16.542,16.542-42.535,0-59.077C122.124,365.505,111.884,361.567,100.857,361.567z"/>
    <path style="fill:#FBBD5E;" d="M48.081,455.302c13.391-33.871,27.569-64.591,33.871-70.892c4.726-4.726,11.815-7.877,18.117-7.877
      c7.089,0,13.391,2.363,18.117,7.877c10.24,10.24,10.24,26.782,0,37.022C112.672,428.521,82.74,441.911,48.081,455.302z"/>
    <g>
      
        <rect x="245.654" y="176.395" transform="matrix(-0.7071 -0.7071 0.7071 -0.7071 302.5043 493.8451)" style="fill:#183651;" width="15.754" height="15.754"/>
      
        <rect x="278.65" y="209.522" transform="matrix(-0.7071 -0.7071 0.7071 -0.7071 335.4081 573.7292)" style="fill:#183651;" width="15.754" height="15.754"/>
      
        <rect x="311.655" y="242.642" transform="matrix(-0.7071 -0.7071 0.7071 -0.7071 368.3309 653.6055)" style="fill:#183651;" width="15.754" height="15.754"/>
    </g>
    <circle style="fill:#2EA0DA;" cx="345.041" cy="159.13" r="48.049"/>
    <circle style="fill:#FFFFFF;" cx="371.823" cy="154.404" r="8.665"/>
    <polygon style="fill:#E0E4E8;" points="249.73,253.653 191.441,258.379 111.884,392.287 245.004,312.73 "/>
    <path style="fill:#183651;" d="M106.37,397.801c-2.363-2.363-3.151-6.302-1.575-9.452l79.557-133.908
      c1.575-2.363,3.938-3.938,6.302-3.938l58.289-4.726c2.363,0,4.726,0.788,6.302,2.363c1.575,1.575,2.363,3.938,2.363,6.302
      l-4.726,58.289c0,2.363-1.575,4.726-3.938,6.302l-133.908,79.557C112.672,400.951,108.733,400.164,106.37,397.801z M196.167,266.256
      l-61.44,103.188l103.188-61.44l3.151-44.898L196.167,266.256z"/>
  </symbol>


  <symbol id="icon-chemistry" viewBox="0 0 64 64">
    <g id="Chemistry"><rect fill="#c6c5ca" height="6" rx="2" width="14" x="47" y="21"/><circle cx="59" cy="5" fill="#ffde55" r="2"/><circle cx="59" cy="15" fill="#ffde55" r="2"/><path d="m54 61a3.995 3.995 0 0 1 -4-4v-30h8v30a4 4 0 0 1 -4 4z" fill="#57a4ff"/><circle cx="47" cy="11" fill="#ffde55" r="3"/><path d="m41 61a5 5 0 0 1 -4.53-2.91v-.01a4.876 4.876 0 0 1 -.47-2.08c0-2.05 1-4 3-4v-7h4v7c2 0 3 1.95 3 4a4.876 4.876 0 0 1 -.47 2.08v.01a5 5 0 0 1 -4.53 2.91z" fill="#00eed1"/><circle cx="33" cy="19" fill="#ffde55" r="2"/><path d="m28 61a5 5 0 0 1 -4.53-2.91v-.01c-.07-.16-.14-.32-.2-.49a4.913 4.913 0 0 1 -.27-1.59c0-2.05 1-4 3-4v-7h4v7c2 0 3 1.95 3 4a4.876 4.876 0 0 1 -.47 2.08v.01a5 5 0 0 1 -4.53 2.91z" fill="#00eed1"/><g fill="#ffde55"><circle cx="31" cy="5" r="2"/><circle cx="26" cy="13" r="3"/><path d="m20.77 58.2a2 2 0 0 1 -1.83 2.8h-13.88a2 2 0 0 1 -1.83-2.8l5.77-13.2v-8h6v8z"/></g><path d="m58 27v30a3.994 3.994 0 0 1 -6 3.46 3.98 3.98 0 0 0 2-3.46v-30z" fill="#2488ff"/><path d="m18.94 61h-4a2 2 0 0 0 1.83-2.8l-5.77-13.2v-8h4v8l5.77 13.2a2 2 0 0 1 -1.83 2.8z" fill="#ffcd00"/><path d="m18 35a2.015 2.015 0 0 1 -2 2h-8a2.006 2.006 0 0 1 -2-2 2.015 2.015 0 0 1 2-2h8a2.006 2.006 0 0 1 2 2z" fill="#c6c5ca"/><path d="m61 23v2a2.006 2.006 0 0 1 -2 2h-4a2.006 2.006 0 0 0 2-2v-2a2.006 2.006 0 0 0 -2-2h4a2.006 2.006 0 0 1 2 2z" fill="#898890"/><path d="m18 35a2.015 2.015 0 0 1 -2 2h-4a2.015 2.015 0 0 0 2-2 2.006 2.006 0 0 0 -2-2h4a2.006 2.006 0 0 1 2 2z" fill="#898890"/><circle cx="17" cy="6" fill="#ffde55" r="3"/><circle cx="14" cy="17" fill="#ffde55" r="2"/><circle cx="6" cy="10" fill="#ffde55" r="3"/><path d="m21.69 57.8-5.69-13.01v-6.79a3 3 0 0 0 0-6h-8a3 3 0 0 0 0 6v6.79l-5.69 13.01a3 3 0 0 0 2.75 4.2h13.88a3 3 0 0 0 2.75-4.2zm-14.69-22.8a1 1 0 0 1 1-1h8a1 1 0 0 1 0 2h-8a1 1 0 0 1 -1-1zm12.78 24.55a1 1 0 0 1 -.84.45h-13.88a1 1 0 0 1 -.84-.45.979.979 0 0 1 -.08-.95l5.78-13.2a1.1 1.1 0 0 0 .08-.4v-7h4v7a1.1 1.1 0 0 0 .08.4l5.78 13.2a.979.979 0 0 1 -.08.95z"/><path d="m44 51.13v-5.13h2v-2h-10v2h2v5.13c-1.81.5-3 2.36-3 4.87a5.845 5.845 0 0 0 .52 2.41.882.882 0 0 0 .09.2 5.976 5.976 0 0 0 10.78-.01.663.663 0 0 0 .09-.19 5.845 5.845 0 0 0 .52-2.41c0-2.51-1.19-4.37-3-4.87zm.64 6.51c-.01.01-.01.02-.02.03a3.977 3.977 0 0 1 -7.24 0c-.01-.01-.01-.02-.02-.03a4.015 4.015 0 0 1 -.36-1.64c0-1.11.42-3 2-3a1 1 0 0 0 1-1v-6h2v6a1 1 0 0 0 1 1c1.58 0 2 1.89 2 3a4.015 4.015 0 0 1 -.36 1.64z"/><path d="m31 51.13v-5.13h2v-2h-10v2h2v5.13c-1.81.5-3 2.36-3 4.87a5.845 5.845 0 0 0 .52 2.41.882.882 0 0 0 .09.2 5.976 5.976 0 0 0 10.78-.01.663.663 0 0 0 .09-.19 5.845 5.845 0 0 0 .52-2.41c0-2.51-1.19-4.37-3-4.87zm.64 6.51c-.01.01-.01.02-.02.03a3.977 3.977 0 0 1 -7.24 0c-.01-.01-.01-.02-.02-.03a4.015 4.015 0 0 1 -.36-1.64c0-1.11.42-3 2-3a1 1 0 0 0 1-1v-6h2v6a1 1 0 0 0 1 1c1.58 0 2 1.89 2 3a4.015 4.015 0 0 1 -.36 1.64z"/><path d="m59 20h-10a3.009 3.009 0 0 0 -3 3v2a3.009 3.009 0 0 0 3 3v29a5 5 0 0 0 10 0v-29a3.009 3.009 0 0 0 3-3v-2a3.009 3.009 0 0 0 -3-3zm-2 37a3 3 0 0 1 -6 0v-29h6zm3-32a1 1 0 0 1 -1 1h-10a1 1 0 0 1 -1-1v-2a1 1 0 0 1 1-1h10a1 1 0 0 1 1 1z"/><path d="m42 42v-4a1 1 0 0 0 -1-1h-13a1 1 0 0 0 -1 1v4h2v-3h11v3z"/><path d="m13 26h17v9h2v-10a1 1 0 0 0 -1-1h-19a1 1 0 0 0 -1 1v5h2z"/><path d="m40 4h13v14h2v-15a1 1 0 0 0 -1-1h-15a1 1 0 0 0 -1 1v32h2z"/><path d="m6 14a4 4 0 1 0 -4-4 4 4 0 0 0 4 4zm0-6a2 2 0 1 1 -2 2 2 2 0 0 1 2-2z"/><path d="m14 20a3 3 0 1 0 -3-3 3 3 0 0 0 3 3zm0-4a1 1 0 1 1 -1 1 1 1 0 0 1 1-1z"/><path d="m17 10a4 4 0 1 0 -4-4 4 4 0 0 0 4 4zm0-6a2 2 0 1 1 -2 2 2 2 0 0 1 2-2z"/><path d="m30 19a3 3 0 1 0 3-3 3 3 0 0 0 -3 3zm4 0a1 1 0 1 1 -1-1 1 1 0 0 1 1 1z"/><path d="m31 8a3 3 0 1 0 -3-3 3 3 0 0 0 3 3zm0-4a1 1 0 1 1 -1 1 1 1 0 0 1 1-1z"/><path d="m59 12a3 3 0 1 0 3 3 3 3 0 0 0 -3-3zm0 4a1 1 0 1 1 1-1 1 1 0 0 1 -1 1z"/><path d="m59 8a3 3 0 1 0 -3-3 3 3 0 0 0 3 3zm0-4a1 1 0 1 1 -1 1 1 1 0 0 1 1-1z"/><path d="m26 17a4 4 0 1 0 -4-4 4 4 0 0 0 4 4zm0-6a2 2 0 1 1 -2 2 2 2 0 0 1 2-2z"/><path d="m43 11a4 4 0 1 0 4-4 4 4 0 0 0 -4 4zm6 0a2 2 0 1 1 -2-2 2 2 0 0 1 2 2z"/></g>
  </symbol>


  <symbol id="icon-eco-planet" viewBox="0 0 512 512.00025">
    <path d="m380.398438 297.972656c0-91.683594-74.128907-166.007812-165.570313-166.007812s-165.566406 74.324218-165.566406 166.007812 74.125 166.007813 165.566406 166.007813 165.570313-74.324219 165.570313-166.007813zm0 0" fill="#97c9e8"/><path d="m214.828125 131.964844c-8.496094 0-16.84375.644531-25 1.882812 79.578125 12.085938 140.566406 80.960938 140.566406 164.125 0 83.160156-60.988281 152.039063-140.566406 164.125 8.15625 1.238282 16.503906 1.882813 25 1.882813 91.441406 0 165.570313-74.324219 165.570313-166.007813s-74.128907-166.007812-165.570313-166.007812zm0 0" fill="#60b6ff"/><g fill="#baeb6c"><path d="m193.308594 196.480469c-25.503906 15.980469-44.632813 41.554687-30.285156 70.324219 14.34375 28.769531 46.226562 17.582031 75.71875 13.585937 29.488281-3.996094 7.171874 87.105469 24.707031 109.484375 17.535156 22.375 66.949219-22.378906 62.167969-51.148438-7.078126-42.59375-9.5625-57.539062 47.824218-87.90625l.15625-.054687c-19.34375-65.5-77.894531-114.097656-148.398437-118.46875l-.007813.25s-6.375 47.949219-31.882812 63.933594zm0 0"/><path d="m318.566406 168.597656c.007813.007813.019532.015625.03125.023438-.011718-.007813-.019531-.015625-.03125-.023438zm0 0"/><path d="m338.808594 187.960938c.003906.003906.007812.007812.007812.007812s-.003906-.003906-.007812-.007812zm0 0"/><path d="m104.839844 373.089844c-7.660156-11.679688 13.546875-39.15625 18.332031-59.933594 4.78125-20.777344-23.914063-19.179688-32.679687-26.371094-8.769532-7.195312-20.722657-38.359375-29.492188-45.550781l-1.402344-1.109375c-6.679687 18.015625-10.335937 37.5-10.335937 57.847656 0 54.871094 26.554687 103.515625 67.480469 133.742188l.050781-3.480469s6.378906-27.171875-11.953125-55.144531zm0 0"/><path d="m325.617188 338.726562c-.035157-.207031-.070313-.410156-.101563-.621093-3.171875 12.800781-7.820313 25.011719-13.757813 36.441406 9.421876-11.113281 15.714844-24.667969 13.859376-35.820313zm0 0"/></g><path d="m225.199219 132.296875-.007813.25s-.535156 4.003906-1.902344 10.074219c58.058594 21.976562 100.566407 75.722656 106.414063 140.101562 7.316406-10.007812 20.699219-19.710937 43.738281-31.902344l.15625-.054687c-19.347656-65.5-77.898437-114.097656-148.398437-118.46875zm0 0" fill="#96d629"/><path d="m169.074219 188.9375c-80.070313-13.585938-129.738281-114.394531-129.738281-114.394531s80.144531-78.785157 160.210937-65.203125c80.066406 13.585937 129.734375 114.394531 129.734375 114.394531s-80.144531 78.785156-160.207031 65.203125zm0 0" fill="#49cb5c"/><path d="m199.546875 9.34375c-15.289063-2.59375-30.574219-1.8125-45.308594 1.136719 76.714844 17.226562 124.042969 113.253906 124.042969 113.253906s-52.464844 51.5625-114.902344 64.0625c1.882813.425781 3.777344.8125 5.695313 1.140625 80.0625 13.582031 160.207031-65.203125 160.207031-65.203125s-49.667969-100.808594-129.734375-114.390625zm0 0" fill="#07b128"/><path d="m383.738281 91.085938c21.480469-50.824219 95.898438-67.9375 95.898438-67.9375s39.597656 65.292968 18.121093 116.117187c-21.476562 50.824219-95.898437 67.933594-95.898437 67.933594s-39.597656-65.289063-18.121094-116.113281zm0 0" fill="#49cb5c"/><path d="m479.640625 23.148438s-16.925781 3.898437-36.960937 13.480468c10.277343 21.777344 26.574218 65.96875 11.078124 102.636719-11.238281 26.585937-36.960937 43.945313-58.941406 54.457031 3.96875 8.40625 7.042969 13.476563 7.042969 13.476563s74.421875-17.109375 95.898437-67.933594c21.480469-50.824219-18.117187-116.117187-18.117187-116.117187zm0 0" fill="#07b128"/><path d="m503.898438 59.671875c-7.398438-23.261719-17.421876-39.917969-17.847657-40.617187-1.644531-2.710938-5.027343-4.121094-8.09375-3.417969-.792969.183593-19.726562 4.601562-41.5625 15.507812-29.480469 14.71875-50.074219 34.367188-59.5625 56.816407-7.898437 18.691406-9.03125 41.546874-3.429687 66.792968-11.933594-13.328125-25.359375-24.988281-39.992188-34.804687-4.46875-8.828125-16.285156-30.5625-34.757812-53.277344-6.082032-7.476563-17.785156 1.90625-11.640625 9.460937 12.449219 15.308594 21.816406 30.363282 27.675781 40.707032l-68.320312-13.316406-64.914063-88.542969c6.304687.089843 12.628906.699219 18.921875 1.933593 19.953125 3.90625 39.664062 14.066407 58.589844 30.199219 7.417968 6.320313 17.046875-5.183593 9.730468-11.417969-20.910156-17.820312-42.925781-29.09375-65.4375-33.503906-34.367187-6.726562-74.449218 2.101563-115.921874 25.539063-30.914063 17.46875-51.585938 36.65625-52.449219 37.464843-2.765625 2.582032-3.207031 7.277344-.890625 10.296876 3.03125 6.21875 14.519531 28.652343 33.640625 52.804687 11.273437 14.242187 23.160156 26.429687 35.457031 36.445313-3.492188 2.925781-6.894531 5.988281-10.183594 9.210937-17.574218 17.191406-31.03125 37.46875-39.867187 59.636719-7.808594 19.589844-12.007813 40.660156-12.242188 62.378906-.386719 35.515625 9.902344 69.769531 29.765625 99.0625 19.402344 28.613281 46.527344 50.582031 78.441406 63.527344 8.929688 3.617187 14.578126-10.273438 5.640626-13.898438-11.5625-4.691406-22.425782-10.699218-32.445313-17.847656 1.28125-7.105469 4.253906-32.679688-12.734375-59.15625-2.378906-3.703125 4.730469-18.246094 8.976562-26.933594 4.378907-8.953125 8.902344-18.210937 11.015626-26.925781 2.242187-9.257813-.28125-17.03125-7.296876-22.484375-5.152343-4.003906-11.890624-6.074219-17.832031-7.902344-3.859375-1.1875-8.234375-2.53125-9.796875-3.835937-3.21875-2.695313-8.476562-12.660157-12.699218-20.664063-4.6875-8.878906-9.152344-17.328125-13.707032-22.53125 10.253906-24.351562 26.722656-45.898437 47.347656-62.382812 18.839844 12.835937 40.34375 21.691406 63.199219 23.484375-26.507812 20.539062-35.082031 46.765625-22.824219 71.960937 14.3125 29.417969 43.769532 24.71875 69.761719 20.578125 4.496094-.71875 9.148438-1.460937 13.605469-2.015625 1.671875-.210937 2.175781.246094 2.511719.542969 5.691406 5.0625 5.523437 29.242187 5.402343 46.898437-.167968 24.421876-.324218 47.488282 8.773438 59.332032 4.640625 6.039062 11.175781 9.125 18.835938 9.125 4.589843 0 9.578124-1.105469 14.808593-3.347656 22.621094-9.6875 46.136719-38.84375 42.550781-61.914063-3.136718-20.167969-5.210937-33.492187-.320312-44.234375 4.523438-9.941406 15.453125-19.144531 36.980469-30.886719 2.578125 11.609375 3.878906 23.6875 3.746093 36.078125-.460937 42.292969-17.367187 81.878906-47.601562 111.457032-33.789062 33.054687-81.28125 49.378906-128.257812 44.203124-9.574219-1.039062-11.226563 13.855469-1.640626 14.910157 51.421876 5.664062 103.410157-12.210938 140.386719-48.390625 33.101563-32.382813 51.609375-75.714844 52.113281-122.019532.667969-61.398437-30.835937-115.792968-78.792968-147.125 9.910156-7.066406 17.292968-13.175781 21.386718-16.722656 17.484376 12.542969 32.992188 27.996094 45.894532 46 30.976562 43.226563 43.261718 95.925782 34.597656 148.394532-17.890625 108.308593-120.554688 181.878906-228.882812 163.984374-52.472657-8.667968-98.425782-37.242187-129.402344-80.46875-30.976563-43.226562-43.261719-95.929687-34.597656-148.394531 1.558593-9.441406-13.234376-11.917969-14.796876-2.445312-9.320312 56.421875 3.894532 113.09375 37.199219 159.578125 33.308594 46.480468 82.730469 77.210937 139.152344 86.53125 11.800781 1.949218 23.613281 2.910156 35.34375 2.910156 44.34375 0 87.480469-13.769531 124.242187-40.109375 46.488282-33.308594 77.222657-82.722656 86.539063-139.144531 6.828125-41.34375 1.542969-82.820313-14.867187-120.328125 7.574218-2.234375 20.464843-6.570313 34.582031-13.621094 29.476562-14.71875 50.074219-34.367187 59.558593-56.816406 9.492188-22.453125 9.226563-50.914063-.765624-82.308594zm-435.332032 206.238281c5.582032 10.582032 10.859375 20.582032 16.34375 25.167969 3.882813 3.246094 9.289063 4.910156 15.011719 6.667969 14.660156 4.507812 16.363281 6.71875 14.957031 12.515625-1.726562 7.128906-5.886718 15.640625-9.910156 23.871093-7.746094 15.847657-15.0625 30.8125-8.128906 41.625 9.835937 15.324219 11.519531 30.410157 11.351562 39.796876-44.675781-40.285157-62.867187-103.914063-46.226562-161.746094 2.207031 3.78125 4.527344 8.175781 6.601562 12.101562zm362.890625-147.398437-21.316406-51.65625c10.371094-9.699219 22.40625-17 32.65625-22.140625 8.730469-4.378906 17.039063-7.65625 23.699219-9.976563zm48.867188-77.957031c2.980469 6.398437 6.433593 14.652343 9.382812 23.980468 3.234375 10.238282 6.203125 22.925782 6.792969 36.160156l-49.953125 20.609376zm-89.675781 53.246093c2.210937-5.230469 5.070312-10.082031 8.375-14.558593l24.265624 58.796874-21.777343 52.066407c-3.058594-6.488281-6.660157-15.015625-9.71875-24.699219-6.132813-19.390625-11.308594-47.558594-1.144531-71.605469zm48.050781 91.425781c-8.402344 4.21875-16.421875 7.410157-22.953125 9.714844l22.597656-54.023437 57.519531-23.734375c-.835937 6.445312-2.425781 12.832031-5.015625 18.957031-10.160156 24.046875-33.964844 39.96875-52.148437 49.085937zm-270.457031-4.269531c-2.652344-.519531-5.265626-1.152343-7.84375-1.875l83.011718-60.851562 68.351563 13.324219c-24.898438 19.617187-85.496094 60.769531-143.519531 49.402343zm-75.867188-46.929687c-17.753906-19.132813-30.765625-39.59375-38.238281-52.691406l86.984375 16.957031zm15.363281-100.070313 36.394531 49.640625-87.546874-17.066406c11.019531-8.703125 29.214843-21.769531 51.152343-32.574219zm58.09375 53.871094-44.121093-60.183594c13.207031-5.429687 27.386718-9.699219 41.921874-11.601562l61.035157 83.25zm-4.667969 14.371094 62.207032 12.125-79.839844 58.523437c-15.054688-6.953125-28.605469-16.949218-40.460938-28.0625zm203.523438 146.46875c-27.039062 14.40625-40.28125 25.722656-46.5625 39.527343-6.746094 14.820313-4.273438 30.730469-.851562 52.75 2.019531 12.984376-13.410157 37.160157-33.628907 45.820313-7.480469 3.203125-12.808593 2.824219-15.84375-1.128906-5.960937-7.753907-5.796875-31.230469-5.667969-50.089844.175782-26.09375.332032-48.628906-10.433593-58.207031-3.871094-3.441406-8.824219-4.898438-14.328125-4.222656-4.714844.585937-9.5 1.347656-14.121094 2.085937-27.570312 4.394531-44.921875 6.152344-53.910156-12.324219-14.5625-29.929687 14.917968-52.097656 28.265625-60.238281 2.71875-1.65625 5.242187-3.609375 7.585937-5.785156 32.265625-3.855469 62.753906-17.699219 89.921875-35.039063 32.574219 19.460938 57.582031 50.261719 69.574219 86.851563zm0 0"/>
  </symbol>

  <symbol id="icon-paw" viewBox="0 -32 512.00058 512">
    <g fill="#000"><path d="m331.363281 447.480469c-10.820312 0-21.542969-2.246094-31.664062-6.699219-39.242188-17.257812-84.207031-17.40625-123.546875-.449219l-1.019532.453125c-15.632812 6.871094-32.695312 8.492188-49.339843 4.6875-16.644531-3.800781-31.304688-12.671875-42.40625-25.644531-11.089844-12.980469-17.570313-28.84375-18.738281-45.871094-1.167969-17.03125 3.082031-33.628906 12.292968-48l55.515625-86.601562c23.035157-35.945313 62.277344-57.402344 104.960938-57.402344 42.6875 0 81.925781 21.457031 104.964843 57.402344l55.515626 86.601562c9.210937 14.375 13.460937 30.972657 12.289062 48.007813-1.171875 17.03125-7.652344 32.894531-18.75 45.871094-11.101562 12.976562-25.765625 21.84375-42.410156 25.644531-5.863282 1.335937-11.777344 2-17.664063 2zm-93.957031-49.761719c25.375 0 50.742188 5.195312 74.375 15.589844 19.882812 8.742187 42.726562 3.523437 56.847656-12.984375 14.113282-16.503907 15.722656-39.886719 4-58.175781l-55.515625-86.601563c-17.492187-27.289063-47.285156-43.582031-79.695312-43.582031-32.410157 0-62.203125 16.292968-79.691407 43.582031l-55.519531 86.605469c-11.71875 18.28125-10.113281 41.660156 3.992188 58.171875 13.964843 16.324219 36.472656 21.609375 56.203125 13.261719l.671875-.296876c23.617187-10.378906 48.980469-15.570312 74.332031-15.570312zm0 0"/><path d="m71.21875 243.070312c-27.246094 0-54.195312-18.917968-65.75-48.886718-14.464844-37.652344.757812-78.644532 33.929688-91.402344 16.492187-6.351562 34.71875-4.882812 51.316406 4.136719 15.792968 8.585937 28.269531 23.121093 35.128906 40.921875 6.855469 17.8125 7.347656 36.960937 1.382812 53.921875-6.269531 17.820312-18.816406 31.128906-35.332031 37.476562-6.742187 2.597657-13.71875 3.832031-20.675781 3.832031zm-10.992188-114.125c-3.457031 0-6.839843.613282-10.046874 1.847657-17.738282 6.820312-25.226563 30.421875-16.699219 52.609375 8.546875 22.167968 29.917969 34.660156 47.632812 27.828125l.015625-.003907c8.167969-3.140624 14.484375-10.035156 17.785156-19.421874 3.597657-10.238282 3.21875-22.019532-1.078124-33.175782-4.296876-11.152344-11.917969-20.15625-21.457032-25.339844-5.304687-2.882812-10.816406-4.34375-16.152344-4.34375zm0 0"/><path d="m199.613281 171.386719c-41.464843 0-75.199219-38.4375-75.199219-85.683594 0-47.257813 33.734376-85.703125 75.199219-85.703125 41.46875 0 75.207031 38.445312 75.207031 85.703125 0 47.246094-33.738281 85.683594-75.207031 85.683594zm0-141.375c-24.917969 0-45.1875 24.984375-45.1875 55.691406 0 30.699219 20.269531 55.671875 45.1875 55.671875s45.195313-24.972656 45.195313-55.671875c0-30.707031-20.277344-55.691406-45.195313-55.691406zm0 0"/><path d="m348.867188 195.566406c-6.480469 0-12.988282-1.007812-19.367188-3.128906h-.003906c-36.136719-12.015625-54.429688-55.210938-40.777344-96.285156 6.464844-19.472656 19.128906-35.710938 35.65625-45.71875 17.300781-10.480469 36.71875-12.964844 54.664062-7 17.945313 5.964844 32.003907 19.574218 39.589844 38.320312 7.25 17.910156 7.675782 38.5 1.199219 57.972656-11.246094 33.828126-40.71875 55.839844-70.960937 55.839844zm-9.902344-31.609375c20.449218 6.792969 43.949218-8.324219 52.382812-33.699219 4.230469-12.714843 4.035156-25.941406-.539062-37.246093-4.234375-10.460938-11.777344-17.953125-21.234375-21.101563-9.464844-3.144531-19.996094-1.652344-29.652344 4.191406-10.429687 6.316407-18.5 16.800782-22.722656 29.511719-8.433594 25.375 1.332031 51.546875 21.765625 58.34375zm0 0"/><path d="m436.171875 311.363281c-12.59375 0-24.898437-3.6875-35.3125-11.402343-28.554687-21.136719-32.300781-64.703126-8.34375-97.113282 23.980469-32.390625 66.75-41.546875 95.347656-20.421875l.011719.011719c28.558594 21.148438 32.300781 64.714844 8.347656 97.121094-15.265625 20.601562-38.101562 31.804687-60.050781 31.804687zm16.207031-110.402343c-12.632812 0-26.347656 7.054687-35.734375 19.734374-14.117187 19.101563-13.191406 43.84375 2.078125 55.144532 15.273438 11.316406 39.214844 4.976562 53.375-14.132813 14.109375-19.089843 13.1875-43.828125-2.070312-55.140625-5.140625-3.796875-11.257813-5.605468-17.648438-5.605468zm0 0"/></g>
  </symbol>


  <symbol id="icon-photographer" viewBox="0 0 64 64">
    <path d="m24 43.354c-2.783 1.127-5 2.412-5 3.646l1 14h40l1-14c0-3.314-16-7-16-7h-10z" fill="#eaca65"/><path d="m24 46.354 11-3.354h10s14.12 3.254 15.829 6.395l.171-2.395c0-3.314-16-7-16-7h-10l-11 3.354c-2.783 1.127-5 2.412-5 3.646l.173 2.419c.55-1.05 2.478-2.114 4.827-3.065z" fill="#cfb259"/><path d="m46 17h-17v12.19c0 1.781.791 3.469 2.159 4.609l4.703 2.577c.747.41 1.584.624 2.436.624h3.405c.851 0 1.689-.214 2.436-.624l4.703-2.577c1.367-1.14 2.158-2.829 2.158-4.609v-8.19z" fill="#fce0b9"/><path d="m51 21v5h1.5c1.381 0 2.5-1.119 2.5-2.5 0-1.036-.63-1.924-1.527-2.304-.299-.126-.628-.196-.973-.196z" fill="#fce0b9"/><path d="m46 12v5l5 4h1.5c.345 0 .674.07.973.196.377-1.267.527-2.806.527-4.196 0-7.732-6.268-14-14-14-3.81 0-7.257 1.53-9.782 4h10.782c2.761 0 5 2.239 5 5z" fill="#1a326e"/><path d="m46 17v-5c0-2.761-2.239-5-5-5h-14c-2.761 0-5 2.239-5 5s2.239 5 5 5h.438z" fill="#1a326e"/><path d="m27 15c-2.419 0-4.436-1.718-4.899-4-.066.323-.101.657-.101 1 0 2.761 2.239 5 5 5h.438 18.562v-2h-18.562z" fill="#13244f"/><path d="m40.738 5.333h-8.463c-.737.491-1.426 1.05-2.057 1.667h10.782c2.761 0 5 2.239 5 5v5l2.083 1.667h1.917v-4.071c0-5.116-4.147-9.263-9.262-9.263z" fill="#13244f"/><path d="m46 17h-17v3h17l5 4v-3z" fill="#f5cba1"/><path d="m12 21h27v16h-27z" fill="#606060"/><path d="m29.379 18.515c-.223-.89-1.023-1.515-1.941-1.515h-.438-4.438c-.918 0-1.718.625-1.94 1.515l-.622 2.485h10z" fill="#606060"/><path d="m44.138 36.376c-.747.41-1.584.624-2.436.624h-3.405c-.851 0-1.689-.214-2.436-.624l-.861-.472v6.096c2.761 2.761 7.239 2.761 10 0v-6.096z" fill="#fce0b9"/><path d="m36 54-3.516-12.307c-.299-1.045-.007-2.169.761-2.938.488-.488.793-1.131.861-1.818l.603-6.025c.156-1.559-1.069-2.912-2.635-2.912h-.074l-14 1h-.734c-1.203 0-2.134 1.054-1.985 2.248l.586 4.69c.083.664.492 1.242 1.09 1.541l3.206 1.603c1.208.604 2.258 1.481 3.068 2.561 1.162 1.55 1.943 3.351 2.28 5.259l2.489 14.098h23v-5l-18-2" fill="#fce0b9"/><path d="m25 36c3.866 0 7-3.134 7-7s-3.134-7-7-7-7 3.134-7 7 3.134 7 7 7zm0-10c1.657 0 3 1.343 3 3s-1.343 3-3 3-3-1.343-3-3 1.343-3 3-3z" fill="#606060"/><circle cx="25" cy="29" fill="#71caf0" r="3"/><circle cx="26" cy="29" fill="#fff" r="1"/><path d="m16 37h-4v-4c1.381 0 1-1.119 1-2.5v-5.5-4h2v-1.265c0-.995-.732-1.839-1.717-1.98l-3.856-.551c-.852-.122-1.687.315-2.072 1.085l-2.144 4.288c-.139.278-.211.585-.211.895v12.457c0 1.326.527 2.598 1.464 3.536l3.071 3.071c.938.937 1.465 2.209 1.465 3.535v14.929h9l-1-11z" fill="#fce0b9"/><path d="m25 20c-4.971 0-9 4.029-9 9 0 .149.015.293.022.44.34-.272.769-.44 1.243-.44h.735c0-3.866 3.134-7 7-7 3.527 0 6.437 2.612 6.921 6.006l.079-.006h.074c.761 0 1.437.323 1.918.83-.092-4.891-4.079-8.83-8.992-8.83z" fill="#454545"/><path d="m45 35.904-.862.472c-.747.41-1.584.624-2.436.624h-3.405c-.851 0-1.689-.214-2.436-.624l-.861-.472v6.096c.158.158.323.304.491.444l9.509-6.158z" fill="#f5cba1"/><path d="m45 25.75c-.965 0-1.75-.785-1.75-1.75s.785-1.75 1.75-1.75 1.75.785 1.75 1.75-.785 1.75-1.75 1.75zm0-2c-.138 0-.25.112-.25.25 0 .275.5.275.5 0 0-.138-.112-.25-.25-.25z"/><path d="m25 33c2.206 0 4-1.794 4-4s-1.794-4-4-4-4 1.794-4 4 1.794 4 4 4zm0-6c1.103 0 2 .897 2 2s-.897 2-2 2-2-.897-2-2 .897-2 2-2z"/><path d="m46 39.208v-2.711l3.321-1.82c.057-.031.11-.067.16-.109 1.601-1.335 2.519-3.295 2.519-5.378v-2.19h.5c1.93 0 3.5-1.57 3.5-3.5 0-1.131-.548-2.128-1.384-2.769.246-1.098.384-2.387.384-3.731 0-8.271-6.729-15-15-15-3.816 0-7.392 1.425-10.171 4h-2.829c-3.309 0-6 2.691-6 6 0 1.538.587 2.939 1.542 4.002-1.37.009-2.558.939-2.891 2.271l-.431 1.727h-3.22v-.266c0-1.483-1.107-2.76-2.575-2.969l-3.856-.551c-1.282-.186-2.529.471-3.107 1.628l-2.145 4.289c-.208.414-.317.878-.317 1.341v12.457c0 1.604.624 3.11 1.758 4.243l3.07 3.072c.756.754 1.172 1.758 1.172 2.827v14.929c0 .552.447 1 1 1h9 40c.524 0 .96-.405.997-.929l1.003-14.071c0-3.531-10.627-6.512-16-7.792zm-14.479 2.76 3.205 11.218-1.617-.18-.221 1.987 17.112 1.902v3.105h-21.161l-2.342-13.271c-.36-2.052-1.213-4.018-2.464-5.686-.899-1.198-2.082-2.186-3.422-2.855l-3.206-1.603c-.3-.15-.503-.438-.545-.77l-.586-4.69c-.036-.289.05-.568.242-.786.148-.168.347-.256.56-.298.512 3.92 3.866 6.959 7.924 6.959 4.317 0 7.836-3.439 7.986-7.72.111.075.217.159.31.262.316.35.465.801.418 1.27l-.603 6.025c-.046.457-.25.888-.573 1.211-1.024 1.024-1.414 2.525-1.017 3.92zm-12.521-12.968c0-3.309 2.691-6 6-6s6 2.691 6 6-2.691 6-6 6-6-2.691-6-6zm13.755-1.928c-.542-2.179-1.973-4.009-3.891-5.072h9.136v14h-2.795l.499-4.989c.102-1.024-.235-2.048-.926-2.811-.535-.591-1.25-.98-2.023-1.128zm3.245 10.928h3 2.702c.789 0 1.571-.159 2.298-.457v4.024c-2.281 2-5.719 2-8 0zm14-8.81c0 1.457-.629 2.83-1.729 3.781l-4.614 2.529c-.598.328-1.273.5-1.955.5h-1.702v-15c0-.552-.447-1-1-1h-8.22l-.432-1.728c-.024-.095-.061-.182-.093-.272h15.393l4.352 3.48zm2.5-4.19h-.5v-3h.5c.827 0 1.5.673 1.5 1.5s-.673 1.5-1.5 1.5zm-12.5-21c7.168 0 13 5.832 13 13 0 1.088-.096 2.129-.271 3.023-.077-.005-.151-.023-.229-.023h-1.149l-4.351-3.481v-4.519c0-3.309-2.691-6-6-6h-7.912c2.051-1.295 4.422-2 6.912-2zm-13 4h14c2.206 0 4 1.794 4 4v4h-17.562-.438c-2.206 0-4-1.794-4-4s1.794-4 4-4zm-5.409 10.758c.112-.446.511-.758.971-.758h4.438.438c.46 0 .858.312.971.758l.311 1.242h-7.44zm-.455 3.242c-2.191 1.215-3.751 3.428-4.069 6.021-.786.053-1.525.399-2.05.993-.569.645-.834 1.504-.728 2.357l.578 4.629h-1.867v-3h-.058c.651-.636 1.058-1.52 1.058-2.5v-8.5h1zm-10.894 19.829-3.07-3.072c-.756-.755-1.172-1.759-1.172-2.828v-12.457c0-.154.036-.31.105-.447l2.145-4.289c.192-.385.604-.604 1.035-.542l3.856.551c.49.069.859.495.859.989v.266h-1-3v2h2v2h-2v2h2v2h-2v2h2v.5c0 .827-.673 1.5-1.5 1.5h-.5v2h.5c.171 0 .335-.027.5-.051v3.051c0 .552.447 1 1 1h3.949c.172.142.356.271.561.373l3.206 1.603c1.063.532 2.003 1.315 2.717 2.267.13.174.239.362.359.543-3.289 1.434-4.791 2.755-4.788 4.286l.922 12.928h-6.926v-13.929c0-1.603-.624-3.11-1.758-4.242zm9.758 5.171c0-.009.114-.899 3.763-2.463.352.813.61 1.667.764 2.539l2.281 12.924h-5.878zm39.069 13h-7.069v-8h-2v2.883l-13.124-1.458-3.431-12.006c-.198-.696-.004-1.445.507-1.957.018-.018.031-.039.048-.057v2.595c0 .265.105.52.293.707 1.573 1.573 3.641 2.36 5.707 2.36s4.134-.787 5.707-2.36c.188-.187.293-.442.293-.707v-.732c7.471 1.836 14 4.478 14.003 5.661z"/>
  </symbol>


  <symbol id="icon-info" viewBox="0 0 512 512">
    <path d="M20.005,512c-5.097,0-10.116-1.948-13.925-5.641c-5.845-5.666-7.672-14.309-4.621-21.855l45.411-112.333  C16.162,332.253,0,285.425,0,236c0-63.375,26.855-122.857,75.62-167.489C123.891,24.331,187.952,0,256,0  s132.109,24.331,180.38,68.511C485.145,113.143,512,172.625,512,236c0,45.448-14.04,89.577-40.602,127.615  c-6.325,9.057-18.792,11.271-27.849,4.947s-11.271-18.792-4.947-27.849C460.452,309.425,472,273.215,472,236  c0-108.075-96.897-196-216-196S40,127.925,40,236c0,43.783,15.577,85.2,45.046,119.773c4.834,5.671,6.115,13.561,3.321,20.47  l-31.366,77.589l91.345-40.266c5.063-2.231,10.826-2.267,15.916-0.095C193.082,425.766,223.946,432,256,432  c36.892,0,73.299-8.587,105.286-24.832c9.85-5,21.887-1.072,26.889,8.775c5.001,9.849,1.073,21.887-8.775,26.889  C341.828,461.914,299.157,472,256,472c-34.48,0-67.835-6.191-99.276-18.413L28.068,510.301C25.474,511.444,22.728,512,20.005,512z   M276,325V217c0-11.046-8.954-20-20-20s-20,8.954-20,20v108c0,11.046,8.954,20,20,20S276,336.046,276,325z M256,128  c-11.046,0-20,8.954-20,20l0,0c0,11.046,8.954,20,20,20s20-8.954,20-20l0,0C276,136.954,267.046,128,256,128z"/>
  </symbol>


  <symbol id="icon-wave-top" viewBox="0 0 1440 320">
    <path fill-opacity="1" d="M0,128L120,160C240,192,480,256,720,288C960,320,1200,320,1320,320L1440,320L1440,320L1320,320C1200,320,960,320,720,320C480,320,240,320,120,320L0,320Z"></path>
  </symbol>

  <symbol id="icon-wave-bottom" viewBox="0 0 1440 320">
    <path fill-opacity="1" d="M0,160L120,176C240,192,480,224,720,213.3C960,203,1200,149,1320,122.7L1440,96L1440,320L1320,320C1200,320,960,320,720,320C480,320,240,320,120,320L0,320Z"></path>
  </symbol>


</svg>