<?xml version="1.0" standalone="no"?>
<!DOCTYPE svg PUBLIC "-//W3C//DTD SVG 1.1//EN" "http://www.w3.org/Graphics/SVG/1.1/DTD/svg11.dtd" >
<svg>
<metadata>
Created by FontForge 20090914 at Tue Jun  1 15:39:29 2021
 By www-data
</metadata>
<defs>
<font id="PateticaDeco" horiz-adv-x="551" >
  <font-face 
    font-family="Patetica Deco"
    font-weight="400"
    font-stretch="normal"
    units-per-em="1000"
    panose-1="2 1 5 3 2 3 1 2 1 4"
    ascent="815"
    descent="-185"
    x-height="781.001"
    cap-height="783"
    bbox="-18 -186 1201 942"
    underline-thickness="20"
    underline-position="-123"
    unicode-range="U+0020-U+2122"
  />
<missing-glyph horiz-adv-x="286" 
 />
    <glyph glyph-name=".notdef" horiz-adv-x="286" 
 />
    <glyph glyph-name="space" unicode=" " horiz-adv-x="315" 
 />
    <glyph glyph-name="exclam" unicode="!" horiz-adv-x="317" 
d="M285 116c0 -17.333 -3.33496 -33.666 -10.002 -48.999s-15.834 -28.833 -27.501 -40.5s-25.167 -20.834 -40.5 -27.501s-31.666 -10 -48.999 -10s-33.666 3.33301 -48.999 10s-28.666 15.834 -39.999 27.501s-20.333 25.167 -27 40.5s-10 31.666 -10 48.999
c0 28 7.83301 52.667 23.5 74s36.167 36.333 61.5 45v547h82v-547c25.333 -8.66699 46 -23.667 62 -45s24 -46 24 -74zM201.998 116c0 11.333 -4.33301 21.333 -13 30s-19 13 -31 13s-22.333 -4.33301 -31 -13s-13 -18.667 -13 -30c0 -12 4.33301 -22.333 13 -31
s19 -13 31 -13s22.333 4.33301 31 13s13 19 13 31z" />
    <glyph glyph-name="quotedbl" unicode="&#x22;" horiz-adv-x="300" 
d="M132 622l60 162l76 -28l-60 -162zM32 662l60 162l76 -28l-60 -162z" />
    <glyph glyph-name="numbersign" unicode="#" horiz-adv-x="473" 
d="M441 561v-65l-91 22l-15 -62l106 -25v-65l-121 29l-94 -395h-64l97 410l-62 15l-101 -425h-64l104 439l-91 24v64l106 -27l15 62l-121 31v64l135 -34l41 171h65l-45 -185l62 -15l48 200h65l-52 -215zM274 471l15 62l-62 15l-15 -62z" />
    <glyph glyph-name="dollar" unicode="$" horiz-adv-x="361" 
d="M329 192c0 -32.667 -9.16504 -62.668 -27.498 -90.001s-42.833 -47.333 -73.5 -60v-43h-83v31h-53v83h53v208c-22 20.667 -40.333 39.667 -55 57s-26.167 34 -34.5 50s-14.333 32.167 -18 48.5s-5.5 34.166 -5.5 53.499c0 40 10.333 77.833 31 113.5s48 63.834 82 84.501
v54h83v-24c12 2 24 3 36 3h10c3.33301 0 6.66602 -0.333008 9.99902 -1v-82h-15c-17.333 0 -31 -1.33301 -41 -4v-316c23.333 -21.333 41.666 -39 54.999 -53s23.5 -26.667 30.5 -38s11.333 -22.666 13 -33.999s2.5 -25 2.5 -41zM145.002 618.999c-20 -26 -30 -55 -30 -87
c0 -34 10 -65.333 30 -94v181v0zM247.002 193.999c0 18.667 -6.33301 35.332 -19 49.999v-103c12.667 14.667 19 32.334 19 53.001z" />
    <glyph glyph-name="percent" unicode="%" horiz-adv-x="970" 
d="M465 577c0 -30 -5.66895 -57.998 -17.002 -83.998s-26.833 -48.667 -46.5 -68s-42.667 -34.666 -69 -45.999s-54.5 -17 -84.5 -17c-29.333 0 -57.166 5.66699 -83.499 17s-49.333 26.666 -69 45.999s-35.167 42.166 -46.5 68.499s-17 54.166 -17 83.499
c0 30 5.83301 58 17.5 84s27.334 48.833 47.001 68.5s42.5 35.167 68.5 46.5s53.667 17 83 17s57.166 -5.66699 83.499 -17s49.333 -26.833 69 -46.5s35.334 -42.5 47.001 -68.5s17.5 -54 17.5 -84zM394.998 577.002c0 20 -3.83105 38.833 -11.498 56.5
s-18.334 33.334 -32.001 47.001s-29.334 24.334 -47.001 32.001s-36.5 11.5 -56.5 11.5s-38.833 -3.83301 -56.5 -11.5s-33 -18.334 -46 -32.001s-23.333 -29.334 -31 -47.001s-11.5 -36.5 -11.5 -56.5s3.83301 -38.833 11.5 -56.5s18 -33.167 31 -46.5
s28.333 -23.833 46 -31.5s36.5 -11.5 56.5 -11.5s39 3.83301 57 11.5s33.667 18.167 47 31.5s23.833 28.833 31.5 46.5s11.5 36.5 11.5 56.5zM290 -64.998l290 859h84l-291 -859h-83zM938 203.002c0 -30 -5.66895 -57.998 -17.002 -83.998s-26.833 -48.667 -46.5 -68
s-42.667 -34.666 -69 -45.999s-54.5 -17 -84.5 -17c-29.333 0 -57.166 5.66699 -83.499 17s-49.333 26.666 -69 45.999s-35.167 42.166 -46.5 68.499s-17 54.166 -17 83.499c0 30 5.83301 58 17.5 84s27.334 48.833 47.001 68.5s42.5 35.167 68.5 46.5s53.667 17 83 17
s57.166 -5.66699 83.499 -17s49.333 -26.833 69 -46.5s35.334 -42.5 47.001 -68.5s17.5 -54 17.5 -84zM867.998 203.004c0 20 -3.83105 38.833 -11.498 56.5s-18.334 33.334 -32.001 47.001s-29.334 24.334 -47.001 32.001s-36.5 11.5 -56.5 11.5
s-38.833 -3.83301 -56.5 -11.5s-33 -18.334 -46 -32.001s-23.333 -29.334 -31 -47.001s-11.5 -36.5 -11.5 -56.5s3.83301 -38.833 11.5 -56.5s18 -33.167 31 -46.5s28.333 -23.833 46 -31.5s36.5 -11.5 56.5 -11.5s39 3.83301 57 11.5s33.667 18.167 47 31.5
s23.833 28.833 31.5 46.5s11.5 36.5 11.5 56.5z" />
    <glyph glyph-name="ampersand" unicode="&#x26;" horiz-adv-x="1060" 
d="M646 393c12.667 -30 19.002 -64.335 19.002 -103.002c0 -40.667 -7.83301 -78.834 -23.5 -114.501s-36.834 -66.834 -63.501 -93.501s-57.834 -47.667 -93.501 -63s-73.5 -23 -113.5 -23s-78 7.66699 -114 23s-67.333 36.333 -94 63s-47.834 57.834 -63.501 93.501
s-23.5 73.834 -23.5 114.501c0 68 20.333 127.333 61 178c-32 12 -57.5 31.833 -76.5 59.5s-28.5 58.5 -28.5 92.5c0 22 4.33301 42.833 13 62.5s20.5 36.834 35.5 51.501s32.333 26.334 52 35.001s40.5 13 62.5 13c58.667 0 103.667 -24.667 135 -74l-69 -45
c-15.333 24 -37.333 36 -66 36c-22 0 -40.833 -7.66699 -56.5 -23s-23.5 -34 -23.5 -56s7.83301 -40.833 23.5 -56.5s34.5 -23.5 56.5 -23.5c12 0 24 3 36 9l39 -73c-34 -18.667 -61 -44.667 -81 -78s-30 -69.333 -30 -108c0 -29.333 5.5 -56.833 16.5 -82.5
s26.167 -48.167 45.5 -67.5s41.833 -34.5 67.5 -45.5s53.167 -16.5 82.5 -16.5c28.667 0 55.834 5.5 81.501 16.5s48 26.167 67 45.5s34.167 41.833 45.5 67.5s17 53.167 17 82.5c0 20 -3 39.667 -9 59l-143 -83l-42 71l598 350l42 -71l-382 -223v0z" />
    <glyph glyph-name="quotesingle" unicode="'" horiz-adv-x="200" 
d="M32 662l60 162l76 -28l-60 -162z" />
    <glyph glyph-name="parenleft" unicode="(" horiz-adv-x="325" 
d="M235 -176c-66.667 64.667 -117.167 138.33 -151.5 220.997s-51.5 170.334 -51.5 263.001s17.167 180.334 51.5 263.001s84.833 156.334 151.5 221.001l58 -58c-118.667 -118.667 -178 -260.667 -178 -426c0 -80.667 15.5 -157.5 46.5 -230.5
s74.833 -137.833 131.5 -194.5l-58 -59v0z" />
    <glyph glyph-name="parenright" unicode=")" horiz-adv-x="325" 
d="M32 -117c56.667 56.667 100.5 121.504 131.5 194.504s46.5 149.833 46.5 230.5c0 165.333 -59.333 307.333 -178 426l58 58c66.667 -64.667 117.167 -138.334 151.5 -221.001s51.5 -170.334 51.5 -263.001s-17.167 -180.334 -51.5 -263.001
s-84.833 -156.334 -151.5 -221.001l-58 59v0z" />
    <glyph glyph-name="asterisk" unicode="*" horiz-adv-x="433" 
d="M356 500l-67 -49l-73 101l-73 -100l-67 48l73 100l-117 39l26 78l117 -38v124h83v-125l118 38l25 -78l-118 -39z" />
    <glyph glyph-name="plus" unicode="+" horiz-adv-x="377" 
d="M230 149h-83v115h-115v83h115v115h83v-115h115v-83h-115v-115z" />
    <glyph glyph-name="comma" unicode="," horiz-adv-x="172" 
d="M32 -91l59 90h-46v84h95v-106l-45 -68h-63z" />
    <glyph glyph-name="hyphen" unicode="-" horiz-adv-x="237" 
d="M32 347h173v-83h-173v83z" />
    <glyph glyph-name="period" unicode="." horiz-adv-x="157" 
d="M32 84h93v-83h-93v83z" />
    <glyph glyph-name="slash" unicode="/" horiz-adv-x="438" 
d="M32 -65l290 859h84l-291 -859h-83z" />
    <glyph glyph-name="zero" unicode="0" horiz-adv-x="653" 
d="M621 290c0 -40.667 -7.83203 -78.834 -23.499 -114.501s-36.834 -66.834 -63.501 -93.501s-57.834 -47.667 -93.501 -63s-73.5 -23 -113.5 -23s-78 7.66699 -114 23s-67.333 36.333 -94 63s-47.834 57.834 -63.501 93.501s-23.5 73.834 -23.5 114.501
s7.83301 78.834 23.5 114.501s37 66.834 64 93.501s58.333 47.667 94 63s73.5 23 113.5 23s77.833 -7.83301 113.5 -23.5s66.834 -36.834 93.501 -63.501s47.834 -57.834 63.501 -93.501s23.5 -73.5 23.5 -113.5zM539.001 290c0 28.667 -5.66699 55.6699 -17 81.0029
s-26.666 47.666 -45.999 66.999s-41.833 34.666 -67.5 45.999s-52.834 17 -81.501 17c-29.333 0 -56.833 -5.66699 -82.5 -17s-48.167 -26.5 -67.5 -45.5s-34.5 -41.333 -45.5 -67s-16.5 -52.834 -16.5 -81.501c0 -29.333 5.5 -56.833 16.5 -82.5s26.167 -48.167 45.5 -67.5
s41.833 -34.5 67.5 -45.5s53.167 -16.5 82.5 -16.5c28.667 0 56 5.66699 82 17s48.5 26.5 67.5 45.5s34.167 41.333 45.5 67s17 53.167 17 82.5z" />
    <glyph glyph-name="one" unicode="1" horiz-adv-x="293" 
d="M178 502h-146v83h229v-585h-83v502z" />
    <glyph glyph-name="two" unicode="2" horiz-adv-x="529" 
d="M317 292c21.333 25.333 32 51.333 32 78c0 18 -4 35 -12 51s-18.833 30 -32.5 42s-29 21.5 -46 28.5s-34.5 10.5 -52.5 10.5c-45.333 0 -81.333 -18 -108 -54l-66 50c44 58 102 87 174 87c28.667 0 56.667 -5.66699 84 -17s51.5 -26.833 72.5 -46.5
s37.833 -42.5 50.5 -68.5s19 -53.667 19 -83c0 -49.333 -17.333 -93.333 -52 -132l-134 -154h251v-84h-431z" />
    <glyph glyph-name="three" unicode="3" horiz-adv-x="610" 
d="M578 98c0 -38.667 -7.49902 -75.165 -22.499 -109.498s-35.333 -64.5 -61 -90.5s-55.667 -46.5 -90 -61.5s-70.833 -22.5 -109.5 -22.5c-28 0 -55.333 4.16699 -82 12.5s-51.667 20.166 -75 35.499s-44.166 33.833 -62.499 55.5s-32.833 45.834 -43.5 72.501l76 32
c15.333 -38 40 -68.333 74 -91s71.667 -34 113 -34c27.333 0 53.166 5.33301 77.499 16s45.666 25.167 63.999 43.5s32.833 39.666 43.5 63.999s16 50.166 16 77.499s-5.33301 53.166 -16 77.499s-25.334 45.833 -44.001 64.5s-40.167 33.334 -64.5 44.001
s-50.166 16 -77.499 16h-75l130 202h-196v82h347l-135 -210c30.667 -8 59 -20.833 85 -38.5s48.5 -38.667 67.5 -63s33.833 -51.5 44.5 -81.5s16 -61 16 -93z" />
    <glyph glyph-name="four" unicode="4" horiz-adv-x="710" 
d="M522 -186h-82v186h-408l415 586h75v-503h156v-83h-156v-186zM192 83h248v350z" />
    <glyph glyph-name="five" unicode="5" horiz-adv-x="611" 
d="M579 98c0 -38.667 -7.5 -75.166 -22.5 -109.499s-35.5 -64.5 -61.5 -90.5s-56.167 -46.5 -90.5 -61.5s-70.833 -22.5 -109.5 -22.5c-28 0 -55.5 4.16699 -82.5 12.5s-52 20.333 -75 36s-43.667 34.334 -62 56.001s-32.833 45.5 -43.5 71.5l76 32
c15.333 -38 40 -68.333 74 -91s71.667 -34 113 -34c27.333 0 53.166 5.33301 77.499 16s45.666 25.167 63.999 43.5s32.833 39.666 43.5 63.999s16 50.166 16 77.499s-5.33301 53.333 -16 78s-25.167 46.167 -43.5 64.5s-39.666 32.833 -63.999 43.5s-50.166 16 -77.499 16
h-164l184 284h239v-82h-194l-77 -120h12c38.667 0 75.167 -7.5 109.5 -22.5s64.5 -35.5 90.5 -61.5s46.5 -56.167 61.5 -90.5s22.5 -70.833 22.5 -109.5z" />
    <glyph glyph-name="six" unicode="6" horiz-adv-x="653" 
d="M621 294c0 -40 -7.83203 -77.8301 -23.499 -113.497s-36.834 -67 -63.501 -94s-57.834 -48.333 -93.501 -64s-73.5 -23.5 -113.5 -23.5s-78 7.66699 -114 23s-67.333 36.166 -94 62.499s-47.834 57.5 -63.501 93.5s-23.5 74.667 -23.5 116c0 56.667 16 110 48 160
l212 328h97l-129 -202c11.333 2.66699 22.5 4.66699 33.5 6s22.167 2 33.5 2c40 0 77.833 -7.83301 113.5 -23.5s66.834 -36.834 93.501 -63.501s47.834 -57.834 63.501 -93.501s23.5 -73.5 23.5 -113.5zM539.001 294.003c0 28.667 -5.5 55.834 -16.5 81.501
s-26.167 48 -45.5 67s-41.833 34.167 -67.5 45.5s-53.167 17 -82.5 17s-56.833 -5.66699 -82.5 -17s-48.167 -26.5 -67.5 -45.5s-34.5 -41.333 -45.5 -67s-16.5 -52.834 -16.5 -81.501s5.5 -55.834 16.5 -81.501s26 -48.167 45 -67.5s41.167 -34.666 66.5 -45.999
s52.333 -17 81 -17c29.333 0 57 5.5 83 16.5s48.833 26 68.5 45s35.167 41.333 46.5 67s17 53.5 17 83.5z" />
    <glyph glyph-name="seven" unicode="7" horiz-adv-x="657" 
d="M32 -186l441 688h-360v82h512l-495 -770h-98z" />
    <glyph glyph-name="eight" unicode="8" horiz-adv-x="697" 
d="M665 620c0 -34 -9.49902 -64.835 -28.499 -92.502s-44.5 -47.5 -76.5 -59.5c40.667 -52.667 61 -112 61 -178c0 -40 -7.83301 -77.833 -23.5 -113.5s-36.834 -66.834 -63.501 -93.501s-58 -47.834 -94 -63.501s-74 -23.5 -114 -23.5
c-40.667 0 -78.834 7.66699 -114.501 23s-66.834 36.333 -93.501 63s-47.667 57.834 -63 93.501s-23 73.834 -23 114.501s7.83301 78.834 23.5 114.501s36.834 66.834 63.501 93.501s57.834 47.667 93.501 63s73.5 23 113.5 23c10 0 16 -0.333008 18 -1
c-2.66699 8.66699 -4 21 -4 37c0 22.667 4.33301 43.834 13 63.501s20.5 36.834 35.5 51.501s32.167 26.167 51.5 34.5s40 12.5 62 12.5s42.833 -4.33301 62.5 -13s37 -20.334 52 -35.001s26.833 -31.834 35.5 -51.501s13 -40.5 13 -62.5zM582.001 619.998
c0 22 -7.83301 40.667 -23.5 56s-34.5 23 -56.5 23s-40.667 -7.66699 -56 -23s-23 -34 -23 -56s7.66699 -40.833 23 -56.5s34 -23.5 56 -23.5s40.833 7.83301 56.5 23.5s23.5 34.5 23.5 56.5zM538.001 289.998c0 28.667 -5.5 55.834 -16.5 81.501s-26.167 48 -45.5 67
s-41.833 34.167 -67.5 45.5s-53.167 17 -82.5 17c-28.667 0 -55.834 -5.5 -81.501 -16.5s-48.167 -26.167 -67.5 -45.5s-34.666 -41.833 -45.999 -67.5s-17 -52.834 -17 -81.501c0 -29.333 5.66699 -57 17 -83s26.666 -48.5 45.999 -67.5s41.833 -34 67.5 -45
s52.834 -16.5 81.501 -16.5c29.333 0 56.833 5.5 82.5 16.5s48.167 26.167 67.5 45.5s34.5 41.833 45.5 67.5s16.5 53.167 16.5 82.5z" />
    <glyph glyph-name="nine" unicode="9" horiz-adv-x="653" 
d="M621 303c0 -56.667 -16.0029 -110.003 -48.0029 -160.003l-212 -328h-97l129 202c-11.333 -2.66699 -22.5 -4.66699 -33.5 -6s-22.167 -2 -33.5 -2c-40 0 -77.833 7.83301 -113.5 23.5s-66.834 36.834 -93.501 63.501s-47.834 57.834 -63.501 93.501
s-23.5 73.5 -23.5 113.5s7.83301 78 23.5 114s36.834 67.333 63.501 94s57.834 47.834 93.501 63.501s73.5 23.5 113.5 23.5s77.833 -7.83301 113.5 -23.5s66.834 -37 93.501 -64s47.834 -58.333 63.501 -94s23.834 -73.5 24.501 -113.5zM537.997 302.997
c0 28 -5.66699 54.832 -17 80.499s-26.5 48.334 -45.5 68.001s-41.167 35.167 -66.5 46.5s-52 17 -80 17c-29.333 0 -57 -5.5 -83 -16.5s-48.833 -26.167 -68.5 -45.5s-35.167 -41.833 -46.5 -67.5s-17 -53.167 -17 -82.5c0 -28.667 5.5 -55.834 16.5 -81.501
s26.167 -48 45.5 -67s41.833 -34.167 67.5 -45.5s53.167 -17 82.5 -17s56.833 5.66699 82.5 17s48.167 26.5 67.5 45.5s34.5 41.333 45.5 67s16.5 52.834 16.5 81.501z" />
    <glyph glyph-name="colon" unicode=":" horiz-adv-x="157" 
d="M32 384h93v-83h-93v83zM32 84h93v-83h-93v83z" />
    <glyph glyph-name="semicolon" unicode=";" horiz-adv-x="172" 
d="M47 384h93v-83h-93v83zM32 -91l59 90h-46v84h95v-106l-45 -68h-63z" />
    <glyph glyph-name="less" unicode="&#x3c;" horiz-adv-x="611" 
d="M140 441l439 -190v-90l-547 237v86l547 236v-90z" />
    <glyph glyph-name="equal" unicode="=" horiz-adv-x="377" 
d="M32 427h313v-83h-313v83zM32 267h313v-83h-313v83z" />
    <glyph glyph-name="greater" unicode="&#x3e;" horiz-adv-x="611" 
d="M579 484v-86l-547 -237v90l439 190l-439 189v90z" />
    <glyph glyph-name="question" unicode="?" horiz-adv-x="447" 
d="M415 591c0 -38.667 -9.99707 -73.3379 -29.9971 -104.005l-160 -251c41.333 -25.333 62 -61.666 62 -108.999c0 -17.333 -3.5 -33.666 -10.5 -48.999s-16.333 -28.833 -28 -40.5s-25.334 -21 -41.001 -28s-31.834 -10.5 -48.501 -10.5c-18 0 -34.667 3.33301 -50 10
s-28.666 15.834 -39.999 27.501s-20.333 25.167 -27 40.5s-10 32 -10 50c0 30.667 9.83301 57.834 29.5 81.501s44.5 38.5 74.5 44.5l179 279c11.333 17.333 17 37 17 59c0 14.667 -2.83301 28.667 -8.5 42s-13.334 24.833 -23.001 34.5s-21.167 17.334 -34.5 23.001
s-27.333 8.5 -42 8.5c-15.333 0 -29.5 -2.83301 -42.5 -8.5s-24.5 -13.334 -34.5 -23.001s-17.833 -21.167 -23.5 -34.5s-8.5 -27.333 -8.5 -42c0 -40 16.667 -70.667 50 -92l-45 -69c-58.667 38 -88 92 -88 162c0 26 5.16699 50.5 15.5 73.5s24.333 43.167 42 60.5
s38 31 61 41s47.5 15 73.5 15s50.667 -5 74 -15s43.666 -23.667 60.999 -41s31 -37.666 41 -60.999s15 -48 15 -74zM204.003 126.996c0 12.667 -4.33301 23.167 -13 31.5s-19.334 12.5 -32.001 12.5c-12 0 -22.333 -4.33301 -31 -13s-13 -19 -13 -31
c0 -12.667 4.33301 -23.167 13 -31.5s19 -12.5 31 -12.5c12.667 0 23.334 4.33301 32.001 13s13 19 13 31z" />
    <glyph glyph-name="at" unicode="@" horiz-adv-x="851" 
d="M819 389c0 -62 -14.3359 -121.336 -43.0029 -178.003l-11 -22h-433c-20.667 0 -40.167 4 -58.5 12s-34.333 18.833 -48 32.5s-24.5 29.667 -32.5 48s-12 38.166 -12 59.499c0 20.667 4.16699 40.334 12.5 59.001s19.333 34.834 33 48.501s29.667 24.5 48 32.5
s37.5 12 57.5 12h198c-31.333 36 -71.333 54 -120 54v83c32.667 0 63.667 -6.33301 93 -19s55 -30 77 -52s39.5 -47.667 52.5 -77s19.5 -60.333 19.5 -93v-118h61c15.333 36.667 23 76 23 118s-8.16699 81.833 -24.5 119.5s-38.666 70.667 -66.999 99
s-61.333 50.666 -99 66.999s-77.834 24.5 -120.501 24.5c-42 0 -81.833 -8.16699 -119.5 -24.5s-70.667 -38.666 -99 -66.999s-50.666 -61.333 -66.999 -99s-24.5 -77.5 -24.5 -119.5c0 -42.667 8.16699 -82.834 24.5 -120.501s38.5 -70.667 66.5 -99
s60.833 -50.666 98.5 -66.999s77.834 -24.5 120.501 -24.5c54 0 103.667 12.667 149 38l39 -73c-57.333 -31.333 -120 -47 -188 -47c-54 0 -104.833 10.333 -152.5 31s-89.334 48.834 -125.001 84.501s-63.834 77.334 -84.501 125.001s-31 98.5 -31 152.5
s10.333 104.833 31 152.5s48.834 89.334 84.501 125.001s77.334 63.834 125.001 84.501s98.5 31 152.5 31s104.833 -10.333 152.5 -31s89.334 -48.834 125.001 -84.501s64 -77.334 85 -125.001s31.5 -98.5 31.5 -152.5zM331.997 409.997
c-18.667 0 -34.834 -6.66797 -48.501 -20.001s-20.5 -29.666 -20.5 -48.999s6.83301 -35.833 20.5 -49.5s29.834 -20.5 48.501 -20.5h236v139h-236z" />
    <glyph glyph-name="A" unicode="A" horiz-adv-x="475" 
d="M361 585c0 16.667 -3.33203 32.332 -9.99902 46.999s-15.667 27.667 -27 39s-24.333 20.333 -39 27s-30.334 10 -47.001 10s-32.5 -3.33301 -47.5 -10s-28.167 -15.5 -39.5 -26.5s-20.333 -24 -27 -39s-10 -30.833 -10 -47.5v-585h-82v585c0 28.667 5.5 55.5 16.5 80.5
s26 46.833 45 65.5s40.833 33.334 65.5 44.001s51 16 79 16s54.5 -5.5 79.5 -16.5s46.667 -25.833 65 -44.5s33 -40.5 44 -65.5s16.5 -51.5 16.5 -79.5v-585h-82v585zM332.001 185.998c0 -26.667 -9.16699 -49.334 -27.5 -68.001s-40.833 -28 -67.5 -28
c-13.333 0 -25.666 2.5 -36.999 7.5s-21.166 11.833 -29.499 20.5s-15 18.834 -20 30.501s-7.5 24.167 -7.5 37.5c0 12.667 2.5 24.834 7.5 36.501s11.667 21.834 20 30.501s18.166 15.5 29.499 20.5s23.666 7.5 36.999 7.5s25.833 -2.5 37.5 -7.5s21.667 -11.833 30 -20.5
s15 -18.834 20 -30.501s7.5 -23.834 7.5 -36.501z" />
    <glyph glyph-name="B" unicode="B" horiz-adv-x="457" 
d="M425 262c0 -36 -6.83301 -69.834 -20.5 -101.501s-32.5 -59.334 -56.5 -83.001s-51.833 -42.5 -83.5 -56.5s-65.5 -21 -101.5 -21h-131v783h41c30.667 0 60 -6.16699 88 -18.5s52.5 -29.166 73.5 -50.499s37.667 -46 50 -74s18.5 -57.667 18.5 -89c0 -22 -3 -43 -9 -63
c40.667 -23.333 72.667 -55.166 96 -95.499s35 -83.833 35 -130.5zM342 261.999c0 18 -3.33203 36.1689 -9.99902 54.502s-16.667 35.666 -30 51.999s-29.833 31.166 -49.5 44.499s-42.167 24 -67.5 32c9.33301 16 17.666 31.667 24.999 47s11 35 11 59
c0 33.333 -10.167 63 -30.5 89s-45.833 43.667 -76.5 53v-610h49c24.667 0 47.834 4.66699 69.501 14s40.667 22.166 57 38.499s29.166 35.333 38.499 57s14 44.834 14 69.501z" />
    <glyph glyph-name="C" unicode="C" horiz-adv-x="454" 
d="M422 0c-54 0 -104.667 10.3311 -152 30.998s-88.666 48.667 -123.999 84s-63.166 76.833 -83.499 124.5s-30.5 98.167 -30.5 151.5s10.167 103.833 30.5 151.5s48.166 89.334 83.499 125.001s76.666 63.834 123.999 84.501s98 31 152 31v-84
c-42 0 -81.667 -8.16699 -119 -24.5s-70 -38.5 -98 -66.5s-50.167 -60.667 -66.5 -98s-24.5 -77 -24.5 -119s8.16699 -81.667 24.5 -119s38.5 -70 66.5 -98s60.667 -50.167 98 -66.5s77 -24.5 119 -24.5v-83v0z" />
    <glyph glyph-name="D" unicode="D" horiz-adv-x="495" 
d="M463 391c0 -53.333 -10.333 -103.664 -31 -150.997s-48.667 -88.833 -84 -124.5s-76.666 -63.834 -123.999 -84.501s-97.666 -31 -150.999 -31h-41v783h41c53.333 0 103.666 -10.5 150.999 -31.5s88.666 -49.333 123.999 -85s63.333 -77.334 84 -125.001
s31 -97.834 31 -150.501zM381 391.002c0 38 -6.83496 74.333 -20.502 109s-32.5 65.667 -56.5 93s-52.333 50 -85 68s-67.667 29.667 -105 35v-610c38 5.33301 73.333 17 106 35s60.834 40.667 84.501 68s42.334 58.333 56.001 93s20.5 71 20.5 109z" />
    <glyph glyph-name="E" unicode="E" 
d="M131 366h-99v83h99v334h384v-83h-302v-251h269v-83h-269v-283h302v-83h-384v366z" />
    <glyph glyph-name="F" unicode="F" 
d="M213 251h269v-83h-269v-168h-82v168h-99v83h99v532h388v-83h-306v-449z" />
    <glyph glyph-name="G" unicode="G" horiz-adv-x="615" 
d="M583 20c-70 -21.333 -123.669 -32 -161.002 -32c-53.333 0 -103.666 10.333 -150.999 31s-88.666 48.667 -123.999 84s-63.333 76.666 -84 123.999s-31 98 -31 152c0 38 5.33301 74.833 16 110.5s26 68.834 46 99.501s43.833 58.167 71.5 82.5s58.5 44.5 92.5 60.5
l-14.5 33.5c-5 11.667 -10.833 24.167 -17.5 37.5l75 35l69 -152c-170.667 -56 -256 -158.333 -256 -307c0 -42 8.16699 -81.667 24.5 -119s38.5 -70 66.5 -98s60.667 -50.167 98 -66.5s77 -24.5 119 -24.5c8.66699 0 17.5 0.5 26.5 1.5s18.5 2.16699 28.5 3.5l-98 302
l78 26l126 -384v0z" />
    <glyph glyph-name="H" unicode="H" horiz-adv-x="657" 
d="M519 165h-313l-22 -165h-84l23 165h-91v83h102l71 535h84l-72 -535h291l-71 535h83l105 -783h-83z" />
    <glyph glyph-name="I" unicode="I" horiz-adv-x="181" 
d="M134 779v-779h-82v779h82z" />
    <glyph glyph-name="J" unicode="J" horiz-adv-x="316" 
d="M284 664c0 -28.667 -7.99512 -53.8291 -23.9951 -75.4961s-37 -36.834 -63 -45.501v-477c0 -25.333 -4.83301 -49.166 -14.5 -71.499s-22.834 -41.833 -39.501 -58.5s-36.167 -29.834 -58.5 -39.501s-46.166 -14.5 -71.499 -14.5v82c14 0 27.167 2.66699 39.5 8
s23.166 12.666 32.499 21.999s16.666 20.166 21.999 32.499s8 25.5 8 39.5v478c-24.667 9.33301 -44.834 24.666 -60.501 45.999s-23.5 46 -23.5 74c0 17.333 3.33301 33.666 10 48.999s15.834 28.666 27.501 39.999s25.167 20.333 40.5 27s31.666 10 48.999 10
s33.666 -3.33301 48.999 -10s28.666 -15.667 39.999 -27s20.333 -24.666 27 -39.999s10 -31.666 10 -48.999zM202.005 664.005c0 11.333 -4.33301 21.5 -13 30.5s-19 13.5 -31 13.5s-22.333 -4.5 -31 -13.5s-13 -19.167 -13 -30.5c0 -12 4.33301 -22.333 13 -31
s19 -13 31 -13s22.333 4.33301 31 13s13 19 13 31z" />
    <glyph glyph-name="K" unicode="K" horiz-adv-x="678" 
d="M646 -15c-78.667 0 -167.334 41 -266.001 123c-42 36 -91 57.667 -147 65v-173h-82v171c-28.667 -6.66699 -53.334 -17 -74.001 -31l-45 69c36 24 75.667 39 119 45v527h82v-521c33.333 10.667 65.5 33 96.5 67s58.5 75.167 82.5 123.5s43.333 101.333 58 159
s22.334 115.5 23.001 173.5h83c-0.666992 -56 -7 -111.667 -19 -167s-28.5 -107.333 -49.5 -156s-45.667 -93.167 -74 -133.5s-59.166 -73.5 -92.499 -99.5c35.333 -15.333 66 -34 92 -56c83.333 -69.333 154.333 -104 213 -104v-82v0z" />
    <glyph glyph-name="L" unicode="L" horiz-adv-x="386" 
d="M32 783h83v-700h239v-83h-322v783z" />
    <glyph glyph-name="M" unicode="M" horiz-adv-x="715" 
d="M600 611c0 14 -2.49707 27.167 -7.49707 39.5s-12 23 -21 32s-19.5 16.167 -31.5 21.5s-25 8 -39 8s-27.167 -2.66699 -39.5 -8s-23 -12.5 -32 -21.5s-16.167 -19.667 -21.5 -32s-8 -25.5 -8 -39.5v-611h-84v611c0 14 -2.66699 27.167 -8 39.5s-12.5 23 -21.5 32
s-19.667 16.167 -32 21.5s-25.5 8 -39.5 8s-27 -2.66699 -39 -8s-22.5 -12.5 -31.5 -21.5s-16.167 -19.667 -21.5 -32s-8 -25.5 -8 -39.5v-611h-83v611c0 25.333 4.83301 49.166 14.5 71.499s22.667 41.833 39 58.5s35.666 29.834 57.999 39.501s46.166 14.5 71.499 14.5
c58 0 105.667 -23 143 -69c36 46 83.667 69 143 69c24.667 0 48.167 -5 70.5 -15s41.666 -23.333 57.999 -40s29.333 -36.167 39 -58.5s14.5 -45.833 14.5 -70.5v-611h-83v611z" />
    <glyph glyph-name="N" unicode="N" horiz-adv-x="477" 
d="M362 587c0 16.667 -3.16699 32.667 -9.5 48s-15 28.666 -26 39.999s-24 20.333 -39 27s-30.833 10 -47.5 10c-17.333 0 -33.5 -3.33301 -48.5 -10s-28.333 -15.667 -40 -27s-20.834 -24.666 -27.501 -39.999s-10 -31.333 -10 -48v-587h-82v783h82v-31
c36.667 28.667 78.667 43 126 43c28 0 54.5 -5.5 79.5 -16.5s46.833 -26 65.5 -45s33.334 -41.167 44.001 -66.5s16 -52 16 -80v-587h-83v587z" />
    <glyph glyph-name="O" unicode="O" horiz-adv-x="844" 
d="M812 391c0 -53.333 -10.334 -103.494 -31.001 -150.494s-48.667 -88.167 -84 -123.5s-76.666 -63.333 -123.999 -84s-97.666 -31 -150.999 -31s-103.5 10.167 -150.5 30.5s-88.333 48.166 -124 83.499s-63.834 76.666 -84.501 123.999s-31 97.666 -31 150.999
s10.5 103.666 31.5 150.999s49.167 88.666 84.5 123.999s76.666 63.333 123.999 84s97.333 31 150 31s102.667 -10.333 150 -31s88.833 -48.834 124.5 -84.501s63.834 -77.167 84.501 -124.5s31 -97.333 31 -150zM728.999 391.006c0 42 -8.16699 81.667 -24.5 119
s-38.5 70 -66.5 98s-60.5 50.167 -97.5 66.5s-76.5 24.5 -118.5 24.5s-81.667 -8.16699 -119 -24.5s-70 -38.5 -98 -66.5s-50 -60.667 -66 -98s-24 -77 -24 -119s8.16699 -81.667 24.5 -119s38.333 -69.833 66 -97.5s60.167 -49.667 97.5 -66s77 -24.5 119 -24.5
s81.667 8.16699 119 24.5s69.833 38.333 97.5 66s49.667 60.167 66 97.5s24.5 77 24.5 119z" />
    <glyph glyph-name="P" unicode="P" horiz-adv-x="542" 
d="M510 478c0 -38 -7.16602 -74.3311 -21.499 -108.998s-34 -65.5 -59 -92.5s-54.333 -49.333 -88 -67s-69.834 -28.834 -108.501 -33.501v-176h-83v167c-24 -5.33301 -48.333 -15.333 -73 -30l-45 69c34.667 22.667 74 37.667 118 45v530h41c44 0 85.333 -8 124 -24
s72.5 -37.833 101.5 -65.5s51.833 -59.834 68.5 -96.501s25 -75.667 25 -117zM427.001 478.002c0 26.667 -5.16895 52.0029 -15.502 76.0029s-24.166 45.5 -41.499 64.5s-37.833 35.167 -61.5 48.5s-48.834 22.333 -75.501 27v-435c26.667 4.66699 51.834 13.667 75.501 27
s44.334 29.666 62.001 48.999s31.5 41.166 41.5 65.499s15 50.166 15 77.499z" />
    <glyph glyph-name="Q" unicode="Q" horiz-adv-x="843" 
d="M811 -55c-70 0 -145.663 30.6699 -226.996 92.0029c-52 -23.333 -106 -35 -162 -35c-53.333 0 -103.5 10.167 -150.5 30.5s-88.333 48.166 -124 83.499s-63.834 76.666 -84.501 123.999s-31 97.666 -31 150.999s10.5 103.666 31.5 150.999s49.167 88.666 84.5 123.999
s76.666 63.333 123.999 84s97.333 31 150 31s102.667 -10.333 150 -31s88.666 -48.667 123.999 -84s63.333 -76.666 84 -123.999s31 -97.666 31 -150.999c0 -62.667 -13.5 -120.5 -40.5 -173.5s-63.833 -97.5 -110.5 -133.5c55.333 -37.333 105.666 -56 150.999 -56v-83v0z
M728.004 391.003c0 42 -8.16797 81.666 -24.501 118.999s-38.5 70 -66.5 98s-60.5 50.167 -97.5 66.5s-76.167 24.5 -117.5 24.5c-42 0 -81.667 -8.16699 -119 -24.5s-70 -38.5 -98 -66.5s-50 -60.667 -66 -98s-24 -77 -24 -119c0 -84.667 30 -157 90 -217
c48.667 30 103.334 45 164.001 45c78 0 152.667 -27.667 224 -83c42 28.667 75 65.334 99 110.001s36 93 36 145zM507.003 96.002c-24 14 -46.999 23.833 -68.999 29.5s-45 8.5 -69 8.5c-35.333 0 -65.333 -5 -90 -15c45.333 -23.333 93 -35 143 -35
c29.333 0 57.666 4 84.999 12z" />
    <glyph glyph-name="R" unicode="R" horiz-adv-x="678" 
d="M646 -12c-78.667 0 -167.334 41.002 -266.001 123.002c-45.333 36.667 -94.333 58.667 -147 66v-177h-83v174c-27.333 -6 -51.666 -16 -72.999 -30l-45 69c36 23.333 75.333 38.333 118 45v525h41c44 0 85.333 -8 124 -24s72.5 -37.833 101.5 -65.5
s51.833 -59.834 68.5 -96.501s25 -75.667 25 -117c0 -54 -13.167 -103.5 -39.5 -148.5s-62.5 -81.5 -108.5 -109.5c14 -7.33301 27 -14.833 39 -22.5s22.667 -15.834 32 -24.501c83.333 -69.333 154.333 -104 213 -104v-83v0zM427 480.002
c0 26.667 -5.16895 52.0029 -15.502 76.0029s-24.166 45.5 -41.499 64.5s-37.833 35.167 -61.5 48.5s-48.834 22.333 -75.501 27v-435c26.667 4.66699 51.834 13.667 75.501 27s44.334 29.666 62.001 48.999s31.5 41.166 41.5 65.499s15 50.166 15 77.499z" />
    <glyph glyph-name="S" unicode="S" horiz-adv-x="414" 
d="M344 699c-12 6 -24.6709 8.99902 -38.0039 8.99902c-22.667 0 -41.667 -7.83301 -57 -23.5s-23 -34.5 -23 -56.5c0 -12.667 2.33301 -23.667 7 -33l120 -273c14 -32 21 -66.333 21 -103c0 -31.333 -6.16699 -61 -18.5 -89s-29 -52.5 -50 -73.5s-45.5 -37.667 -73.5 -50
s-57.333 -18.5 -88 -18.5c-19.333 0 -38.166 2.16699 -56.499 6.5s-36.833 11.5 -55.5 21.5l39 73c24 -11.333 47.667 -17 71 -17c20.667 0 40 3.83301 58 11.5s33.833 18.334 47.5 32.001s24.5 29.5 32.5 47.5s12 37.333 12 58c0 22 -5 44.667 -15 68l-120 273
c-9.33301 22.667 -14 44 -14 64c0 22.667 4.33301 44 13 64s20.334 37.5 35.001 52.5s31.834 26.833 51.501 35.5s40.5 13 62.5 13c28.667 0 54.334 -6.33301 77.001 -19l-38 -73v0z" />
    <glyph glyph-name="T" unicode="T" horiz-adv-x="487" 
d="M285 0h-83v700h-170v83h423v-83h-170v-700z" />
    <glyph glyph-name="U" unicode="U" horiz-adv-x="424" 
d="M392 182c0 -24.667 -4.66992 -48 -14.0029 -70s-22.333 -41.333 -39 -58s-36 -29.834 -58 -39.501s-45.667 -14.5 -71 -14.5s-49.166 4.83301 -71.499 14.5s-41.666 22.834 -57.999 39.501s-29.166 36 -38.499 58s-14 45.333 -14 70v601h83v-601
c0 -13.333 2.66699 -26 8 -38s12.5 -22.5 21.5 -31.5s19.5 -16.167 31.5 -21.5s24.667 -8 38 -8s26 2.66699 38 8s22.5 12.5 31.5 21.5s16.167 19.5 21.5 31.5s8 24.667 8 38v601h83v-601z" />
    <glyph glyph-name="V" unicode="V" horiz-adv-x="794" 
d="M32 783h91l94 -221l180 -416l275 637h90l-365 -845z" />
    <glyph glyph-name="W" unicode="W" horiz-adv-x="1233" 
d="M617 305l-175 -357l-410 835h92l318 -647l129 263l-189 384h92l143 -291l142 291h92l-188 -384l129 -263c2.66699 4.66699 30.167 60.667 82.5 168l234.5 479h92l-409 -835z" />
    <glyph glyph-name="X" unicode="X" horiz-adv-x="812" 
d="M405 381l-271 -381h-102l323 451l-237 332h102l185 -260l187 260h101l-236 -332l323 -451h-102z" />
    <glyph glyph-name="Y" unicode="Y" horiz-adv-x="749" 
d="M416 0h-83v448l-301 335h112l113.5 -128l116.5 -128l80 87l152 169h111l-301 -334v-449z" />
    <glyph glyph-name="Z" unicode="Z" horiz-adv-x="576" 
d="M391 700h-272v83h408l-360 -700h377v-83h-512z" />
    <glyph glyph-name="bracketleft" unicode="[" horiz-adv-x="236" 
d="M32 793h172v-83h-89v-806h89v-83h-172v972z" />
    <glyph glyph-name="backslash" unicode="\" horiz-adv-x="438" 
d="M116 794l290 -859h-83l-291 859h84z" />
    <glyph glyph-name="bracketright" unicode="]" horiz-adv-x="236" 
d="M32 -96h89v806h-89v83h172v-972h-172v83z" />
    <glyph glyph-name="asciicircum" unicode="^" horiz-adv-x="48" 
 />
    <glyph glyph-name="underscore" unicode="_" horiz-adv-x="500" 
d="M0 0h500v-80h-500v80z" />
    <glyph glyph-name="grave" unicode="`" horiz-adv-x="328" 
d="M32 816l47 68l217 -150l-48 -68z" />
    <glyph glyph-name="a" unicode="a" horiz-adv-x="613" 
d="M314 820l288 -820h-96l-197 583l-211 -583h-92zM401 186c0 -26.667 -9.16699 -49.334 -27.5 -68.001s-40.833 -28 -67.5 -28c-13.333 0 -25.666 2.5 -36.999 7.5s-21.166 11.833 -29.499 20.5s-15 18.834 -20 30.501s-7.5 24.167 -7.5 37.5
c0 12.667 2.5 24.834 7.5 36.501s11.667 21.834 20 30.501s18.166 15.5 29.499 20.5s23.666 7.5 36.999 7.5s25.833 -2.5 37.5 -7.5s21.667 -11.833 30 -20.5s15 -18.834 20 -30.501s7.5 -23.834 7.5 -36.501z" />
    <glyph glyph-name="b" unicode="b" horiz-adv-x="457" 
d="M425 262c0 -36 -6.83301 -69.834 -20.5 -101.501s-32.5 -59.334 -56.5 -83.001s-51.833 -42.5 -83.5 -56.5s-65.5 -21 -101.5 -21h-131v783h41c30.667 0 60 -6.16699 88 -18.5s52.5 -29.166 73.5 -50.499s37.667 -46 50 -74s18.5 -57.667 18.5 -89c0 -22 -3 -43 -9 -63
c40.667 -23.333 72.667 -55.166 96 -95.499s35 -83.833 35 -130.5zM342 261.999c0 18 -3.33203 36.1689 -9.99902 54.502s-16.667 35.666 -30 51.999s-29.833 31.166 -49.5 44.499s-42.167 24 -67.5 32c9.33301 16 17.666 31.667 24.999 47s11 35 11 59
c0 33.333 -10.167 63 -30.5 89s-45.833 43.667 -76.5 53v-610h49c24.667 0 47.834 4.66699 69.501 14s40.667 22.166 57 38.499s29.166 35.333 38.499 57s14 44.834 14 69.501z" />
    <glyph glyph-name="c" unicode="c" horiz-adv-x="454" 
d="M422 0c-54 0 -104.667 10.3311 -152 30.998s-88.666 48.667 -123.999 84s-63.166 76.833 -83.499 124.5s-30.5 98.167 -30.5 151.5s10.167 103.833 30.5 151.5s48.166 89.334 83.499 125.001s76.666 63.834 123.999 84.501s98 31 152 31v-84
c-42 0 -81.667 -8.16699 -119 -24.5s-70 -38.5 -98 -66.5s-50.167 -60.667 -66.5 -98s-24.5 -77 -24.5 -119s8.16699 -81.667 24.5 -119s38.5 -70 66.5 -98s60.667 -50.167 98 -66.5s77 -24.5 119 -24.5v-83z" />
    <glyph glyph-name="d" unicode="d" horiz-adv-x="495" 
d="M463 391c0 -53.333 -10.333 -103.664 -31 -150.997s-48.667 -88.833 -84 -124.5s-76.666 -63.834 -123.999 -84.501s-97.666 -31 -150.999 -31h-41v783h41c53.333 0 103.666 -10.5 150.999 -31.5s88.666 -49.333 123.999 -85s63.333 -77.334 84 -125.001
s31 -97.834 31 -150.501zM381 391.002c0 38 -6.83496 74.333 -20.502 109s-32.5 65.667 -56.5 93s-52.333 50 -85 68s-67.667 29.667 -105 35v-610c38 5.33301 73.333 17 106 35s60.834 40.667 84.501 68s42.334 58.333 56.001 93s20.5 71 20.5 109z" />
    <glyph glyph-name="e" unicode="e" 
d="M131 366h-99v83h99v334h384v-83h-302v-251h269v-83h-269v-283h302v-83h-384v366z" />
    <glyph glyph-name="f" unicode="f" 
d="M213 251h269v-83h-269v-168h-82v168h-99v83h99v532h388v-83h-306v-449z" />
    <glyph glyph-name="g" unicode="g" horiz-adv-x="615" 
d="M583 20c-70 -21.333 -123.669 -32 -161.002 -32c-53.333 0 -103.666 10.333 -150.999 31s-88.666 48.667 -123.999 84s-63.333 76.666 -84 123.999s-31 98 -31 152c0 38 5.33301 74.833 16 110.5s26 68.834 46 99.501s43.833 58.167 71.5 82.5s58.5 44.5 92.5 60.5
l-14.5 33.5c-5 11.667 -10.833 24.167 -17.5 37.5l75 35l69 -152c-170.667 -56 -256 -158.333 -256 -307c0 -42 8.16699 -81.667 24.5 -119s38.5 -70 66.5 -98s60.667 -50.167 98 -66.5s77 -24.5 119 -24.5c8.66699 0 17.5 0.5 26.5 1.5s18.5 2.16699 28.5 3.5l-98 302
l78 26z" />
    <glyph glyph-name="h" unicode="h" horiz-adv-x="657" 
d="M519 165h-313l-22 -165h-84l23 165h-91v83h102l71 535h84l-72 -535h291l-71 535h83l105 -783h-83z" />
    <glyph glyph-name="i" unicode="i" horiz-adv-x="181" 
d="M134 779v-779h-82v779h82z" />
    <glyph glyph-name="j" unicode="j" horiz-adv-x="316" 
d="M284 664c0 -28.667 -7.99512 -53.8291 -23.9951 -75.4961s-37 -36.834 -63 -45.501v-477c0 -25.333 -4.83301 -49.166 -14.5 -71.499s-22.834 -41.833 -39.501 -58.5s-36.167 -29.834 -58.5 -39.501s-46.166 -14.5 -71.499 -14.5v82c14 0 27.167 2.66699 39.5 8
s23.166 12.666 32.499 21.999s16.666 20.166 21.999 32.499s8 25.5 8 39.5v478c-24.667 9.33301 -44.834 24.666 -60.501 45.999s-23.5 46 -23.5 74c0 17.333 3.33301 33.666 10 48.999s15.834 28.666 27.501 39.999s25.167 20.333 40.5 27s31.666 10 48.999 10
s33.666 -3.33301 48.999 -10s28.666 -15.667 39.999 -27s20.333 -24.666 27 -39.999s10 -31.666 10 -48.999zM202.005 664.005c0 11.333 -4.33301 21.5 -13 30.5s-19 13.5 -31 13.5s-22.333 -4.5 -31 -13.5s-13 -19.167 -13 -30.5c0 -12 4.33301 -22.333 13 -31
s19 -13 31 -13s22.333 4.33301 31 13s13 19 13 31z" />
    <glyph glyph-name="k" unicode="k" horiz-adv-x="678" 
d="M646 -15c-78.667 0 -167.334 41 -266.001 123c-42 36 -91 57.667 -147 65v-173h-82v171c-28.667 -6.66699 -53.334 -17 -74.001 -31l-45 69c36 24 75.667 39 119 45v527h82v-521c33.333 10.667 65.5 33 96.5 67s58.5 75.167 82.5 123.5s43.333 101.333 58 159
s22.334 115.5 23.001 173.5h83c-0.666992 -56 -7 -111.667 -19 -167s-28.5 -107.333 -49.5 -156s-45.667 -93.167 -74 -133.5s-59.166 -73.5 -92.499 -99.5c35.333 -15.333 66 -34 92 -56c83.333 -69.333 154.333 -104 213 -104v-82z" />
    <glyph glyph-name="l" unicode="l" horiz-adv-x="386" 
d="M32 783h83v-700h239v-83h-322v783z" />
    <glyph glyph-name="m" unicode="m" horiz-adv-x="492" 
d="M245 448l-125 122v-570h-82l-1 791l210 -216l208 216l-1 -791h-82v581l-125 -133h-2z" />
    <glyph glyph-name="n" unicode="n" horiz-adv-x="494" 
d="M372 315v469l82 -1v-783h-82v178l-248 357v-535h-83v796z" />
    <glyph glyph-name="o" unicode="o" horiz-adv-x="844" 
d="M812 391c0 -53.333 -10.334 -103.494 -31.001 -150.494s-48.667 -88.167 -84 -123.5s-76.666 -63.333 -123.999 -84s-97.666 -31 -150.999 -31s-103.5 10.167 -150.5 30.5s-88.333 48.166 -124 83.499s-63.834 76.666 -84.501 123.999s-31 97.666 -31 150.999
s10.5 103.666 31.5 150.999s49.167 88.666 84.5 123.999s76.666 63.333 123.999 84s97.333 31 150 31s102.667 -10.333 150 -31s88.833 -48.834 124.5 -84.501s63.834 -77.167 84.501 -124.5s31 -97.333 31 -150zM728.999 391.006c0 42 -8.16699 81.667 -24.5 119
s-38.5 70 -66.5 98s-60.5 50.167 -97.5 66.5s-76.5 24.5 -118.5 24.5s-81.667 -8.16699 -119 -24.5s-70 -38.5 -98 -66.5s-50 -60.667 -66 -98s-24 -77 -24 -119s8.16699 -81.667 24.5 -119s38.333 -69.833 66 -97.5s60.167 -49.667 97.5 -66s77 -24.5 119 -24.5
s81.667 8.16699 119 24.5s69.833 38.333 97.5 66s49.667 60.167 66 97.5s24.5 77 24.5 119z" />
    <glyph glyph-name="p" unicode="p" horiz-adv-x="542" 
d="M510 478c0 -38 -7.16602 -74.3311 -21.499 -108.998s-34 -65.5 -59 -92.5s-54.333 -49.333 -88 -67s-69.834 -28.834 -108.501 -33.501v-176h-83v167c-24 -5.33301 -48.333 -15.333 -73 -30l-45 69c34.667 22.667 74 37.667 118 45v530h41c44 0 85.333 -8 124 -24
s72.5 -37.833 101.5 -65.5s51.833 -59.834 68.5 -96.501s25 -75.667 25 -117zM427.001 478.002c0 26.667 -5.16895 52.0029 -15.502 76.0029s-24.166 45.5 -41.499 64.5s-37.833 35.167 -61.5 48.5s-48.834 22.333 -75.501 27v-435c26.667 4.66699 51.834 13.667 75.501 27
s44.334 29.666 62.001 48.999s31.5 41.166 41.5 65.499s15 50.166 15 77.499z" />
    <glyph glyph-name="q" unicode="q" horiz-adv-x="843" 
d="M811 -55c-70 0 -145.663 30.6699 -226.996 92.0029c-52 -23.333 -106 -35 -162 -35c-53.333 0 -103.5 10.167 -150.5 30.5s-88.333 48.166 -124 83.499s-63.834 76.666 -84.501 123.999s-31 97.666 -31 150.999s10.5 103.666 31.5 150.999s49.167 88.666 84.5 123.999
s76.666 63.333 123.999 84s97.333 31 150 31s102.667 -10.333 150 -31s88.666 -48.667 123.999 -84s63.333 -76.666 84 -123.999s31 -97.666 31 -150.999c0 -62.667 -13.5 -120.5 -40.5 -173.5s-63.833 -97.5 -110.5 -133.5c55.333 -37.333 105.666 -56 150.999 -56v-83z
M728.004 391.003c0 42 -8.16797 81.666 -24.501 118.999s-38.5 70 -66.5 98s-60.5 50.167 -97.5 66.5s-76.167 24.5 -117.5 24.5c-42 0 -81.667 -8.16699 -119 -24.5s-70 -38.5 -98 -66.5s-50 -60.667 -66 -98s-24 -77 -24 -119c0 -84.667 30 -157 90 -217
c48.667 30 103.334 45 164.001 45c78 0 152.667 -27.667 224 -83c42 28.667 75 65.334 99 110.001s36 93 36 145zM507.003 96.002c-24 14 -46.999 23.833 -68.999 29.5s-45 8.5 -69 8.5c-35.333 0 -65.333 -5 -90 -15c45.333 -23.333 93 -35 143 -35
c29.333 0 57.666 4 84.999 12z" />
    <glyph glyph-name="r" unicode="r" horiz-adv-x="678" 
d="M646 -12c-78.667 0 -167.334 41.002 -266.001 123.002c-45.333 36.667 -94.333 58.667 -147 66v-177h-83v174c-27.333 -6 -51.666 -16 -72.999 -30l-45 69c36 23.333 75.333 38.333 118 45v525h41c44 0 85.333 -8 124 -24s72.5 -37.833 101.5 -65.5
s51.833 -59.834 68.5 -96.501s25 -75.667 25 -117c0 -54 -13.167 -103.5 -39.5 -148.5s-62.5 -81.5 -108.5 -109.5c14 -7.33301 27 -14.833 39 -22.5s22.667 -15.834 32 -24.501c83.333 -69.333 154.333 -104 213 -104v-83zM427 480.002
c0 26.667 -5.16895 52.0029 -15.502 76.0029s-24.166 45.5 -41.499 64.5s-37.833 35.167 -61.5 48.5s-48.834 22.333 -75.501 27v-435c26.667 4.66699 51.834 13.667 75.501 27s44.334 29.666 62.001 48.999s31.5 41.166 41.5 65.499s15 50.166 15 77.499z" />
    <glyph glyph-name="s" unicode="s" horiz-adv-x="414" 
d="M344 699c-12 6 -24.6709 8.99902 -38.0039 8.99902c-22.667 0 -41.667 -7.83301 -57 -23.5s-23 -34.5 -23 -56.5c0 -12.667 2.33301 -23.667 7 -33l120 -273c14 -32 21 -66.333 21 -103c0 -31.333 -6.16699 -61 -18.5 -89s-29 -52.5 -50 -73.5s-45.5 -37.667 -73.5 -50
s-57.333 -18.5 -88 -18.5c-19.333 0 -38.166 2.16699 -56.499 6.5s-36.833 11.5 -55.5 21.5l39 73c24 -11.333 47.667 -17 71 -17c20.667 0 40 3.83301 58 11.5s33.833 18.334 47.5 32.001s24.5 29.5 32.5 47.5s12 37.333 12 58c0 22 -5 44.667 -15 68l-120 273
c-9.33301 22.667 -14 44 -14 64c0 22.667 4.33301 44 13 64s20.334 37.5 35.001 52.5s31.834 26.833 51.501 35.5s40.5 13 62.5 13c28.667 0 54.334 -6.33301 77.001 -19z" />
    <glyph glyph-name="t" unicode="t" horiz-adv-x="487" 
d="M285 0h-83v700h-170v83h423v-83h-170v-700z" />
    <glyph glyph-name="u" unicode="u" horiz-adv-x="424" 
d="M392 182c0 -24.667 -4.66992 -48 -14.0029 -70s-22.333 -41.333 -39 -58s-36 -29.834 -58 -39.501s-45.667 -14.5 -71 -14.5s-49.166 4.83301 -71.499 14.5s-41.666 22.834 -57.999 39.501s-29.166 36 -38.499 58s-14 45.333 -14 70v601h83v-601
c0 -13.333 2.66699 -26 8 -38s12.5 -22.5 21.5 -31.5s19.5 -16.167 31.5 -21.5s24.667 -8 38 -8s26 2.66699 38 8s22.5 12.5 31.5 21.5s16.167 19.5 21.5 31.5s8 24.667 8 38v601h83v-601z" />
    <glyph glyph-name="v" unicode="v" horiz-adv-x="794" 
d="M32 783h91l94 -221l180 -416l275 637h90l-365 -845z" />
    <glyph glyph-name="w" unicode="w" horiz-adv-x="1233" 
d="M617 305l-175 -357l-410 835h92l318 -647l129 263l-189 384h92l143 -291l142 291h92l-188 -384l129 -263c2.66699 4.66699 30.167 60.667 82.5 168l234.5 479h92l-409 -835z" />
    <glyph glyph-name="x" unicode="x" horiz-adv-x="812" 
d="M405 381l-271 -381h-102l323 451l-237 332h102l185 -260l187 260h101l-236 -332l323 -451h-102z" />
    <glyph glyph-name="y" unicode="y" horiz-adv-x="749" 
d="M416 0h-83v448l-301 335h112l113.5 -128l116.5 -128l80 87l152 169h111l-301 -334v-449z" />
    <glyph glyph-name="z" unicode="z" horiz-adv-x="576" 
d="M391 700h-272v83h408l-360 -700h377v-83h-512z" />
    <glyph glyph-name="braceleft" unicode="{" horiz-adv-x="447" 
d="M32 591c0 26 5 50.668 15 74.001s23.667 43.666 41 60.999s37.666 31 60.999 41s48 15 74 15s50.5 -5 73.5 -15s43.333 -23.667 61 -41s31.667 -37.5 42 -60.5s15.5 -47.5 15.5 -73.5c0 -70 -29.333 -124 -88 -162l-45 69c33.333 21.333 50 52 50 92
c0 14.667 -2.83301 28.667 -8.5 42s-13.5 24.833 -23.5 34.5s-21.667 17.334 -35 23.001s-27.333 8.5 -42 8.5c-15.333 0 -29.5 -2.83301 -42.5 -8.5s-24.333 -13.334 -34 -23.001s-17.334 -21.167 -23.001 -34.5s-8.5 -27.333 -8.5 -42c0 -22 5.66699 -41.667 17 -59
l150 -233l-150 -233c-11.333 -17.333 -17 -37 -17 -59c0 -15.333 2.83301 -29.5 8.5 -42.5s13.334 -24.333 23.001 -34s21 -17.334 34 -23.001s27.167 -8.5 42.5 -8.5c14.667 0 28.667 2.83301 42 8.5s25 13.334 35 23.001s17.833 21 23.5 34s8.5 27.167 8.5 42.5
c0 40 -16.667 70.667 -50 92l45 69c58.667 -38 88 -92 88 -162c0 -26 -5.16699 -50.5 -15.5 -73.5s-24.333 -43.167 -42 -60.5s-38 -31 -61 -41s-47.5 -15 -73.5 -15s-50.667 5 -74 15s-43.666 23.667 -60.999 41s-31 37.666 -41 60.999s-15 48 -15 74
c0 38 10 72.667 30 104l120 188l-120 188c-20 30.667 -30 65.334 -30 104.001z" />
    <glyph glyph-name="bar" unicode="|" horiz-adv-x="24" 
 />
    <glyph glyph-name="braceright" unicode="}" horiz-adv-x="447" 
d="M415 591c0 -38.667 -10 -73.335 -30 -104.002l-120 -188l120 -188c20 -31.333 30 -66 30 -104c0 -26 -5 -50.667 -15 -74s-23.667 -43.666 -41 -60.999s-37.666 -31 -60.999 -41s-48 -15 -74 -15s-50.5 5 -73.5 15s-43.333 23.667 -61 41s-31.667 37.5 -42 60.5
s-15.5 47.5 -15.5 73.5c0 70 29.333 124 88 162l45 -69c-33.333 -21.333 -50 -52 -50 -92c0 -15.333 2.83301 -29.5 8.5 -42.5s13.5 -24.333 23.5 -34s21.5 -17.334 34.5 -23.001s27.167 -8.5 42.5 -8.5c14.667 0 28.667 2.83301 42 8.5s24.833 13.334 34.5 23.001
s17.334 21 23.001 34s8.5 27.167 8.5 42.5c0 22 -5.66699 41.667 -17 59l-150 233l150 233c11.333 17.333 17 37 17 59c0 14.667 -2.83301 28.667 -8.5 42s-13.334 24.833 -23.001 34.5s-21.167 17.334 -34.5 23.001s-27.333 8.5 -42 8.5
c-15.333 0 -29.5 -2.83301 -42.5 -8.5s-24.5 -13.334 -34.5 -23.001s-17.833 -21.167 -23.5 -34.5s-8.5 -27.333 -8.5 -42c0 -40 16.667 -70.667 50 -92l-45 -69c-58.667 38 -88 92 -88 162c0 26 5.16699 50.5 15.5 73.5s24.333 43.167 42 60.5s38 31 61 41s47.5 15 73.5 15
s50.667 -5 74 -15s43.666 -23.667 60.999 -41s31 -37.666 41 -60.999s15 -48 15 -74z" />
    <glyph glyph-name="asciitilde" unicode="~" horiz-adv-x="24" 
 />
    <glyph glyph-name="currency" unicode="&#xa4;" horiz-adv-x="593" 
d="M226 401l0.00292969 -25.001h248l-66 -82h-168c10.667 -32 25.667 -61.167 45 -87.5s42 -49 68 -68s54.667 -33.833 86 -44.5s64 -16 98 -16v-82c-45.333 0 -88.833 7.5 -130.5 22.5s-79.334 35.833 -113.001 62.5s-62.5 58.167 -86.5 94.5s-41.333 75.833 -52 118.5
h-123l67 82h44v25h-108l67 83h53c10.667 42.667 28.167 82.167 52.5 118.5s53.333 67.833 87 94.5s71.167 47.5 112.5 62.5s84.666 22.5 129.999 22.5v-83c-34 0 -66.5 -5.33301 -97.5 -16s-59.5 -25.5 -85.5 -44.5s-48.833 -41.667 -68.5 -68
s-34.834 -55.166 -45.501 -86.499h321l-67 -83h-268z" />
    <glyph glyph-name="brokenbar" unicode="&#xa6;" horiz-adv-x="48" 
 />
    <glyph glyph-name="copyright" unicode="&#xa9;" horiz-adv-x="855" 
d="M823 397c0 -54 -10.5 -105 -31.5 -153s-49.333 -89.833 -85 -125.5s-77.5 -64 -125.5 -85s-99 -31.5 -153 -31.5s-105 10.333 -153 31s-90 49 -126 85s-64.5 78 -85.5 126s-31.5 99 -31.5 153c0 54.667 10.5 106 31.5 154s49.5 90 85.5 126s78 64.333 126 85
s99 31 153 31s104.833 -10.5 152.5 -31.5s89.5 -49.5 125.5 -85.5s64.5 -78 85.5 -126s31.5 -99 31.5 -153zM758 397c0 44.667 -8.83301 87.167 -26.5 127.5s-41.5 75.5 -71.5 105.5s-65 53.833 -105 71.5s-82.333 26.5 -127 26.5c-46 0 -89 -8.83301 -129 -26.5
s-75 -41.5 -105 -71.5s-53.667 -65.167 -71 -105.5s-26 -82.833 -26 -127.5c0 -45.333 8.83301 -88 26.5 -128s41.5 -75 71.5 -105s65 -53.667 105 -71s82.667 -26 128 -26c44.667 0 87 8.66699 127 26s75 41 105 71s53.833 65 71.5 105s26.5 82.667 26.5 128zM485 108
c-40 0 -77.499 7.66992 -112.499 23.0029s-65.5 36.166 -91.5 62.499s-46.5 57 -61.5 92s-22.5 72.167 -22.5 111.5s7.66699 76.5 23 111.5s36.166 65.667 62.499 92s57.333 47.166 93 62.499s73.5 23 113.5 23v-69c-31.333 0 -60.666 -5.83301 -87.999 -17.5
s-51.166 -27.5 -71.499 -47.5s-36.333 -43.333 -48 -70s-17.5 -55 -17.5 -85c0 -30.667 5.83301 -59.334 17.5 -86.001s27.667 -50 48 -70s44.166 -35.833 71.499 -47.5s56.666 -17.5 87.999 -17.5v-64l-4 -4v0z" />
    <glyph glyph-name="guillemotleft" unicode="&#xab;" horiz-adv-x="379" 
d="M162 384l118 168l67 -47l-84 -121l84 -121l-67 -47zM32 384l118 168l67 -47l-84 -121l84 -121l-67 -47z" />
    <glyph glyph-name="logicalnot" unicode="&#xac;" horiz-adv-x="377" 
d="M262 169v95h-230v83h313v-178h-83z" />
    <glyph glyph-name="registered" unicode="&#xae;" horiz-adv-x="404" 
d="M282 529c-12 0 -24.167 2.83496 -36.5 8.50195s-24.5 13.5 -36.5 23.5c-4 3.33301 -8.5 6.16602 -13.5 8.49902s-9.5 4.16602 -13.5 5.49902v-43h-32v41l-13 -7l-17 26c14 8 24 12.667 30 14v129h16c22.667 0 42.167 -7.83301 58.5 -23.5s24.5 -34.5 24.5 -56.5
c0 -12 -2.83301 -23.5 -8.5 -34.5s-13.167 -20.167 -22.5 -27.5l10 -8c9.33301 -7.33301 18.833 -13.333 28.5 -18s18.167 -7 25.5 -7v-31v0zM218 655.002c0 24 -11.999 39.668 -35.999 47.001v-93c11.333 2.66699 20.166 8.16699 26.499 16.5s9.5 18.166 9.5 29.499z
M372.001 626.003c0 -23.333 -4.49902 -45.166 -13.499 -65.499s-21.333 -38.166 -37 -53.499s-33.834 -27.5 -54.501 -36.5s-42.334 -13.5 -65.001 -13.5c-23.333 0 -45.333 4.5 -66 13.5s-38.667 21.167 -54 36.5s-27.5 33.166 -36.5 53.499s-13.5 42.166 -13.5 65.499
s4.5 45.333 13.5 66s21.333 38.667 37 54s33.667 27.5 54 36.5s42.166 13.5 65.499 13.5c22.667 0 44.334 -4.5 65.001 -13.5s38.834 -21.167 54.501 -36.5s28 -33.333 37 -54s13.5 -42.667 13.5 -66zM335.002 626.003c0 18 -3.5 35.168 -10.5 51.501
s-16.667 30.666 -29 42.999s-26.5 22 -42.5 29s-33 10.5 -51 10.5c-18.667 0 -36.167 -3.5 -52.5 -10.5s-30.5 -16.5 -42.5 -28.5s-21.5 -26.167 -28.5 -42.5s-10.5 -33.833 -10.5 -52.5c0 -18 3.5 -35.167 10.5 -51.5s16.5 -30.666 28.5 -42.999s26.167 -22 42.5 -29
s33.833 -10.5 52.5 -10.5c18 0 35.167 3.5 51.5 10.5s30.5 16.667 42.5 29s21.5 26.666 28.5 42.999s10.5 33.5 10.5 51.5z" />
    <glyph glyph-name="degree" unicode="&#xb0;" horiz-adv-x="343" 
d="M311 655c0 -19.333 -3.6709 -37.502 -11.0039 -54.502s-17.333 -31.667 -30 -44s-27.5 -22 -44.5 -29s-34.833 -10.5 -53.5 -10.5c-19.333 0 -37.5 3.66699 -54.5 11s-31.833 17.333 -44.5 30s-22.667 27.334 -30 44.001s-11 34.334 -11 53.001s3.83301 36.5 11.5 53.5
s17.834 32 30.501 45s27.5 23.167 44.5 30.5s34.833 11 53.5 11s36.334 -3.66699 53.001 -11s31.334 -17.5 44.001 -30.5s22.834 -28 30.501 -45s11.5 -34.833 11.5 -53.5zM247.996 654.998c0 21.333 -7.5 39.5 -22.5 54.5s-32.833 22.5 -53.5 22.5s-38.5 -7.5 -53.5 -22.5
s-22.5 -33.167 -22.5 -54.5c0 -20.667 7.5 -38.5 22.5 -53.5s32.833 -22.5 53.5 -22.5s38.5 7.5 53.5 22.5s22.5 32.833 22.5 53.5z" />
    <glyph glyph-name="plusminus" unicode="&#xb1;" horiz-adv-x="377" 
d="M230 149h-83v115h-115v83h115v115h83v-115h115v-83h-115v-115zM32 84h313v-83h-313v83z" />
    <glyph glyph-name="paragraph" unicode="&#xb6;" horiz-adv-x="625" 
d="M593 783l0.00195312 -915.001h-82v830h-48v-830h-82v134c-48.667 5.33301 -94.167 19.166 -136.5 41.499s-79.333 51 -111 86s-56.5 74.833 -74.5 119.5s-27 92 -27 142c0 52.667 10.333 102.834 31 150.501s48.667 89.334 84 125.001s76.666 64 123.999 85
s97.666 31.5 150.999 31.5h171z" />
    <glyph glyph-name="periodcentered" unicode="&#xb7;" horiz-adv-x="157" 
d="M32 384h93v-83h-93v83z" />
    <glyph glyph-name="guillemotright" unicode="&#xbb;" horiz-adv-x="379" 
d="M116 384l-84 121l67 47l118 -168l-118 -168l-67 47zM246 384l-84 121l67 47l118 -168l-118 -168l-67 47z" />
    <glyph glyph-name="afii10023" unicode="&#x401;" 
d="M131 0h384v83h-302v283h269v83h-269v251h302v83h-384v-334h-99v-83h99v-366zM353 911h83v-83h-83v83zM211 911h84v-83h-84v83z" />
    <glyph glyph-name="afii10053" unicode="&#x404;" horiz-adv-x="533" 
d="M48 289c-9.33301 34 -14.668 67.4951 -16.001 100.495s0.5 64.5 5.5 94.5s12.833 58.333 23.5 85s23 50.334 37 71.001c28 42 63.333 77.5 106 106.5s90 48.167 142 57.5l16 -82c-41.333 -7.33301 -79 -22.166 -113 -44.499s-62 -49.833 -84 -82.5
c-15.333 -23.333 -26.666 -49.833 -33.999 -79.5s-11.333 -60.5 -12 -92.5h280v-84h-272c4 -22.667 9.66699 -44.5 17 -65.5s16.333 -40.167 27 -57.5c18 -26 39.333 -48.667 64 -68s51.5 -34.666 80.5 -45.999s59.333 -18.166 91 -20.499s63.5 0.833984 95.5 9.50098
l22 -81c-51.333 -13.333 -102.5 -16 -153.5 -8s-98.167 24.667 -141.5 50s-81 58.333 -113 99s-54.667 86.667 -68 138z" />
    <glyph glyph-name="uni0406" unicode="&#x406;" horiz-adv-x="181" 
d="M134 779v-779h-82v779h82z" />
    <glyph glyph-name="afii10056" unicode="&#x407;" horiz-adv-x="181" 
d="M134 779v-779h-82v779h82zM124 911h83v-83h-83v83zM-18 911h84v-83h-84v83z" />
    <glyph glyph-name="afii10062" unicode="&#x40e;" horiz-adv-x="536" 
d="M436 782h90l-288 -782h-89l76 207l-216 574l96 1l166 -450zM265 815c-31.333 0 -59 7 -83 21s-40.667 33.667 -50 59l65 33c4.66699 -14.667 13.167 -26.834 25.5 -36.501s26.5 -14.5 42.5 -14.5c16.667 0 31.167 4.83301 43.5 14.5s20.833 21.834 25.5 36.501l65 -33
c-9.33301 -25.333 -26 -45 -50 -59s-52 -21 -84 -21z" />
    <glyph glyph-name="afii10017" unicode="&#x410;" horiz-adv-x="522" 
d="M383 585c0 16.667 -3.33203 32.332 -9.99902 46.999s-15.667 27.667 -27 39s-24.333 20.333 -39 27s-30.334 10 -47.001 10s-32.5 -3.33301 -47.5 -10s-28.167 -15.5 -39.5 -26.5s-20.333 -24 -27 -39s-10 -30.833 -10 -47.5v-585h-82v585c0 28.667 5.5 55.5 16.5 80.5
s26 46.833 45 65.5s40.833 33.334 65.5 44.001s51 16 79 16s54.5 -5.5 79.5 -16.5s46.667 -25.833 65 -44.5s33 -40.5 44 -65.5s16.5 -51.5 16.5 -79.5v-585h-82v585zM354.001 185.998c0 -26.667 -9.16699 -49.334 -27.5 -68.001s-40.833 -28 -67.5 -28
c-13.333 0 -25.666 2.5 -36.999 7.5s-21.166 11.833 -29.499 20.5s-15 18.834 -20 30.501s-7.5 24.167 -7.5 37.5c0 12.667 2.5 24.834 7.5 36.501s11.667 21.834 20 30.501s18.166 15.5 29.499 20.5s23.666 7.5 36.999 7.5s25.833 -2.5 37.5 -7.5s21.667 -11.833 30 -20.5
s15 -18.834 20 -30.501s7.5 -23.834 7.5 -36.501z" />
    <glyph glyph-name="afii10018" unicode="&#x411;" horiz-adv-x="445" 
d="M136 697l-0.000976562 -92.998c38.667 -4.66699 74.834 -15.834 108.501 -33.501s63 -40 88 -67s44.667 -57.833 59 -92.5s21.5 -71 21.5 -109c0 -41.333 -8.33301 -80.333 -25 -117s-39.5 -68.834 -68.5 -96.501s-62.833 -49.5 -101.5 -65.5s-80 -24 -124 -24h-41v781
h294v-83h-211zM329.999 302.002c0 27.333 -4.99805 53.1689 -14.998 77.502s-23.833 46.166 -41.5 65.499s-38.334 35.666 -62.001 48.999s-48.834 22.333 -75.501 27v-435c26.667 4.66699 51.834 13.667 75.501 27s44.167 29.5 61.5 48.5s31.166 40.5 41.499 64.5
s15.5 49.333 15.5 76z" />
    <glyph glyph-name="afii10019" unicode="&#x412;" horiz-adv-x="457" 
d="M425 262c0 -36 -6.83301 -69.834 -20.5 -101.501s-32.5 -59.334 -56.5 -83.001s-51.833 -42.5 -83.5 -56.5s-65.5 -21 -101.5 -21h-131v783h41c30.667 0 60 -6.16699 88 -18.5s52.5 -29.166 73.5 -50.499s37.667 -46 50 -74s18.5 -57.667 18.5 -89c0 -22 -3 -43 -9 -63
c40.667 -23.333 72.667 -55.166 96 -95.499s35 -83.833 35 -130.5zM342 261.999c0 18 -3.33203 36.1689 -9.99902 54.502s-16.667 35.666 -30 51.999s-29.833 31.166 -49.5 44.499s-42.167 24 -67.5 32c9.33301 16 17.666 31.667 24.999 47s11 35 11 59
c0 33.333 -10.167 63 -30.5 89s-45.833 43.667 -76.5 53v-610h49c24.667 0 47.834 4.66699 69.501 14s40.667 22.166 57 38.499s29.166 35.333 38.499 57s14 44.834 14 69.501z" />
    <glyph glyph-name="afii10020" unicode="&#x413;" horiz-adv-x="476" 
d="M138 0h-82v783h388v-83h-306v-700z" />
    <glyph glyph-name="afii10021" unicode="&#x414;" horiz-adv-x="605" 
d="M104 0v-121.001h-82v204h73v502c0 28.667 5.5 55.5 16.5 80.5s26 46.833 45 65.5s40.833 33.334 65.5 44.001s51 16 79 16s54.5 -5.5 79.5 -16.5s46.667 -25.833 65 -44.5s33 -40.5 44 -65.5s16.5 -51.5 16.5 -79.5v-502h71v-204h-82v121h-391zM177 82.999
l247.001 -0.000976562v502c0 16.667 -3.33301 32.334 -10 47.001s-15.667 27.667 -27 39s-24.333 20.333 -39 27s-30.334 10 -47.001 10s-32.5 -3.33301 -47.5 -10s-28.167 -15.5 -39.5 -26.5s-20.333 -24 -27 -39s-10 -30.833 -10 -47.5v-502z" />
    <glyph glyph-name="afii10022" unicode="&#x415;" 
d="M131 366h-99v83h99v334h384v-83h-302v-251h269v-83h-269v-283h302v-83h-384v366z" />
    <glyph glyph-name="afii10024" unicode="&#x416;" horiz-adv-x="964" 
d="M437 173c-56 -7.33301 -105.002 -29 -147.002 -65c-98.667 -82 -187.334 -123 -266.001 -123v82c58.667 0 129.667 34.667 213 104c26 22 56.667 40.667 92 56c-33.333 26 -64.166 59.167 -92.499 99.5s-53 84.833 -74 133.5s-37.5 100.667 -49.5 156
s-18.333 111 -19 167h83c0.666992 -58 8.33398 -115.833 23.001 -173.5s34 -110.667 58 -159s51.5 -89.5 82.5 -123.5s63.167 -56.333 96.5 -67v521h82v-521c33.333 10.667 65.5 33 96.5 67s58.5 75.167 82.5 123.5s43.333 101.333 58 159s22.334 115.5 23.001 173.5h83
c-0.666992 -56 -7 -111.667 -19 -167s-28.5 -107.333 -49.5 -156s-45.667 -93.167 -74 -133.5s-59.166 -73.5 -92.499 -99.5c35.333 -15.333 66 -34 92 -56c83.333 -69.333 154.333 -104 213 -104v-82c-78.667 0 -167.334 41 -266.001 123c-42 36 -91 57.667 -147 65v-173
h-82v173z" />
    <glyph glyph-name="afii10025" unicode="&#x417;" horiz-adv-x="559" 
d="M102 227c-2 -26 0.831055 -48.8398 8.49805 -68.5068s18.667 -36.334 33 -50.001s31.333 -24 51 -31s40.834 -10.5 63.501 -10.5c38 0 70.333 9 97 27s47.167 40.833 61.5 68.5s22.5 57.834 24.5 90.501s-2.66699 63.334 -14 92.001s-29.833 53.334 -55.5 74.001
s-58.5 33 -98.5 37c-7.33301 0.666992 -17.333 1.16699 -30 1.5s-23.334 -0.166992 -32.001 -1.5v82c16 -0.666992 31.5 -1 46.5 -1s27.5 2.33301 37.5 7c10.667 4.66699 20.334 11.5 29.001 20.5s15.5 19.167 20.5 30.5s7.83301 23.5 8.5 36.5
s-1.66602 25.833 -6.99902 38.5c-8 19.333 -20.333 33.166 -37 41.499s-33.667 11.333 -51 9s-32.833 -9.66602 -46.5 -21.999s-21.167 -29.5 -22.5 -51.5l-82 14c9.33301 59.333 41 100 95 122c30.667 12 59.834 16.667 87.501 14s52.167 -10.667 73.5 -24
s39 -30.666 53 -51.999s22.333 -44.333 25 -69s-0.833008 -49.667 -10.5 -75s-27.167 -48.666 -52.5 -69.999c44.667 -21.333 79 -48.5 103 -81.5s39.167 -68.333 45.5 -106s4.66602 -75.667 -5.00098 -114s-26.5 -73 -50.5 -104s-54.167 -56.833 -90.5 -77.5
s-77.5 -32 -123.5 -34c-34 -1.33301 -66.833 3.33398 -98.5 14.001s-59.167 26.334 -82.5 47.001s-41 45.834 -53 75.501s-15.333 63.167 -10 100.5h89z" />
    <glyph glyph-name="afii10026" unicode="&#x418;" horiz-adv-x="494" 
d="M372 784l83 -1v-783h-83v533l-248 -456v-77h-82v783l82 1v-546l248 455v91z" />
    <glyph glyph-name="afii10027" unicode="&#x419;" horiz-adv-x="494" 
d="M372 784l83 -1v-783h-83v533l-248 -456v-77h-82v783l82 1v-546l248 455v91zM247 829c-31.333 0 -59 7 -83 21s-40.667 33.667 -50 59l65 33c4.66699 -14.667 13.167 -26.834 25.5 -36.501s26.5 -14.5 42.5 -14.5c16.667 0 31.167 4.83301 43.5 14.5
s20.833 21.834 25.5 36.501l65 -33c-9.33301 -25.333 -26 -45 -50 -59s-52 -21 -84 -21z" />
    <glyph glyph-name="afii10028" unicode="&#x41a;" horiz-adv-x="678" 
d="M646 -15c-78.667 0 -167.334 41 -266.001 123c-42 36 -91 57.667 -147 65v-173h-82v171c-28.667 -6.66699 -53.334 -17 -74.001 -31l-45 69c36 24 75.667 39 119 45v527h82v-521c33.333 10.667 65.5 33 96.5 67s58.5 75.167 82.5 123.5s43.333 101.333 58 159
s22.334 115.5 23.001 173.5h83c-0.666992 -56 -7 -111.667 -19 -167s-28.5 -107.333 -49.5 -156s-45.667 -93.167 -74 -133.5s-59.166 -73.5 -92.499 -99.5c35.333 -15.333 66 -34 92 -56c83.333 -69.333 154.333 -104 213 -104v-82z" />
    <glyph glyph-name="afii10029" unicode="&#x41b;" horiz-adv-x="475" 
d="M361 585c0 16.667 -3.33203 32.332 -9.99902 46.999s-15.667 27.667 -27 39s-24.333 20.333 -39 27s-30.334 10 -47.001 10s-32.5 -3.33301 -47.5 -10s-28.167 -15.5 -39.5 -26.5s-20.333 -24 -27 -39s-10 -30.833 -10 -47.5v-585h-82v585c0 28.667 5.5 55.5 16.5 80.5
s26 46.833 45 65.5s40.833 33.334 65.5 44.001s51 16 79 16s54.5 -5.5 79.5 -16.5s46.667 -25.833 65 -44.5s33 -40.5 44 -65.5s16.5 -51.5 16.5 -79.5v-585h-82v585z" />
    <glyph glyph-name="afii10030" unicode="&#x41c;" horiz-adv-x="715" 
d="M600 611c0 14 -2.49707 27.167 -7.49707 39.5s-12 23 -21 32s-19.5 16.167 -31.5 21.5s-25 8 -39 8s-27.167 -2.66699 -39.5 -8s-23 -12.5 -32 -21.5s-16.167 -19.667 -21.5 -32s-8 -25.5 -8 -39.5v-611h-84v611c0 14 -2.66699 27.167 -8 39.5s-12.5 23 -21.5 32
s-19.667 16.167 -32 21.5s-25.5 8 -39.5 8s-27 -2.66699 -39 -8s-22.5 -12.5 -31.5 -21.5s-16.167 -19.667 -21.5 -32s-8 -25.5 -8 -39.5v-611h-83v611c0 25.333 4.83301 49.166 14.5 71.499s22.667 41.833 39 58.5s35.666 29.834 57.999 39.501s46.166 14.5 71.499 14.5
c58 0 105.667 -23 143 -69c36 46 83.667 69 143 69c24.667 0 48.167 -5 70.5 -15s41.666 -23.333 57.999 -40s29.333 -36.167 39 -58.5s14.5 -45.833 14.5 -70.5v-611h-83v611z" />
    <glyph glyph-name="afii10031" unicode="&#x41d;" horiz-adv-x="657" 
d="M519 165h-313l-22 -165h-84l23 165h-91v83h102l71 535h84l-72 -535h291l-71 535h83l105 -783h-83z" />
    <glyph glyph-name="afii10032" unicode="&#x41e;" horiz-adv-x="844" 
d="M812 391c0 -53.333 -10.334 -103.494 -31.001 -150.494s-48.667 -88.167 -84 -123.5s-76.666 -63.333 -123.999 -84s-97.666 -31 -150.999 -31s-103.5 10.167 -150.5 30.5s-88.333 48.166 -124 83.499s-63.834 76.666 -84.501 123.999s-31 97.666 -31 150.999
s10.5 103.666 31.5 150.999s49.167 88.666 84.5 123.999s76.666 63.333 123.999 84s97.333 31 150 31s102.667 -10.333 150 -31s88.833 -48.834 124.5 -84.501s63.834 -77.167 84.501 -124.5s31 -97.333 31 -150zM728.999 391.006c0 42 -8.16699 81.667 -24.5 119
s-38.5 70 -66.5 98s-60.5 50.167 -97.5 66.5s-76.5 24.5 -118.5 24.5s-81.667 -8.16699 -119 -24.5s-70 -38.5 -98 -66.5s-50 -60.667 -66 -98s-24 -77 -24 -119s8.16699 -81.667 24.5 -119s38.333 -69.833 66 -97.5s60.167 -49.667 97.5 -66s77 -24.5 119 -24.5
s81.667 8.16699 119 24.5s69.833 38.333 97.5 66s49.667 60.167 66 97.5s24.5 77 24.5 119zM516.999 405.006c0 -26.667 -9.16699 -49.334 -27.5 -68.001s-40.833 -28 -67.5 -28c-13.333 0 -25.666 2.5 -36.999 7.5s-21.166 11.833 -29.499 20.5s-15 18.834 -20 30.501
s-7.5 24.167 -7.5 37.5c0 12.667 2.5 24.834 7.5 36.501s11.667 21.834 20 30.501s18.166 15.5 29.499 20.5s23.666 7.5 36.999 7.5s25.833 -2.5 37.5 -7.5s21.667 -11.833 30 -20.5s15 -18.834 20 -30.501s7.5 -23.834 7.5 -36.501z" />
    <glyph glyph-name="afii10033" unicode="&#x41f;" horiz-adv-x="534" 
d="M394 704h-248v-704h-82v783h413v-783h-83v704z" />
    <glyph glyph-name="afii10034" unicode="&#x420;" horiz-adv-x="542" 
d="M510 478c0 -38 -7.16602 -74.3311 -21.499 -108.998s-34 -65.5 -59 -92.5s-54.333 -49.333 -88 -67s-69.834 -28.834 -108.501 -33.501v-176h-83v167c-24 -5.33301 -48.333 -15.333 -73 -30l-45 69c34.667 22.667 74 37.667 118 45v530h41c44 0 85.333 -8 124 -24
s72.5 -37.833 101.5 -65.5s51.833 -59.834 68.5 -96.501s25 -75.667 25 -117zM427.001 478.002c0 26.667 -5.16895 52.0029 -15.502 76.0029s-24.166 45.5 -41.499 64.5s-37.833 35.167 -61.5 48.5s-48.834 22.333 -75.501 27v-435c26.667 4.66699 51.834 13.667 75.501 27
s44.334 29.666 62.001 48.999s31.5 41.166 41.5 65.499s15 50.166 15 77.499z" />
    <glyph glyph-name="afii10035" unicode="&#x421;" horiz-adv-x="454" 
d="M422 0c-54 0 -104.667 10.3311 -152 30.998s-88.666 48.667 -123.999 84s-63.166 76.833 -83.499 124.5s-30.5 98.167 -30.5 151.5s10.167 103.833 30.5 151.5s48.166 89.334 83.499 125.001s76.666 63.834 123.999 84.501s98 31 152 31v-84
c-42 0 -81.667 -8.16699 -119 -24.5s-70 -38.5 -98 -66.5s-50.167 -60.667 -66.5 -98s-24.5 -77 -24.5 -119s8.16699 -81.667 24.5 -119s38.5 -70 66.5 -98s60.667 -50.167 98 -66.5s77 -24.5 119 -24.5v-83z" />
    <glyph glyph-name="afii10036" unicode="&#x422;" horiz-adv-x="487" 
d="M285 0h-83v700h-170v83h423v-83h-170v-700z" />
    <glyph glyph-name="afii10037" unicode="&#x423;" horiz-adv-x="536" 
d="M436 782h90l-288 -782h-89l76 207l-216 574l96 1l166 -450z" />
    <glyph glyph-name="afii10038" unicode="&#x424;" horiz-adv-x="775" 
d="M427 779l0.00195312 -70.001c42 -2 81.667 -10.833 119 -26.5s70 -37 98 -64s50.333 -59 67 -96s25 -77.833 25 -122.5c0 -44 -7.66699 -84.833 -23 -122.5s-36.833 -70.334 -64.5 -98.001s-60.334 -49.667 -98.001 -66s-78.834 -25.166 -123.501 -26.499v-87h-82v86
c-44.667 2 -85.5 11.167 -122.5 27.5s-68.833 38.333 -95.5 66s-47.5 60.167 -62.5 97.5s-22.5 78 -22.5 122c0 44.667 8 85.334 24 122.001s37.667 68.334 65 95.001s59.333 48.167 96 64.5s76 26.166 118 29.499v69h82zM648.002 400.999
c0 34.667 -5.99805 65.998 -17.998 93.998s-28.333 52 -49 72s-44.334 35.5 -71.001 46.5s-54.334 17.167 -83.001 18.5v-472c30.667 2.66699 59.5 10.167 86.5 22.5s50.5 28.833 70.5 49.5s35.667 45.334 47 74.001s17 60.334 17 95.001zM127.004 399.997
c0 -34.667 5.5 -66.167 16.5 -94.5s26.167 -52.666 45.5 -72.999s42.333 -36.833 69 -49.5s55.667 -21 87 -25v475c-28.667 -3.33301 -56.167 -10.833 -82.5 -22.5s-49.5 -27.167 -69.5 -46.5s-36 -42.833 -48 -70.5s-18 -58.834 -18 -93.501z" />
    <glyph glyph-name="afii10039" unicode="&#x425;" horiz-adv-x="812" 
d="M405 381l-271 -381h-102l323 451l-237 332h102l185 -260l187 260h101l-236 -332l323 -451h-102z" />
    <glyph glyph-name="afii10040" unicode="&#x426;" horiz-adv-x="547" 
d="M32 0v782h82v-703h248v703h83l-1 -699h71v-204h-82v121h-401z" />
    <glyph glyph-name="afii10041" unicode="&#x427;" horiz-adv-x="430" 
d="M309 783l82.9971 0.000976562v-783h-83v402c-26 -17.333 -59 -26 -99 -26c-25.333 0 -49.166 4 -71.499 12s-41.666 19.5 -57.999 34.5s-29.166 33.667 -38.499 56s-14 47.833 -14 76.5v228h83v-223c-0.666992 -18 2.83301 -34 10.5 -48s17.667 -25.333 30 -34
s26.166 -14.834 41.499 -18.501s30.5 -4 45.5 -1s28.833 9.16699 41.5 18.5s22.334 22.333 29.001 39v267z" />
    <glyph glyph-name="afii10042" unicode="&#x428;" horiz-adv-x="841" 
d="M51 782h82v-703h248v703h82v-703h248v703h83l-1 -782h-742v782z" />
    <glyph glyph-name="afii10043" unicode="&#x429;" horiz-adv-x="896" 
d="M51 782h82v-703h248v703h82v-703h248v703h83l-1 -699h71v-204h-82v121h-731v782z" />
    <glyph glyph-name="afii10044" unicode="&#x42a;" horiz-adv-x="578" 
d="M36 699l-0.000976562 83.002h233v-178c38.667 -4.66699 74.834 -15.834 108.501 -33.501s63 -40 88 -67s44.667 -57.833 59 -92.5s21.5 -71 21.5 -109c0 -41.333 -8.33301 -80.333 -25 -117s-39.5 -68.834 -68.5 -96.501s-62.833 -49.5 -101.5 -65.5s-80 -24 -124 -24
h-41v700h-150zM462.999 302.002c0 27.333 -4.99805 53.1689 -14.998 77.502s-23.833 46.166 -41.5 65.499s-38.334 35.666 -62.001 48.999s-48.834 22.333 -75.501 27v-435c26.667 4.66699 51.834 13.667 75.501 27s44.167 29.5 61.5 48.5s31.166 40.5 41.499 64.5
s15.5 49.333 15.5 76z" />
    <glyph glyph-name="afii10045" unicode="&#x42b;" horiz-adv-x="605" 
d="M136 780l-0.000976562 -175.998c38.667 -4.66699 74.834 -15.834 108.501 -33.501s63 -40 88 -67s44.667 -57.833 59 -92.5s21.5 -71 21.5 -109c0 -41.333 -8.33301 -80.333 -25 -117s-39.5 -68.834 -68.5 -96.501s-62.833 -49.5 -101.5 -65.5s-80 -24 -124 -24h-41v781
h83zM329.999 302.002c0 27.333 -4.99805 53.1689 -14.998 77.502s-23.833 46.166 -41.5 65.499s-38.334 35.666 -62.001 48.999s-48.834 22.333 -75.501 27v-435c26.667 4.66699 51.834 13.667 75.501 27s44.167 29.5 61.5 48.5s31.166 40.5 41.499 64.5
s15.5 49.333 15.5 76zM556.001 779.005v-779h-82v779h82z" />
    <glyph glyph-name="afii10046" unicode="&#x42c;" horiz-adv-x="445" 
d="M136 780l-0.000976562 -175.998c38.667 -4.66699 74.834 -15.834 108.501 -33.501s63 -40 88 -67s44.667 -57.833 59 -92.5s21.5 -71 21.5 -109c0 -41.333 -8.33301 -80.333 -25 -117s-39.5 -68.834 -68.5 -96.501s-62.833 -49.5 -101.5 -65.5s-80 -24 -124 -24h-41v781
h83zM329.999 302.002c0 27.333 -4.99805 53.1689 -14.998 77.502s-23.833 46.166 -41.5 65.499s-38.334 35.666 -62.001 48.999s-48.834 22.333 -75.501 27v-435c26.667 4.66699 51.834 13.667 75.501 27s44.167 29.5 61.5 48.5s31.166 40.5 41.499 64.5
s15.5 49.333 15.5 76z" />
    <glyph glyph-name="afii10047" unicode="&#x42d;" horiz-adv-x="522" 
d="M478 289c-13.333 -51.333 -36.001 -97.3311 -68.001 -137.998s-69.667 -73.667 -113 -99s-90.5 -42 -141.5 -50s-102.167 -5.33301 -153.5 8l22 81c32 -8.66699 63.833 -11.834 95.5 -9.50098s62 9.16602 91 20.499s55.833 26.666 80.5 45.999s46 42 64 68
c16 26 28.333 55.833 37 89.5s13.5 67.834 14.5 102.501s-2.16699 68.334 -9.5 101.001s-19.333 61.334 -36 86.001c-22 32.667 -50 60.167 -84 82.5s-71.667 37.166 -113 44.499l16 82c52 -9.33301 99.333 -28.5 142 -57.5s78 -64.5 106 -106.5
c14 -20.667 26.333 -44.334 37 -71.001s18.5 -55 23.5 -85s6.83301 -61.5 5.5 -94.5s-6.66602 -66.5 -15.999 -100.5zM126.999 339.002v84h318l-18 -84h-300z" />
    <glyph glyph-name="afii10048" unicode="&#x42e;" horiz-adv-x="1112" 
d="M1066 389c0 -53.333 -10.333 -103.496 -31 -150.496s-48.667 -88.167 -84 -123.5s-76.666 -63.333 -123.999 -84s-97.666 -31 -150.999 -31s-103.5 10.167 -150.5 30.5s-88.333 48.166 -124 83.499s-63.834 76.666 -84.501 123.999c-18 40 -28.333 82.333 -31 127h-71
l-47 -365h-84l48 365h-91v83h102l46 335h84l-47 -335h64c5.33301 32 14.333 62.667 27 92c21.333 47.333 49.666 88.666 84.999 123.999s76.666 63.333 123.999 84s97.333 31 150 31s102.667 -10.333 150 -31s88.833 -48.834 124.5 -84.501s63.834 -77.167 84.501 -124.5
s31 -97.333 31 -150zM983 389.004c0 42 -8.16699 81.667 -24.5 119s-38.5 70 -66.5 98s-60.5 50.167 -97.5 66.5s-76.5 24.5 -118.5 24.5s-81.667 -8.16699 -119 -24.5s-70 -38.5 -98 -66.5s-50 -60.667 -66 -98s-24 -77 -24 -119s8.16699 -81.667 24.5 -119
s38.333 -69.833 66 -97.5s60.167 -49.667 97.5 -66s77 -24.5 119 -24.5s81.667 8.16699 119 24.5s69.833 38.333 97.5 66s49.667 60.167 66 97.5s24.5 77 24.5 119zM771 403.004c0 -26.667 -9.16699 -49.334 -27.5 -68.001s-40.833 -28 -67.5 -28
c-13.333 0 -25.666 2.5 -36.999 7.5s-21.166 11.833 -29.499 20.5s-15 18.834 -20 30.501s-7.5 24.167 -7.5 37.5c0 12.667 2.5 24.834 7.5 36.501s11.667 21.834 20 30.501s18.166 15.5 29.499 20.5s23.666 7.5 36.999 7.5s25.833 -2.5 37.5 -7.5s21.667 -11.833 30 -20.5
s15 -18.834 20 -30.501s7.5 -23.834 7.5 -36.501z" />
    <glyph glyph-name="afii10049" unicode="&#x42f;" horiz-adv-x="563" 
d="M22 71c58.667 0 129.668 34.665 213.001 103.998c9.33301 8.66699 20 16.834 32 24.501s25 15.167 39 22.5c-46 28 -82.167 64.5 -108.5 109.5s-39.5 94.5 -39.5 148.5c0 41.333 8.33301 80.333 25 117s39.5 68.834 68.5 96.501s62.833 49.5 101.5 65.5s80 24 124 24h41
v-783h-83v177c-52.667 -7.33301 -101.667 -29.333 -147 -66c-98.667 -82 -187.334 -123 -266.001 -123v83zM241.001 479.998c0 -27.333 4.99805 -53.1689 14.998 -77.502s23.833 -46.166 41.5 -65.499s38.334 -35.666 62.001 -48.999s48.834 -22.333 75.501 -27v435
c-26.667 -4.66699 -51.834 -13.667 -75.501 -27s-44.167 -29.5 -61.5 -48.5s-31.166 -40.5 -41.499 -64.5s-15.5 -49.333 -15.5 -76z" />
    <glyph glyph-name="afii10065" unicode="&#x430;" horiz-adv-x="613" 
d="M314 820l288 -820h-96l-197 583l-211 -583h-92zM401 186c0 -26.667 -9.16699 -49.334 -27.5 -68.001s-40.833 -28 -67.5 -28c-13.333 0 -25.666 2.5 -36.999 7.5s-21.166 11.833 -29.499 20.5s-15 18.834 -20 30.501s-7.5 24.167 -7.5 37.5
c0 12.667 2.5 24.834 7.5 36.501s11.667 21.834 20 30.501s18.166 15.5 29.499 20.5s23.666 7.5 36.999 7.5s25.833 -2.5 37.5 -7.5s21.667 -11.833 30 -20.5s15 -18.834 20 -30.501s7.5 -23.834 7.5 -36.501z" />
    <glyph glyph-name="afii10066" unicode="&#x431;" horiz-adv-x="445" 
d="M136 697l-0.000976562 -92.998c38.667 -4.66699 74.834 -15.834 108.501 -33.501s63 -40 88 -67s44.667 -57.833 59 -92.5s21.5 -71 21.5 -109c0 -41.333 -8.33301 -80.333 -25 -117s-39.5 -68.834 -68.5 -96.501s-62.833 -49.5 -101.5 -65.5s-80 -24 -124 -24h-41v781
h294v-83h-211zM329.999 302.002c0 27.333 -4.99805 53.1689 -14.998 77.502s-23.833 46.166 -41.5 65.499s-38.334 35.666 -62.001 48.999s-48.834 22.333 -75.501 27v-435c26.667 4.66699 51.834 13.667 75.501 27s44.167 29.5 61.5 48.5s31.166 40.5 41.499 64.5
s15.5 49.333 15.5 76z" />
    <glyph glyph-name="afii10067" unicode="&#x432;" horiz-adv-x="457" 
d="M425 262c0 -36 -6.83301 -69.834 -20.5 -101.501s-32.5 -59.334 -56.5 -83.001s-51.833 -42.5 -83.5 -56.5s-65.5 -21 -101.5 -21h-131v783h41c30.667 0 60 -6.16699 88 -18.5s52.5 -29.166 73.5 -50.499s37.667 -46 50 -74s18.5 -57.667 18.5 -89c0 -22 -3 -43 -9 -63
c40.667 -23.333 72.667 -55.166 96 -95.499s35 -83.833 35 -130.5zM342 261.999c0 18 -3.33203 36.1689 -9.99902 54.502s-16.667 35.666 -30 51.999s-29.833 31.166 -49.5 44.499s-42.167 24 -67.5 32c9.33301 16 17.666 31.667 24.999 47s11 35 11 59
c0 33.333 -10.167 63 -30.5 89s-45.833 43.667 -76.5 53v-610h49c24.667 0 47.834 4.66699 69.501 14s40.667 22.166 57 38.499s29.166 35.333 38.499 57s14 44.834 14 69.501z" />
    <glyph glyph-name="afii10068" unicode="&#x433;" horiz-adv-x="476" 
d="M138 0h-82v783h388v-83h-306v-700z" />
    <glyph glyph-name="afii10069" unicode="&#x434;" horiz-adv-x="650" 
d="M103 0v-121h-82v204h61l249 737l228 -737h67v-204h-82v121h-441zM174 83h290l-138 463z" />
    <glyph glyph-name="afii10070" unicode="&#x435;" 
d="M131 366h-99v83h99v334h384v-83h-302v-251h269v-83h-269v-283h302v-83h-384v366z" />
    <glyph glyph-name="afii10072" unicode="&#x436;" horiz-adv-x="964" 
d="M437 173c-56 -7.33301 -105.002 -29 -147.002 -65c-98.667 -82 -187.334 -123 -266.001 -123v82c58.667 0 129.667 34.667 213 104c26 22 56.667 40.667 92 56c-33.333 26 -64.166 59.167 -92.499 99.5s-53 84.833 -74 133.5s-37.5 100.667 -49.5 156
s-18.333 111 -19 167h83c0.666992 -58 8.33398 -115.833 23.001 -173.5s34 -110.667 58 -159s51.5 -89.5 82.5 -123.5s63.167 -56.333 96.5 -67v521h82v-521c33.333 10.667 65.5 33 96.5 67s58.5 75.167 82.5 123.5s43.333 101.333 58 159s22.334 115.5 23.001 173.5h83
c-0.666992 -56 -7 -111.667 -19 -167s-28.5 -107.333 -49.5 -156s-45.667 -93.167 -74 -133.5s-59.166 -73.5 -92.499 -99.5c35.333 -15.333 66 -34 92 -56c83.333 -69.333 154.333 -104 213 -104v-82c-78.667 0 -167.334 41 -266.001 123c-42 36 -91 57.667 -147 65v-173
h-82v173z" />
    <glyph glyph-name="afii10073" unicode="&#x437;" horiz-adv-x="559" 
d="M102 227c-2 -26 0.831055 -48.8398 8.49805 -68.5068s18.667 -36.334 33 -50.001s31.333 -24 51 -31s40.834 -10.5 63.501 -10.5c38 0 70.333 9 97 27s47.167 40.833 61.5 68.5s22.5 57.834 24.5 90.501s-2.66699 63.334 -14 92.001s-29.833 53.334 -55.5 74.001
s-58.5 33 -98.5 37c-7.33301 0.666992 -17.333 1.16699 -30 1.5s-23.334 -0.166992 -32.001 -1.5v82c16 -0.666992 31.5 -1 46.5 -1s27.5 2.33301 37.5 7c10.667 4.66699 20.334 11.5 29.001 20.5s15.5 19.167 20.5 30.5s7.83301 23.5 8.5 36.5
s-1.66602 25.833 -6.99902 38.5c-8 19.333 -20.333 33.166 -37 41.499s-33.667 11.333 -51 9s-32.833 -9.66602 -46.5 -21.999s-21.167 -29.5 -22.5 -51.5l-82 14c9.33301 59.333 41 100 95 122c30.667 12 59.834 16.667 87.501 14s52.167 -10.667 73.5 -24
s39 -30.666 53 -51.999s22.333 -44.333 25 -69s-0.833008 -49.667 -10.5 -75s-27.167 -48.666 -52.5 -69.999c44.667 -21.333 79 -48.5 103 -81.5s39.167 -68.333 45.5 -106s4.66602 -75.667 -5.00098 -114s-26.5 -73 -50.5 -104s-54.167 -56.833 -90.5 -77.5
s-77.5 -32 -123.5 -34c-34 -1.33301 -66.833 3.33398 -98.5 14.001s-59.167 26.334 -82.5 47.001s-41 45.834 -53 75.501s-15.333 63.167 -10 100.5h89z" />
    <glyph glyph-name="afii10074" unicode="&#x438;" horiz-adv-x="494" 
d="M455 796v-796h-83v535l-248 -357v-178h-82v783l82 1v-469z" />
    <glyph glyph-name="afii10075" unicode="&#x439;" horiz-adv-x="494" 
d="M455 796v-796h-83v535l-248 -357v-178h-82v783l82 1v-469zM267 829c-31.333 0 -59 7 -83 21s-40.667 33.667 -50 59l65 33c4.66699 -14.667 13.167 -26.834 25.5 -36.501s26.5 -14.5 42.5 -14.5c16.667 0 31.167 4.83301 43.5 14.5s20.833 21.834 25.5 36.501l65 -33
c-9.33301 -25.333 -26 -45 -50 -59s-52 -21 -84 -21z" />
    <glyph glyph-name="afii10076" unicode="&#x43a;" horiz-adv-x="678" 
d="M646 -15c-78.667 0 -167.334 41 -266.001 123c-42 36 -91 57.667 -147 65v-173h-82v171c-28.667 -6.66699 -53.334 -17 -74.001 -31l-45 69c36 24 75.667 39 119 45v527h82v-521c33.333 10.667 65.5 33 96.5 67s58.5 75.167 82.5 123.5s43.333 101.333 58 159
s22.334 115.5 23.001 173.5h83c-0.666992 -56 -7 -111.667 -19 -167s-28.5 -107.333 -49.5 -156s-45.667 -93.167 -74 -133.5s-59.166 -73.5 -92.499 -99.5c35.333 -15.333 66 -34 92 -56c83.333 -69.333 154.333 -104 213 -104v-82z" />
    <glyph glyph-name="afii10077" unicode="&#x43b;" horiz-adv-x="561" 
d="M288 797l272 -797h-96l-181 555l-188 -555h-92z" />
    <glyph glyph-name="afii10078" unicode="&#x43c;" horiz-adv-x="492" 
d="M245 448l-125 122v-570h-82l-1 791l210 -216l208 216l-1 -791h-82v581l-125 -133h-2z" />
    <glyph glyph-name="afii10079" unicode="&#x43d;" horiz-adv-x="657" 
d="M519 165h-313l-22 -165h-84l23 165h-91v83h102l71 535h84l-72 -535h291l-71 535h83l105 -783h-83z" />
    <glyph glyph-name="afii10080" unicode="&#x43e;" horiz-adv-x="844" 
d="M812 391c0 -53.333 -10.334 -103.494 -31.001 -150.494s-48.667 -88.167 -84 -123.5s-76.666 -63.333 -123.999 -84s-97.666 -31 -150.999 -31s-103.5 10.167 -150.5 30.5s-88.333 48.166 -124 83.499s-63.834 76.666 -84.501 123.999s-31 97.666 -31 150.999
s10.5 103.666 31.5 150.999s49.167 88.666 84.5 123.999s76.666 63.333 123.999 84s97.333 31 150 31s102.667 -10.333 150 -31s88.833 -48.834 124.5 -84.501s63.834 -77.167 84.501 -124.5s31 -97.333 31 -150zM728.999 391.006c0 42 -8.16699 81.667 -24.5 119
s-38.5 70 -66.5 98s-60.5 50.167 -97.5 66.5s-76.5 24.5 -118.5 24.5s-81.667 -8.16699 -119 -24.5s-70 -38.5 -98 -66.5s-50 -60.667 -66 -98s-24 -77 -24 -119s8.16699 -81.667 24.5 -119s38.333 -69.833 66 -97.5s60.167 -49.667 97.5 -66s77 -24.5 119 -24.5
s81.667 8.16699 119 24.5s69.833 38.333 97.5 66s49.667 60.167 66 97.5s24.5 77 24.5 119z" />
    <glyph glyph-name="afii10081" unicode="&#x43f;" horiz-adv-x="534" 
d="M394 704h-248v-704h-82v783h413v-783h-83v704z" />
    <glyph glyph-name="afii10082" unicode="&#x440;" horiz-adv-x="542" 
d="M510 478c0 -38 -7.16602 -74.3311 -21.499 -108.998s-34 -65.5 -59 -92.5s-54.333 -49.333 -88 -67s-69.834 -28.834 -108.501 -33.501v-176h-83v167c-24 -5.33301 -48.333 -15.333 -73 -30l-45 69c34.667 22.667 74 37.667 118 45v530h41c44 0 85.333 -8 124 -24
s72.5 -37.833 101.5 -65.5s51.833 -59.834 68.5 -96.501s25 -75.667 25 -117zM427.001 478.002c0 26.667 -5.16895 52.0029 -15.502 76.0029s-24.166 45.5 -41.499 64.5s-37.833 35.167 -61.5 48.5s-48.834 22.333 -75.501 27v-435c26.667 4.66699 51.834 13.667 75.501 27
s44.334 29.666 62.001 48.999s31.5 41.166 41.5 65.499s15 50.166 15 77.499z" />
    <glyph glyph-name="afii10083" unicode="&#x441;" horiz-adv-x="454" 
d="M422 0c-54 0 -104.667 10.3311 -152 30.998s-88.666 48.667 -123.999 84s-63.166 76.833 -83.499 124.5s-30.5 98.167 -30.5 151.5s10.167 103.833 30.5 151.5s48.166 89.334 83.499 125.001s76.666 63.834 123.999 84.501s98 31 152 31v-84
c-42 0 -81.667 -8.16699 -119 -24.5s-70 -38.5 -98 -66.5s-50.167 -60.667 -66.5 -98s-24.5 -77 -24.5 -119s8.16699 -81.667 24.5 -119s38.5 -70 66.5 -98s60.667 -50.167 98 -66.5s77 -24.5 119 -24.5v-83z" />
    <glyph glyph-name="afii10084" unicode="&#x442;" horiz-adv-x="487" 
d="M285 0h-83v700h-170v83h423v-83h-170v-700z" />
    <glyph glyph-name="afii10085" unicode="&#x443;" horiz-adv-x="536" 
d="M436 782h90l-288 -782h-89l76 207l-216 574l96 1l166 -450z" />
    <glyph glyph-name="afii10086" unicode="&#x444;" horiz-adv-x="775" 
d="M427 779l0.00195312 -70.001c42 -2 81.667 -10.833 119 -26.5s70 -37 98 -64s50.333 -59 67 -96s25 -77.833 25 -122.5c0 -44 -7.66699 -84.833 -23 -122.5s-36.833 -70.334 -64.5 -98.001s-60.334 -49.667 -98.001 -66s-78.834 -25.166 -123.501 -26.499v-87h-82v86
c-44.667 2 -85.5 11.167 -122.5 27.5s-68.833 38.333 -95.5 66s-47.5 60.167 -62.5 97.5s-22.5 78 -22.5 122c0 44.667 8 85.334 24 122.001s37.667 68.334 65 95.001s59.333 48.167 96 64.5s76 26.166 118 29.499v69h82zM648.002 400.999
c0 34.667 -5.99805 65.998 -17.998 93.998s-28.333 52 -49 72s-44.334 35.5 -71.001 46.5s-54.334 17.167 -83.001 18.5v-472c30.667 2.66699 59.5 10.167 86.5 22.5s50.5 28.833 70.5 49.5s35.667 45.334 47 74.001s17 60.334 17 95.001zM127.004 399.997
c0 -34.667 5.5 -66.167 16.5 -94.5s26.167 -52.666 45.5 -72.999s42.333 -36.833 69 -49.5s55.667 -21 87 -25v475c-28.667 -3.33301 -56.167 -10.833 -82.5 -22.5s-49.5 -27.167 -69.5 -46.5s-36 -42.833 -48 -70.5s-18 -58.834 -18 -93.501z" />
    <glyph glyph-name="afii10087" unicode="&#x445;" horiz-adv-x="812" 
d="M405 381l-271 -381h-102l323 451l-237 332h102l185 -260l187 260h101l-236 -332l323 -451h-102z" />
    <glyph glyph-name="afii10088" unicode="&#x446;" horiz-adv-x="547" 
d="M32 0v782h82v-703h248v703h83l-1 -699h71v-204h-82v121h-401z" />
    <glyph glyph-name="afii10089" unicode="&#x447;" horiz-adv-x="430" 
d="M309 783l82.9971 0.000976562v-783h-83v402c-26 -17.333 -59 -26 -99 -26c-25.333 0 -49.166 4 -71.499 12s-41.666 19.5 -57.999 34.5s-29.166 33.667 -38.499 56s-14 47.833 -14 76.5v228h83v-223c-0.666992 -18 2.83301 -34 10.5 -48s17.667 -25.333 30 -34
s26.166 -14.834 41.499 -18.501s30.5 -4 45.5 -1s28.833 9.16699 41.5 18.5s22.334 22.333 29.001 39v267z" />
    <glyph glyph-name="afii10090" unicode="&#x448;" horiz-adv-x="841" 
d="M51 782h82v-703h248v703h82v-703h248v703h83l-1 -782h-742v782z" />
    <glyph glyph-name="afii10091" unicode="&#x449;" horiz-adv-x="896" 
d="M51 782h82v-703h248v703h82v-703h248v703h83l-1 -699h71v-204h-82v121h-731v782z" />
    <glyph glyph-name="afii10092" unicode="&#x44a;" horiz-adv-x="578" 
d="M36 699l-0.000976562 83.002h233v-178c38.667 -4.66699 74.834 -15.834 108.501 -33.501s63 -40 88 -67s44.667 -57.833 59 -92.5s21.5 -71 21.5 -109c0 -41.333 -8.33301 -80.333 -25 -117s-39.5 -68.834 -68.5 -96.501s-62.833 -49.5 -101.5 -65.5s-80 -24 -124 -24
h-41v700h-150zM462.999 302.002c0 27.333 -4.99805 53.1689 -14.998 77.502s-23.833 46.166 -41.5 65.499s-38.334 35.666 -62.001 48.999s-48.834 22.333 -75.501 27v-435c26.667 4.66699 51.834 13.667 75.501 27s44.167 29.5 61.5 48.5s31.166 40.5 41.499 64.5
s15.5 49.333 15.5 76z" />
    <glyph glyph-name="afii10093" unicode="&#x44b;" horiz-adv-x="593" 
d="M128 780l-0.000976562 -175.998c38.667 -4.66699 74.834 -15.834 108.501 -33.501s63 -40 88 -67s44.667 -57.833 59 -92.5s21.5 -71 21.5 -109c0 -41.333 -8.33301 -80.333 -25 -117s-39.5 -68.834 -68.5 -96.501s-62.833 -49.5 -101.5 -65.5s-80 -24 -124 -24h-41v781
h83zM321.999 302.002c0 27.333 -4.99805 53.1689 -14.998 77.502s-23.833 46.166 -41.5 65.499s-38.334 35.666 -62.001 48.999s-48.834 22.333 -75.501 27v-435c26.667 4.66699 51.834 13.667 75.501 27s44.167 29.5 61.5 48.5s31.166 40.5 41.499 64.5
s15.5 49.333 15.5 76zM548.001 779.005v-779h-82v779h82z" />
    <glyph glyph-name="afii10094" unicode="&#x44c;" horiz-adv-x="445" 
d="M136 780l-0.000976562 -175.998c38.667 -4.66699 74.834 -15.834 108.501 -33.501s63 -40 88 -67s44.667 -57.833 59 -92.5s21.5 -71 21.5 -109c0 -41.333 -8.33301 -80.333 -25 -117s-39.5 -68.834 -68.5 -96.501s-62.833 -49.5 -101.5 -65.5s-80 -24 -124 -24h-41v781
h83zM329.999 302.002c0 27.333 -4.99805 53.1689 -14.998 77.502s-23.833 46.166 -41.5 65.499s-38.334 35.666 -62.001 48.999s-48.834 22.333 -75.501 27v-435c26.667 4.66699 51.834 13.667 75.501 27s44.167 29.5 61.5 48.5s31.166 40.5 41.499 64.5
s15.5 49.333 15.5 76z" />
    <glyph glyph-name="afii10095" unicode="&#x44d;" horiz-adv-x="458" 
d="M32 83c42 0 81.667 8.16895 119 24.502s70 38.5 98 66.5s50 60.667 66 98c13.333 30 21.333 61.667 24 95h-240v84h235c-4 20 -10.333 39.667 -19 59c-16 37.333 -38 70 -66 98s-60.667 50.167 -98 66.5s-77 24.5 -119 24.5v84c54 0 104.667 -10.333 152 -31
s88.666 -48.834 123.999 -84.501s63.166 -77.334 83.499 -125.001s30.5 -98.167 30.5 -151.5s-10.167 -103.833 -30.5 -151.5s-48.166 -89.167 -83.499 -124.5s-76.666 -63.333 -123.999 -84s-98 -31 -152 -31v83z" />
    <glyph glyph-name="afii10096" unicode="&#x44e;" horiz-adv-x="1112" 
d="M1066 389c0 -53.333 -10.333 -103.496 -31 -150.496s-48.667 -88.167 -84 -123.5s-76.666 -63.333 -123.999 -84s-97.666 -31 -150.999 -31s-103.5 10.167 -150.5 30.5s-88.333 48.166 -124 83.499s-63.834 76.666 -84.501 123.999c-18 40 -28.333 82.333 -31 127h-71
l-47 -365h-84l48 365h-91v83h102l46 335h84l-47 -335h64c5.33301 32 14.333 62.667 27 92c21.333 47.333 49.666 88.666 84.999 123.999s76.666 63.333 123.999 84s97.333 31 150 31s102.667 -10.333 150 -31s88.833 -48.834 124.5 -84.501s63.834 -77.167 84.501 -124.5
s31 -97.333 31 -150zM983 389.004c0 42 -8.16699 81.667 -24.5 119s-38.5 70 -66.5 98s-60.5 50.167 -97.5 66.5s-76.5 24.5 -118.5 24.5s-81.667 -8.16699 -119 -24.5s-70 -38.5 -98 -66.5s-50 -60.667 -66 -98s-24 -77 -24 -119s8.16699 -81.667 24.5 -119
s38.333 -69.833 66 -97.5s60.167 -49.667 97.5 -66s77 -24.5 119 -24.5s81.667 8.16699 119 24.5s69.833 38.333 97.5 66s49.667 60.167 66 97.5s24.5 77 24.5 119z" />
    <glyph glyph-name="afii10097" unicode="&#x44f;" horiz-adv-x="563" 
d="M22 71c58.667 0 129.668 34.665 213.001 103.998c9.33301 8.66699 20 16.834 32 24.501s25 15.167 39 22.5c-46 28 -82.167 64.5 -108.5 109.5s-39.5 94.5 -39.5 148.5c0 41.333 8.33301 80.333 25 117s39.5 68.834 68.5 96.501s62.833 49.5 101.5 65.5s80 24 124 24h41
v-783h-83v177c-52.667 -7.33301 -101.667 -29.333 -147 -66c-98.667 -82 -187.334 -123 -266.001 -123v83zM241.001 479.998c0 -27.333 4.99805 -53.1689 14.998 -77.502s23.833 -46.166 41.5 -65.499s38.334 -35.666 62.001 -48.999s48.834 -22.333 75.501 -27v435
c-26.667 -4.66699 -51.834 -13.667 -75.501 -27s-44.167 -29.5 -61.5 -48.5s-31.166 -40.5 -41.499 -64.5s-15.5 -49.333 -15.5 -76z" />
    <glyph glyph-name="afii10071" unicode="&#x451;" 
d="M131 0h384v83h-302v283h269v83h-269v251h302v83h-384v-334h-99v-83h99v-366zM353 911h83v-83h-83v83zM211 911h84v-83h-84v83z" />
    <glyph glyph-name="afii10101" unicode="&#x454;" horiz-adv-x="458" 
d="M422 0c-54 0 -104.667 10.3311 -152 30.998s-88.666 48.667 -123.999 84s-63.166 76.833 -83.499 124.5s-30.5 98.167 -30.5 151.5s10.167 103.833 30.5 151.5s48.166 89.334 83.499 125.001s76.666 63.834 123.999 84.501s98 31 152 31v-84
c-42 0 -81.667 -8.16699 -119 -24.5s-70 -38.5 -98 -66.5s-50 -60.667 -66 -98c-8.66699 -19.333 -15 -39 -19 -59h235v-84h-240c2.66699 -33.333 10.667 -65 24 -95c16 -37.333 38 -70 66 -98s60.667 -50.167 98 -66.5s77 -24.5 119 -24.5v-83z" />
    <glyph glyph-name="afii10103" unicode="&#x456;" horiz-adv-x="315" 
d="M283 667c0 -28 -7.99902 -52.8301 -23.999 -74.4971s-36.667 -36.834 -62 -45.501v-547h-82v547c-25.333 8.66699 -45.833 23.834 -61.5 45.501s-23.5 46.5 -23.5 74.5c0 17.333 3.33301 33.666 10 48.999s15.667 28.666 27 39.999s24.666 20.333 39.999 27
s31.666 10 48.999 10c16.667 0 32.834 -3.33301 48.501 -10s29.167 -15.834 40.5 -27.501s20.5 -25.167 27.5 -40.5s10.5 -31.333 10.5 -48zM200.001 667.003c0 11.333 -4.33301 21.5 -13 30.5s-19 13.5 -31 13.5s-22.333 -4.5 -31 -13.5s-13 -19.167 -13 -30.5
c0 -12 4.33301 -22.333 13 -31s19 -13 31 -13s22.333 4.33301 31 13s13 19 13 31z" />
    <glyph glyph-name="afii10104" unicode="&#x457;" horiz-adv-x="181" 
d="M134 779v-779h-82v779h82zM124 911h83v-83h-83v83zM-18 911h84v-83h-84v83z" />
    <glyph glyph-name="afii10110" unicode="&#x45e;" horiz-adv-x="536" 
d="M436 782h90l-288 -782h-89l76 207l-216 574l96 1l166 -450zM265 815c-31.333 0 -59 7 -83 21s-40.667 33.667 -50 59l65 33c4.66699 -14.667 13.167 -26.834 25.5 -36.501s26.5 -14.5 42.5 -14.5c16.667 0 31.167 4.83301 43.5 14.5s20.833 21.834 25.5 36.501l65 -33
c-9.33301 -25.333 -26 -45 -50 -59s-52 -21 -84 -21z" />
    <glyph glyph-name="afii10146" unicode="&#x462;" horiz-adv-x="772" 
d="M376 704l-248.001 0.00195312v-704h-82v783h413v-176c38.667 -4.66699 74.834 -15.834 108.501 -33.501s63 -40 88 -67s44.667 -57.833 59 -92.5s21.5 -71 21.5 -109c0 -41.333 -8.33301 -80.333 -25 -117s-39.5 -68.834 -68.5 -96.501s-62.833 -49.5 -101.5 -65.5
s-80 -24 -124 -24h-41v702zM652.999 305.002c0 27.333 -4.99805 53.1689 -14.998 77.502s-23.833 46.166 -41.5 65.499s-38.334 35.666 -62.001 48.999s-48.834 22.333 -75.501 27v-435c26.667 4.66699 51.834 13.667 75.501 27s44.167 29.5 61.5 48.5
s31.166 40.5 41.499 64.5s15.5 49.333 15.5 76z" />
    <glyph glyph-name="afii10194" unicode="&#x463;" horiz-adv-x="536" 
d="M32 626l-0.000976562 83.002h112v71h83v-71h111v-83h-111v-49c38.667 -4.66699 74.834 -14.834 108.501 -30.501s63 -35.834 88 -60.501s44.667 -53.167 59 -85.5s21.5 -67.5 21.5 -105.5c0 -41.333 -8.33301 -80 -25 -116s-39.5 -67.333 -68.5 -94
s-62.833 -47.667 -101.5 -63s-80 -23 -124 -23h-41v627h-112zM420.999 295.002c0 27.333 -4.99805 52.1689 -14.998 74.502s-23.833 42 -41.5 59s-38.334 31 -62.001 42s-48.834 18.833 -75.501 23.5v-408c26.667 4.66699 51.834 13.167 75.501 25.5
s44.167 27.666 61.5 45.999s31.166 39.166 41.499 62.499s15.5 48.333 15.5 75z" />
    <glyph glyph-name="afii10050" unicode="&#x490;" horiz-adv-x="476" 
d="M362 783v121h82v-204h-306v-700h-82v783h306z" />
    <glyph glyph-name="afii10098" unicode="&#x491;" horiz-adv-x="476" 
d="M362 783v121h82v-204h-306v-700h-82v783h306z" />
    <glyph glyph-name="endash" unicode="&#x2013;" horiz-adv-x="377" 
d="M32 347h313v-83h-313v83z" />
    <glyph glyph-name="emdash" unicode="&#x2014;" horiz-adv-x="707" 
d="M32 347h643v-83h-643v83z" />
    <glyph glyph-name="quoteleft" unicode="&#x2018;" horiz-adv-x="200" 
d="M32 662l60 162l76 -28l-60 -162z" />
    <glyph glyph-name="quoteright" unicode="&#x2019;" horiz-adv-x="200" 
d="M32 662l60 162l76 -28l-60 -162z" />
    <glyph glyph-name="quotesinglbase" unicode="&#x201a;" horiz-adv-x="200" 
d="M32 -48l60 162l76 -28l-60 -162z" />
    <glyph glyph-name="quotedblleft" unicode="&#x201c;" horiz-adv-x="300" 
d="M132 622l60 162l76 -28l-60 -162zM32 662l60 162l76 -28l-60 -162z" />
    <glyph glyph-name="quotedblright" unicode="&#x201d;" horiz-adv-x="300" 
d="M132 622l60 162l76 -28l-60 -162zM32 662l60 162l76 -28l-60 -162z" />
    <glyph glyph-name="quotedblbase" unicode="&#x201e;" horiz-adv-x="300" 
d="M132 -68l60 162l76 -28l-60 -162zM32 -28l60 162l76 -28l-60 -162z" />
    <glyph glyph-name="dagger" unicode="&#x2020;" horiz-adv-x="377" 
d="M228 -137l-81.999 0.00292969v402h-114v83h114v77h-114v83h114v39c-25.333 8.66699 -45.833 23.834 -61.5 45.501s-23.5 46.5 -23.5 74.5c0 17.333 3.33301 33.666 10 48.999s15.667 28.666 27 39.999s24.666 20.333 39.999 27s31.666 10 48.999 10
c16.667 0 32.834 -3.33301 48.501 -10s29.167 -15.834 40.5 -27.501s20.5 -25.167 27.5 -40.5s10.5 -31.333 10.5 -48c0 -28 -8 -52.833 -24 -74.5s-36.667 -36.834 -62 -45.501v-39h117v-83h-117v-77h117v-83h-117v-402zM231.001 667.003c0 11.333 -4.33301 21.5 -13 30.5
s-19 13.5 -31 13.5s-22.333 -4.5 -31 -13.5s-13 -19.167 -13 -30.5c0 -12 4.33301 -22.333 13 -31s19 -13 31 -13s22.333 4.33301 31 13s13 19 13 31z" />
    <glyph glyph-name="daggerdbl" unicode="&#x2021;" horiz-adv-x="377" 
d="M228 -137l-81.999 0.00292969v78h-114v83h114v77h-114v83h114v81h-114v83h114v77h-114v83h114v39c-25.333 8.66699 -45.833 23.834 -61.5 45.501s-23.5 46.5 -23.5 74.5c0 17.333 3.33301 33.666 10 48.999s15.667 28.666 27 39.999s24.666 20.333 39.999 27
s31.666 10 48.999 10c16.667 0 32.834 -3.33301 48.501 -10s29.167 -15.834 40.5 -27.501s20.5 -25.167 27.5 -40.5s10.5 -31.333 10.5 -48c0 -28 -8 -52.833 -24 -74.5s-36.667 -36.834 -62 -45.501v-39h117v-83h-117v-77h117v-83h-117v-81h117v-83h-117v-77h117v-83h-117
v-78zM231.001 667.003c0 11.333 -4.33301 21.5 -13 30.5s-19 13.5 -31 13.5s-22.333 -4.5 -31 -13.5s-13 -19.167 -13 -30.5c0 -12 4.33301 -22.333 13 -31s19 -13 31 -13s22.333 4.33301 31 13s13 19 13 31z" />
    <glyph glyph-name="bullet" unicode="&#x2022;" horiz-adv-x="297" 
d="M32 304c0 16 3 31.167 9 45.5s14.167 26.833 24.5 37.5s22.666 19 36.999 25s29.5 9 45.5 9s31.167 -3 45.5 -9s26.833 -14.333 37.5 -25s19 -23.167 25 -37.5s9 -29.5 9 -45.5s-3 -31.167 -9 -45.5s-14.333 -26.666 -25 -36.999s-23.167 -18.5 -37.5 -24.5
s-29.5 -9 -45.5 -9s-31.167 3 -45.5 9s-26.666 14.167 -36.999 24.5s-18.5 22.666 -24.5 36.999s-9 29.5 -9 45.5z" />
    <glyph glyph-name="ellipsis" unicode="&#x2026;" horiz-adv-x="417" 
d="M292 84h93v-83h-93v83zM162 84h93v-83h-93v83zM32 84h93v-83h-93v83z" />
    <glyph glyph-name="perthousand" unicode="&#x2030;" horiz-adv-x="1200" 
d="M1168 203c0 -30 -5.66797 -57.999 -17.001 -83.999s-26.833 -48.667 -46.5 -68s-42.667 -34.666 -69 -45.999s-54.5 -17 -84.5 -17c-21.333 0 -41.5 2.83301 -60.5 8.5s-36.833 13.834 -53.5 24.501c-35.333 -22 -74 -33 -116 -33c-29.333 0 -57.166 5.66699 -83.499 17
s-49.333 26.666 -69 45.999s-35.167 42.166 -46.5 68.499s-17 54.166 -17 83.499c0 30 5.83301 58 17.5 84s27.334 48.833 47.001 68.5s42.5 35.167 68.5 46.5s53.667 17 83 17c21.333 0 41.5 -3 60.5 -9s37.167 -14.333 54.5 -25c33.333 22.667 71.666 34 114.999 34
c29.333 0 57.166 -5.66699 83.499 -17s49.333 -26.833 69 -46.5s35.334 -42.5 47.001 -68.5s17.5 -54 17.5 -84zM464.999 577.001c0 -30 -5.66895 -57.998 -17.002 -83.998s-26.833 -48.667 -46.5 -68s-42.667 -34.666 -69 -45.999s-54.5 -17 -84.5 -17
c-29.333 0 -57.166 5.66699 -83.499 17s-49.333 26.666 -69 45.999s-35.167 42.166 -46.5 68.499s-17 54.166 -17 83.499c0 30 5.83301 58 17.5 84s27.334 48.833 47.001 68.5s42.5 35.167 68.5 46.5s53.667 17 83 17s57.166 -5.66699 83.499 -17s49.333 -26.833 69 -46.5
s35.334 -42.5 47.001 -68.5s17.5 -54 17.5 -84zM289.997 -64.9971l290 859h84l-291 -859h-83zM394.997 577.003c0 20 -3.83105 38.833 -11.498 56.5s-18.334 33.334 -32.001 47.001s-29.334 24.334 -47.001 32.001s-36.5 11.5 -56.5 11.5s-38.833 -3.83301 -56.5 -11.5
s-33 -18.334 -46 -32.001s-23.333 -29.334 -31 -47.001s-11.5 -36.5 -11.5 -56.5s3.83301 -38.833 11.5 -56.5s18 -33.167 31 -46.5s28.333 -23.833 46 -31.5s36.5 -11.5 56.5 -11.5s39 3.83301 57 11.5s33.667 18.167 47 31.5s23.833 28.833 31.5 46.5s11.5 36.5 11.5 56.5
zM1098 203.003c0 20 -3.83105 38.8301 -11.498 56.4971s-18.334 33.334 -32.001 47.001s-29.334 24.334 -47.001 32.001s-36.5 11.5 -56.5 11.5s-40 -4.66699 -60 -14c14.667 -18.667 26.167 -39.167 34.5 -61.5s12.5 -46.166 12.5 -71.499s-4.16699 -49.333 -12.5 -72
s-19.833 -43 -34.5 -61c16.667 -8.66699 36.667 -13 60 -13c20 0 39 3.83301 57 11.5s33.667 18.167 47 31.5s23.833 28.833 31.5 46.5s11.5 36.5 11.5 56.5zM721.001 57c23.333 0 43.667 4.33594 61 13.0029c-31.333 36.667 -47 81 -47 133
c0 51.333 15.667 95.666 47 132.999c-20.667 9.33301 -41 14 -61 14s-38.833 -3.83301 -56.5 -11.5s-33 -18.334 -46 -32.001s-23.333 -29.334 -31 -47.001s-11.5 -36.5 -11.5 -56.5s3.83301 -38.833 11.5 -56.5s18 -33.167 31 -46.5s28.333 -23.833 46 -31.5
s36.5 -11.5 56.5 -11.5zM868.002 203.003c0 16.667 -2.83301 32.667 -8.5 48s-13.5 29.333 -23.5 42c-20 -26 -30 -56 -30 -90s10 -64 30 -90c10 12.667 17.833 26.5 23.5 41.5s8.5 31.167 8.5 48.5z" />
    <glyph glyph-name="guilsinglleft" unicode="&#x2039;" horiz-adv-x="249" 
d="M32 384l118 168l67 -47l-84 -121l84 -121l-67 -47z" />
    <glyph glyph-name="guilsinglright" unicode="&#x203a;" horiz-adv-x="249" 
d="M116 384l-84 121l67 47l118 -168l-118 -168l-67 47z" />
    <glyph glyph-name="Euro" unicode="&#x20ac;" horiz-adv-x="593" 
d="M226 401l0.00292969 -25.001h248l-66 -82h-168c10.667 -32 25.667 -61.167 45 -87.5s42 -49 68 -68s54.667 -33.833 86 -44.5s64 -16 98 -16v-82c-45.333 0 -88.833 7.5 -130.5 22.5s-79.334 35.833 -113.001 62.5s-62.5 58.167 -86.5 94.5s-41.333 75.833 -52 118.5
h-123l67 82h44v25h-108l67 83h53c10.667 42.667 28.167 82.167 52.5 118.5s53.333 67.833 87 94.5s71.167 47.5 112.5 62.5s84.666 22.5 129.999 22.5v-83c-34 0 -66.5 -5.33301 -97.5 -16s-59.5 -25.5 -85.5 -44.5s-48.833 -41.667 -68.5 -68
s-34.834 -55.166 -45.501 -86.499h321l-67 -83h-268z" />
    <glyph glyph-name="afii61352" unicode="&#x2116;" horiz-adv-x="980" 
d="M374 587c0 16.667 -3.16699 32.667 -9.5 48s-15 28.666 -26 39.999s-24 20.333 -39 27s-30.833 10 -47.5 10c-17.333 0 -33.5 -3.33301 -48.5 -10s-28.333 -15.667 -40 -27s-20.834 -24.666 -27.501 -39.999s-10 -31.333 -10 -48v-587h-82v783h82v-31
c36.667 28.667 78.667 43 126 43c28 0 54.5 -5.5 79.5 -16.5s46.833 -26 65.5 -45s33.334 -41.167 44.001 -66.5s16 -52 16 -80v-587h-83v587zM634 287h173v-83h-173v83zM941 564c0 -30 -5.66895 -57.998 -17.002 -83.998s-26.833 -48.667 -46.5 -68
s-42.667 -34.666 -69 -45.999s-54.5 -17 -84.5 -17c-29.333 0 -57.166 5.66699 -83.499 17s-49.333 26.666 -69 45.999s-35.167 42.166 -46.5 68.499s-17 54.166 -17 83.499c0 30 5.83301 58 17.5 84s27.334 48.833 47.001 68.5s42.5 35.167 68.5 46.5s53.667 17 83 17
s57.166 -5.66699 83.499 -17s49.333 -26.833 69 -46.5s35.334 -42.5 47.001 -68.5s17.5 -54 17.5 -84zM870.998 564.002c0 20 -3.83105 38.833 -11.498 56.5s-18.334 33.334 -32.001 47.001s-29.334 24.334 -47.001 32.001s-36.5 11.5 -56.5 11.5
s-38.833 -3.83301 -56.5 -11.5s-33 -18.334 -46 -32.001s-23.333 -29.334 -31 -47.001s-11.5 -36.5 -11.5 -56.5s3.83301 -38.833 11.5 -56.5s18 -33.167 31 -46.5s28.333 -23.833 46 -31.5s36.5 -11.5 56.5 -11.5s39 3.83301 57 11.5s33.667 18.167 47 31.5
s23.833 28.833 31.5 46.5s11.5 36.5 11.5 56.5z" />
    <glyph glyph-name="trademark" unicode="&#x2122;" horiz-adv-x="511" 
d="M139 490h-44v259h-63v44h170v-44h-63v-259zM435 722c0 9.33301 -2.83301 16.835 -8.5 22.502s-12.834 8.5 -21.501 8.5c-8 0 -15 -2.83301 -21 -8.5s-9 -13.167 -9 -22.5v-232h-45v232c0 20.667 -10.333 31 -31 31c-7.33301 0 -14.166 -2.83301 -20.499 -8.5
s-9.5 -13.167 -9.5 -22.5v-232h-44v232c0 21.333 7.16699 39.166 21.5 53.499s31.833 21.5 52.5 21.5s38.667 -7 54 -21c14 14 31.333 21 52 21s38.167 -7.33301 52.5 -22s21.5 -32.334 21.5 -53.001v-232h-44v232z" />
    </font>
</defs>
</svg>
